<?xml version="1.0" encoding="utf-8"?>
<!-- Generator: Adobe Illustrator 16.0.0, SVG Export Plug-In . SVG Version: 6.00 Build 0)  -->
<!DOCTYPE svg PUBLIC "-//W3C//DTD SVG 1.1 Tiny//EN" "http://www.w3.org/Graphics/SVG/1.1/DTD/svg11-tiny.dtd">
<svg version="1.1" baseProfile="tiny" id="Calque_1"
	 xmlns="http://www.w3.org/2000/svg" xmlns:xlink="http://www.w3.org/1999/xlink" x="0px" y="0px" width="192px" height="192px"
	 viewBox="0 0 192 192" xml:space="preserve">
<g id="Arcade">
	<circle fill="#F2F2F2" cx="70" cy="115" r="7"/>
	<path fill="#F2F2F2" d="M144,26H48c-2.273,0-4,1.729-4,4v132c0,2.276,1.727,4,4,4h96c2.273,0,4-1.724,4-4V30
		C148,27.729,146.273,26,144,26z M70,125c-5.523,0-10-4.477-10-10s4.477-10,10-10s10,4.477,10,10S75.523,125,70,125z M97,122
		c-2.209,0-4-1.791-4-4s1.791-4,4-4s4,1.791,4,4S99.209,122,97,122z M107,129c-2.209,0-4-1.791-4-4s1.791-4,4-4s4,1.791,4,4
		S109.209,129,107,129z M107,117c-2.209,0-4-1.791-4-4s1.791-4,4-4s4,1.791,4,4S109.209,117,107,117z M117,124c-2.209,0-4-1.791-4-4
		s1.791-4,4-4s4,1.791,4,4S119.209,124,117,124z M117,112c-2.209,0-4-1.791-4-4s1.791-4,4-4s4,1.791,4,4S119.209,112,117,112z
		 M131,147c0,0.776-0.222,1-1,1c-0.777,0-1-0.224-1-1v-6c0-0.776,0.223-1,1-1c0.778,0,1,0.224,1,1V147z M127,119
		c-2.209,0-4-1.791-4-4s1.791-4,4-4s4,1.791,4,4S129.209,119,127,119z M135,90c0,1.138-0.861,2-2,2H59c-1.139,0-2-0.862-2-2V41
		c0-1.139,0.861-2,2-2h74c1.139,0,2,0.861,2,2V90z"/>
</g>
</svg>
