<?xml version="1.0" encoding="utf-8"?>
<!-- Generator: Adobe Illustrator 16.0.0, SVG Export Plug-In . SVG Version: 6.00 Build 0)  -->
<!DOCTYPE svg PUBLIC "-//W3C//DTD SVG 1.1 Tiny//EN" "http://www.w3.org/Graphics/SVG/1.1/DTD/svg11-tiny.dtd">
<svg version="1.1" baseProfile="tiny" id="Calque_1"
	 xmlns="http://www.w3.org/2000/svg" xmlns:xlink="http://www.w3.org/1999/xlink" x="0px" y="0px" width="192px" height="192px"
	 viewBox="0 0 192 192" xml:space="preserve">
<g id="Atari_2600">
	<path fill="#F2F2F2" d="M147,29H45c-5.613,0-10,4.389-10,10v114c0,5.611,4.387,10,10,10h102c5.613,0,10-4.389,10-10V39
		C157,33.389,152.613,29,147,29z M96,150.905c-26.756,0-48.448-21.69-48.448-48.448c0-2.262,0.159-4.488,0.46-6.669l-0.002,0.008
		c0,0,0.002-0.011,0.006-0.026c0.375-2.723,0.975-5.373,1.784-7.926c0.47-2.093,0.96-4.266,1.369-6.088
		c1.223-5.431,1.778-8.126,0-11.045l-5.475-8.522c-0.28-0.399-0.544-0.812-0.79-1.234l-0.056-0.085h0.007
		c-1.432-2.487-2.255-5.372-2.255-8.448c0-9.376,7.599-16.976,16.976-16.976c5.451,0,10.297,2.569,13.403,6.565v-0.008
		c0,0,3.75,4.872,6.257,8.13c2.508,3.261,4.19,3.811,9.397,3.88l4.8,0.065c0.85-0.042,1.705-0.065,2.566-0.065
		c1.322,0,2.637,0.054,3.934,0.157h0.016l0,0c24.908,2.012,44.499,22.863,44.499,48.287C144.448,129.215,122.756,150.905,96,150.905
		z"/>
	<path fill="#F2F2F2" d="M96,62.408c-22.119,0-40.049,17.932-40.049,40.049c0,22.12,17.93,40.053,40.049,40.053
		s40.049-17.933,40.049-40.053C136.049,80.34,118.119,62.408,96,62.408z M96,135.668c-18.342,0-33.211-14.867-33.211-33.211
		c0-18.34,14.869-33.212,33.211-33.212s33.211,14.872,33.211,33.212C129.211,120.801,114.342,135.668,96,135.668z"/>
	<circle fill="#F2F2F2" cx="59.576" cy="52.421" r="11.514"/>
	<path fill="#F2F2F2" d="M108.633,95.127c-0.867-1.496-10.926-7.276-12.664-7.276c-1.734,0.004-11.77,5.83-12.633,7.33
		c-0.865,1.504-0.84,13.106,0.031,14.606c0.869,1.5,10.926,7.279,12.66,7.279c0.002,0,0.004,0,0.006,0
		c1.736-0.008,11.77-5.834,12.631-7.334C109.529,108.233,109.504,96.627,108.633,95.127z"/>
</g>
</svg>
