<?xml version="1.0" encoding="utf-8"?>
<!-- Generator: Adobe Illustrator 16.0.0, SVG Export Plug-In . SVG Version: 6.00 Build 0)  -->
<!DOCTYPE svg PUBLIC "-//W3C//DTD SVG 1.1 Tiny//EN" "http://www.w3.org/Graphics/SVG/1.1/DTD/svg11-tiny.dtd">
<svg version="1.1" baseProfile="tiny" id="Calque_1"
	 xmlns="http://www.w3.org/2000/svg" xmlns:xlink="http://www.w3.org/1999/xlink" x="0px" y="0px" width="192px" height="192px"
	 viewBox="0 0 192 192" xml:space="preserve">
<path id="Lynx" fill="#F2F2F2" d="M174.17,62.494C173.35,60.641,170.367,57,162,57h-14c-1.625,0-5,0-6.264,0.469l-5.113,1.705
	C135.16,59.662,132.969,60,132,60H60c-0.966,0-3.163-0.338-4.625-0.826l-5.113-1.705C49,57,46.623,57,45,57H29
	c-8.367,0-10.35,3.641-11.172,5.494C12.608,74.271,10,85.127,10,96c0,10.879,2.608,21.771,7.828,33.551
	C18.65,131.402,21.633,135,30,135h16c1.623,0,3,0,4.262-0.426l5.113-1.705C56.837,132.381,59.034,132,60,132h72
	c0.969,0,3.16,0.381,4.623,0.869l5.113,1.705C143,135,145.375,135,147,135h15c8.367,0,11.35-3.598,12.17-5.449
	C179.392,117.771,182,106.879,182,96C182,85.127,179.392,74.271,174.17,62.494z M41,99c0,0.775-0.225,1-1,1h-6v6
	c0,0.777-0.229,1-1,1h-6c-0.775,0-1-0.223-1-1v-6h-6c-0.771,0-1-0.225-1-1v-6c0-0.77,0.229-1,1-1h6v-6c0-0.771,0.225-1,1-1h6
	c0.771,0,1,0.229,1,1v6h6c0.775,0,1,0.23,1,1V99z M54.068,80.777c0.04-0.275,0.296-0.473,0.576-0.43l1.593,0.223
	c0.281,0.039,0.474,0.297,0.435,0.574l-0.924,6.551c-0.04,0.275-0.296,0.475-0.576,0.434l-1.596-0.227
	c-0.279-0.039-0.472-0.297-0.432-0.572L54.068,80.777z M52.774,99.227v-6.615c0-0.283,0.227-0.51,0.509-0.51h1.611
	c0.281,0,0.509,0.227,0.509,0.51v6.615c0,0.281-0.228,0.508-0.509,0.508h-1.611C53.001,99.734,52.774,99.508,52.774,99.227z
	 M56.277,111.469l-1.596,0.227c-0.277,0.039-0.534-0.152-0.573-0.43l-0.944-6.547c-0.04-0.281,0.153-0.537,0.433-0.578l1.593-0.227
	c0.279-0.039,0.539,0.152,0.578,0.43l0.941,6.547C56.749,111.172,56.556,111.428,56.277,111.469z M121,113H71V79h50V113z
	 M135.758,80.57l1.596-0.223c0.277-0.043,0.536,0.154,0.573,0.43l0.929,6.553c0.037,0.275-0.158,0.533-0.435,0.572l-1.596,0.227
	c-0.276,0.041-0.534-0.158-0.573-0.434l-0.926-6.551C135.286,80.867,135.481,80.609,135.758,80.57z M137.893,111.266
	c-0.04,0.277-0.299,0.469-0.578,0.43l-1.596-0.227c-0.277-0.041-0.47-0.297-0.43-0.578l0.94-6.547
	c0.042-0.277,0.299-0.469,0.575-0.43l1.596,0.227c0.277,0.041,0.47,0.297,0.43,0.578L137.893,111.266z M139.227,99.227
	c0,0.281-0.229,0.508-0.51,0.508h-1.61c-0.281,0-0.509-0.227-0.509-0.508v-6.615c0-0.283,0.228-0.51,0.509-0.51h1.61
	c0.281,0,0.51,0.227,0.51,0.51V99.227z M147,126c-2.762,0-5-2.238-5-5s2.238-5,5-5s5,2.238,5,5S149.762,126,147,126z M147,76
	c-2.762,0-5-2.238-5-5s2.238-5,5-5s5,2.238,5,5S149.762,76,147,76z M163,131c-2.762,0-5-2.238-5-5s2.238-5,5-5s5,2.238,5,5
	S165.762,131,163,131z M163,71c-2.762,0-5-2.238-5-5s2.238-5,5-5s5,2.238,5,5S165.762,71,163,71z"/>
</svg>
