<?xml version="1.0" encoding="utf-8"?>
<!-- Generator: Adobe Illustrator 16.0.0, SVG Export Plug-In . SVG Version: 6.00 Build 0)  -->
<!DOCTYPE svg PUBLIC "-//W3C//DTD SVG 1.1 Tiny//EN" "http://www.w3.org/Graphics/SVG/1.1/DTD/svg11-tiny.dtd">
<svg version="1.1" baseProfile="tiny" id="Calque_1"
	 xmlns="http://www.w3.org/2000/svg" xmlns:xlink="http://www.w3.org/1999/xlink" x="0px" y="0px" width="192px" height="192px"
	 viewBox="0 0 192 192" xml:space="preserve">
<g id="Cave_Story">
	<path fill="#F2F2F2" d="M131,67H61c-2,0-3,1-3,3v40c-0.006,2,1,3,3,3h70c2,0,3-1,3-3V70C134,68,133,67,131,67z M75,97.799V87
		c0-1.104-0.896-2-2-2s-2,0.896-2,2v10.799c-4.564-0.927-8-4.961-8-9.799c0-5.522,4.477-10,10-10s10,4.478,10,10
		C83,92.838,79.564,96.872,75,97.799z M106,110H86c-1.064,0-2-0.939-2-2c0-1.064,0.936-2,2-2h20c1.062,0,2,0.936,2,2
		C108,109.061,107.062,110,106,110z M121,97.799V87c0-1.104-0.896-2-2-2s-2,0.896-2,2v10.799c-4.564-0.927-8-4.961-8-9.799
		c0-5.522,4.477-10,10-10s10,4.478,10,10C129,92.838,125.564,96.872,121,97.799z"/>
	<path fill="#F2F2F2" d="M96,21c-62.262,0-75,12.647-75,75s12.535,75,75,75c62.469,0,75-12.621,75-75S158.265,21,96,21z M147,101h-9
		v9c0,4.373-3.631,7-8,7h-8v3l6,3v7h-23v-7l6-3v-3H81v3l6,3v7H64v-7l6-3v-3h-8c-4.369,0-8-3.627-8-8v-8h-9c-2.383,0-4-2.615-4-5
		c0-6.697,5.426-12.244,13-15V70c0-4.367,3.631-8,8-8h68c4.369,0,8,3.633,8,8v11c7.572,2.756,13,9.303,13,16
		C151,99.385,149.383,101,147,101z"/>
</g>
</svg>
