<?xml version="1.0" encoding="utf-8"?>
<!-- Generator: Adobe Illustrator 16.0.0, SVG Export Plug-In . SVG Version: 6.00 Build 0)  -->
<!DOCTYPE svg PUBLIC "-//W3C//DTD SVG 1.1 Tiny//EN" "http://www.w3.org/Graphics/SVG/1.1/DTD/svg11-tiny.dtd">
<svg version="1.1" baseProfile="tiny" id="Calque_1"
	 xmlns="http://www.w3.org/2000/svg" xmlns:xlink="http://www.w3.org/1999/xlink" x="0px" y="0px" width="192px" height="192px"
	 viewBox="0 0 192 192" xml:space="preserve">
<path id="DOS_Box" fill="#F2F2F2" d="M170,59H22c-2.769,0-5,2.232-5,5v64c0,2.769,2.231,5,5,5h148c2.769,0,5-2.231,5-5V65
	C175,62.232,172.769,59,170,59z M128,68c0-1.104,0.896-2,2-2h6c1.104,0,2,0.896,2,2v6c0,1.104-0.896,2-2,2h-6c-1.104,0-2-0.896-2-2
	V68z M127,81v6c0,1.104-0.896,2-2,2h-6c-1.104,0-2-0.896-2-2v-6c0-1.104,0.896-2,2-2h6C126.104,79,127,79.896,127,81z M115,68
	c0-1.104,0.896-2,2-2h6c1.104,0,2,0.896,2,2v6c0,1.104-0.896,2-2,2h-6c-1.104,0-2-0.896-2-2V68z M117,94v6c0,1.104-0.896,2-2,2h-6
	c-1.104,0-2-0.896-2-2v-6c0-1.104,0.896-2,2-2h6C116.104,92,117,92.896,117,94z M114,81v6c0,1.104-0.896,2-2,2h-6
	c-1.104,0-2-0.896-2-2v-6c0-1.104,0.896-2,2-2h6C113.104,79,114,79.896,114,81z M102,68c0-1.104,0.896-2,2-2h6c1.104,0,2,0.896,2,2
	v6c0,1.104-0.896,2-2,2h-6c-1.104,0-2-0.896-2-2V68z M104,94v6c0,1.104-0.896,2-2,2h-6c-1.104,0-2-0.896-2-2v-6c0-1.104,0.896-2,2-2
	h6C103.104,92,104,92.896,104,94z M101,81v6c0,1.104-0.896,2-2,2h-6c-1.104,0-2-0.896-2-2v-6c0-1.104,0.896-2,2-2h6
	C100.104,79,101,79.896,101,81z M89,68c0-1.104,0.896-2,2-2h6c1.104,0,2,0.896,2,2v6c0,1.104-0.896,2-2,2h-6c-1.104,0-2-0.896-2-2
	V68z M91,94v6c0,1.104-0.896,2-2,2h-6c-1.104,0-2-0.896-2-2v-6c0-1.104,0.896-2,2-2h6C90.104,92,91,92.896,91,94z M86,107v6
	c0,1.104-0.896,2-2,2h-6c-1.104,0-2-0.896-2-2v-6c0-1.104,0.896-2,2-2h6C85.104,105,86,105.896,86,107z M88,81v6
	c0,1.104-0.896,2-2,2h-6c-1.104,0-2-0.896-2-2v-6c0-1.104,0.896-2,2-2h6C87.104,79,88,79.896,88,81z M76,68c0-1.104,0.896-2,2-2h6
	c1.104,0,2,0.896,2,2v6c0,1.104-0.896,2-2,2h-6c-1.104,0-2-0.896-2-2V68z M78,94v6c0,1.104-0.896,2-2,2h-6c-1.104,0-2-0.896-2-2v-6
	c0-1.104,0.896-2,2-2h6C77.104,92,78,92.896,78,94z M73,107v6c0,1.104-0.896,2-2,2h-6c-1.104,0-2-0.896-2-2v-6c0-1.104,0.896-2,2-2
	h6C72.104,105,73,105.896,73,107z M75,81v6c0,1.104-0.896,2-2,2h-6c-1.104,0-2-0.896-2-2v-6c0-1.104,0.896-2,2-2h6
	C74.104,79,75,79.896,75,81z M63,68c0-1.104,0.896-2,2-2h6c1.104,0,2,0.896,2,2v6c0,1.104-0.896,2-2,2h-6c-1.104,0-2-0.896-2-2V68z
	 M65,94v6c0,1.104-0.896,2-2,2h-6c-1.104,0-2-0.896-2-2v-6c0-1.104,0.896-2,2-2h6C64.104,92,65,92.896,65,94z M62,81v6
	c0,1.104-0.896,2-2,2h-6c-1.104,0-2-0.896-2-2v-6c0-1.104,0.896-2,2-2h6C61.104,79,62,79.896,62,81z M50,68c0-1.104,0.896-2,2-2h6
	c1.104,0,2,0.896,2,2v6c0,1.104-0.896,2-2,2h-6c-1.104,0-2-0.896-2-2V68z M52,94v6c0,1.104-0.896,2-2,2h-6c-1.104,0-2-0.896-2-2v-6
	c0-1.104,0.896-2,2-2h6C51.104,92,52,92.896,52,94z M49,81v6c0,1.104-0.896,2-2,2h-6c-1.104,0-2-0.896-2-2v-6c0-1.104,0.896-2,2-2h6
	C48.104,79,49,79.896,49,81z M37,68c0-1.104,0.896-2,2-2h6c1.104,0,2,0.896,2,2v6c0,1.104-0.896,2-2,2h-6c-1.104,0-2-0.896-2-2V68z
	 M24,68c0-1.104,0.896-2,2-2h6c1.104,0,2,0.896,2,2v6c0,1.104-0.896,2-2,2h-6c-1.104,0-2-0.896-2-2V68z M24,81c0-1.104,0.896-2,2-2
	h8c1.104,0,2,0.896,2,2v6c0,1.104-0.896,2-2,2h-8c-1.104,0-2-0.896-2-2V81z M24,94c0-1.104,0.896-2,2-2h11c1.104,0,2,0.896,2,2v6
	c0,1.104-0.896,2-2,2H26c-1.104,0-2-0.896-2-2V94z M34,126c0,1.104-0.896,2-2,2h-6c-1.104,0-2-0.896-2-2v-6c0-1.104,0.896-2,2-2h6
	c1.104,0,2,0.896,2,2V126z M34,113c0,1.104-0.896,2-2,2h-6c-1.104,0-2-0.896-2-2v-6c0-1.104,0.896-2,2-2h6c1.104,0,2,0.896,2,2V113z
	 M47,126c0,1.104-0.896,2-2,2h-6c-1.104,0-2-0.896-2-2v-6c0-1.104,0.896-2,2-2h6c1.104,0,2,0.896,2,2V126z M47,113
	c0,1.104-0.896,2-2,2h-6c-1.104,0-2-0.896-2-2v-6c0-1.104,0.896-2,2-2h6c1.104,0,2,0.896,2,2V113z M60,126c0,1.104-0.896,2-2,2h-6
	c-1.104,0-2-0.896-2-2v-6c0-1.104,0.896-2,2-2h6c1.104,0,2,0.896,2,2V126z M60,113c0,1.104-0.896,2-2,2h-6c-1.104,0-2-0.896-2-2v-6
	c0-1.104,0.896-2,2-2h6c1.104,0,2,0.896,2,2V113z M99,126c0,1.104-0.896,2-2,2H65c-1.104,0-2-0.896-2-2v-6c0-1.104,0.896-2,2-2h32
	c1.104,0,2,0.896,2,2V126z M99,113c0,1.104-0.896,2-2,2h-6c-1.104,0-2-0.896-2-2v-6c0-1.104,0.896-2,2-2h6c1.104,0,2,0.896,2,2V113z
	 M112,126c0,1.104-0.896,2-2,2h-6c-1.104,0-2-0.896-2-2v-6c0-1.104,0.896-2,2-2h6c1.104,0,2,0.896,2,2V126z M112,113
	c0,1.104-0.896,2-2,2h-6c-1.104,0-2-0.896-2-2v-6c0-1.104,0.896-2,2-2h6c1.104,0,2,0.896,2,2V113z M125,126c0,1.104-0.896,2-2,2h-6
	c-1.104,0-2-0.896-2-2v-6c0-1.104,0.896-2,2-2h6c1.104,0,2,0.896,2,2V126z M125,113c0,1.104-0.896,2-2,2h-6c-1.104,0-2-0.896-2-2v-6
	c0-1.104,0.896-2,2-2h6c1.104,0,2,0.896,2,2V113z M130,100c0,1.104-0.896,2-2,2h-6c-1.104,0-2-0.896-2-2v-6c0-1.104,0.896-2,2-2h6
	c1.104,0,2,0.896,2,2V100z M129,87v-6c0-1.104,0.896-2,2-2h17c1.104,0,2,0.896,2,2v6c0,1.104-0.896,2-2,2h-17
	C129.896,89,129,88.104,129,87z M142,126c0,1.104-0.896,2-2,2h-6c-1.104,0-2-0.896-2-2v-6c0-1.104,0.896-2,2-2h6
	c1.104,0,2,0.896,2,2V126z M155,126c0,1.104-0.896,2-2,2h-6c-1.104,0-2-0.896-2-2v-6c0-1.104,0.896-2,2-2h6c1.104,0,2,0.896,2,2V126
	z M155,113c0,1.104-0.896,2-2,2h-6c-1.104,0-2-0.896-2-2v-6c0-1.104,0.896-2,2-2h6c1.104,0,2,0.896,2,2V113z M155,100
	c0,1.104-0.896,2-2,2h-18c-1.104,0-2-0.896-2-2v-6c0-1.104,0.896-2,2-2h18c1.104,0,2,0.896,2,2V100z M168,126c0,1.104-0.896,2-2,2
	h-6c-1.104,0-2-0.896-2-2v-6c0-1.104,0.896-2,2-2h6c1.104,0,2,0.896,2,2V126z M168,100c0,1.104-0.896,2-2,2h-6c-1.104,0-2-0.896-2-2
	v-9c0-1.104-0.896-2-2-2h-1c-1.104,0-2-0.896-2-2v-6c0-1.104,0.896-2,2-2h11c1.104,0,2,0.896,2,2V100z M168,74c0,1.104-0.896,2-2,2
	h-6c-1.104,0-2-0.896-2-2v-6c0-1.104,0.896-2,2-2h6c1.104,0,2,0.896,2,2V74z"/>
</svg>
