<?xml version="1.0" encoding="utf-8"?>
<!-- Generator: Adobe Illustrator 16.0.0, SVG Export Plug-In . SVG Version: 6.00 Build 0)  -->
<!DOCTYPE svg PUBLIC "-//W3C//DTD SVG 1.1 Tiny//EN" "http://www.w3.org/Graphics/SVG/1.1/DTD/svg11-tiny.dtd">
<svg version="1.1" baseProfile="tiny" id="Calque_1"
	 xmlns="http://www.w3.org/2000/svg" xmlns:xlink="http://www.w3.org/1999/xlink" x="0px" y="0px" width="192px" height="192px"
	 viewBox="0 0 192 192" xml:space="preserve">
<path id="FFMpeg" fill="#F2F2F2" d="M96,21c-62.262,0-75,12.647-75,75s12.535,75,75,75c62.469,0,75-12.621,75-75S158.265,21,96,21z
	 M138,108c0,1.571-1.119,2.938-2.231,4.051l-13.596,13.595L132,126c3.274,0,6,2.729,6,6c0,3.277-2.726,6-6,6h-24
	c-2.396,0-4.701-1.942-5.619-4.16c-0.916-2.215-0.408-4.763,1.287-6.459L126,105v-7l-37.664,37.767
	C87.225,136.878,85.571,138,84,138H61c-2.398,0-5.133-1.942-6.051-4.16c-0.916-2.215-0.411-4.763,1.285-6.459L117,66h-7
	l-45.381,46.051c-1.693,1.695-4.246,2.198-6.46,1.284C55.943,112.416,54,110.398,54,108V84c0-1.577,1.121-2.938,2.234-4.051L70,66
	H60c-3.274,0-6-2.726-6-6c0-3.277,2.726-6,6-6h24c2.397,0,4.703,1.944,5.621,4.155c0.917,2.215,0.409,4.763-1.285,6.463L66,87v7
	l37.668-37.766C104.777,55.121,106.43,54,108,54h23c2.396,0,5.135,1.938,6.053,4.155c0.916,2.215,0.412,4.763-1.284,6.463L75,126h7
	l45.383-46.051c1.695-1.694,4.246-2.203,6.46-1.285C136.06,79.583,138,82.598,138,85V108z"/>
</svg>
