<?xml version="1.0" encoding="utf-8"?>
<!-- Generator: Adobe Illustrator 16.0.0, SVG Export Plug-In . SVG Version: 6.00 Build 0)  -->
<!DOCTYPE svg PUBLIC "-//W3C//DTD SVG 1.1 Tiny//EN" "http://www.w3.org/Graphics/SVG/1.1/DTD/svg11-tiny.dtd">
<svg version="1.1" baseProfile="tiny" id="Calque_1"
	 xmlns="http://www.w3.org/2000/svg" xmlns:xlink="http://www.w3.org/1999/xlink" x="0px" y="0px" width="192px" height="192px"
	 viewBox="0 0 192 192" xml:space="preserve">
<path id="GBC" fill="#F2F2F2" d="M134,19H58c-4.119,0-7,2.879-7,7v135c0,8.284,23,12,45,12s45-3.716,45-12V26
	C141,21.879,138.116,19,134,19z M82,125c0,1.376-0.628,2-2,2h-4v4c0,1.377-0.628,2-2,2h-6c-1.372,0-2-0.623-2-2v-4h-4
	c-1.375,0-2-0.624-2-2v-6c0-1.372,0.625-2,2-2h4v-4c0-1.373,0.628-2,2-2h6c1.372,0,2,0.627,2,2v4h4c1.372,0,2,0.628,2,2V125z
	 M92,148h-5c-0.688,0-1-0.31-1-1c0-0.687,0.312-1,1-1h5c0.688,0,1,0.313,1,1C93,147.69,92.688,148,92,148z M107,148h-5
	c-0.688,0-1-0.31-1-1c0-0.687,0.312-1,1-1h5c0.686,0,1,0.313,1,1C108,147.69,107.686,148,107,148z M114,128c-2.762,0-5-2.238-5-5
	s2.238-5,5-5s5,2.238,5,5S116.762,128,114,128z M128,123c-2.762,0-5-2.238-5-5s2.238-5,5-5s5,2.238,5,5S130.762,123,128,123z
	 M135,88c0,6-22.166,8-39,8s-39-2-39-8V31c0-2.643,2.357-5,5-5h68c2.643,0,5,2.357,5,5V88z"/>
</svg>
