<?xml version="1.0" encoding="utf-8"?>
<!-- Generator: Adobe Illustrator 16.0.0, SVG Export Plug-In . SVG Version: 6.00 Build 0)  -->
<!DOCTYPE svg PUBLIC "-//W3C//DTD SVG 1.1 Tiny//EN" "http://www.w3.org/Graphics/SVG/1.1/DTD/svg11-tiny.dtd">
<svg version="1.1" baseProfile="tiny" id="Calque_1"
	 xmlns="http://www.w3.org/2000/svg" xmlns:xlink="http://www.w3.org/1999/xlink" x="0px" y="0px" width="192px" height="192px"
	 viewBox="0 0 192 192" xml:space="preserve">
<g>
	<path fill="#F2F2F2" d="M117,89h-9c-0.576,0-1,0.428-1,1v22c0,0.571,0.424,1,1,1h10c6.494,0,11-5.51,11-12
		C129,94.507,123.494,89,117,89z"/>
	<path fill="#F2F2F2" d="M96,21c-62.262,0-75,12.647-75,75s12.535,75,75,75c62.469,0,75-12.621,75-75S158.265,21,96,21z M115,130H94
		c-1.428,0-3-1.574-3-3l0.121-3.984C88.594,127.875,79.062,130,72,130c-24.156,0-25-7-25-8c0-0.52,1.08,0.311,2.593,1.016
		c0.524,0.244,1.972-1.042,2.573-0.89c1.004,0.253,1.207,1.81,2.225,1.354l2.08-1.604c0.208-0.122,0.48-0.049,0.602,0.161
		l0.779,1.833l1.936-2.028c0.217-0.18,0.535-0.146,0.712,0.073l1.3,2.094l1.734-2.42c0.197-0.212,0.533-0.227,0.748-0.027
		l1.938,2.329l1.9-3.107c0.215-0.269,0.604-0.311,0.873-0.096l1.554,1.615l1.488-3.069c0.227-0.345,0.684-0.441,1.027-0.214
		l2.412,2.056l0.754-3.725c0.156-0.465,0.654-0.71,1.115-0.557l3.58,1.753l-0.706-4.008c-0.032-0.66,0.479-1.22,1.14-1.247
		l5.104,0.406l-3.959-4.951c-0.447-0.733-0.213-1.691,0.521-2.137l5.562-2.478l-6.337-5.4c-0.579-0.638-0.531-1.619,0.105-2.194
		l5.939-4.157l-7.439-5.746c-0.605-0.606-0.605-1.593,0-2.202l6.665-5.147l-1.239-9.67c-0.002-0.859,0.696-1.554,1.552-1.554
		l7.5,0.959L98,64c0.202-0.26,1-2,2-2s1.581,0.676,2,1l5.643,5.399l4.164-4.702c0.537-0.473,1.353-0.418,1.824,0.118l5.393,8.028
		C133.451,73.669,145,86.076,145,101C145,117.18,131.179,130,115,130z"/>
</g>
</svg>
