<?xml version="1.0" encoding="utf-8"?>
<!-- Generator: Adobe Illustrator 16.0.0, SVG Export Plug-In . SVG Version: 6.00 Build 0)  -->
<!DOCTYPE svg PUBLIC "-//W3C//DTD SVG 1.1 Tiny//EN" "http://www.w3.org/Graphics/SVG/1.1/DTD/svg11-tiny.dtd">
<svg version="1.1" baseProfile="tiny" id="Calque_1"
	 xmlns="http://www.w3.org/2000/svg" xmlns:xlink="http://www.w3.org/1999/xlink" x="0px" y="0px" width="192px" height="192px"
	 viewBox="0 0 192 192" xml:space="preserve">
<path id="Game_Gear" fill="#F2F2F2" d="M175.227,64.199c-1.268-5.771-2.91-5.305-8.304-6.193c-1.515-0.25-5.921-0.696-11.997-1.199
	l-3.104,8.103c-0.18-0.089-0.365-0.174-0.558-0.244c-0.378-0.146-0.778-0.222-1.183-0.222c-0.049,0-0.099,0.01-0.148,0.015
	l2.994-7.816C137.187,55.362,112,54,95.999,54C86,54,73.571,54.347,61.487,55.071l-0.063-0.988l-13.972,0.898l0.066,1.011
	c-4.19,0.307-8.052,0.607-11.367,0.89l16.563,43.704c4.873,12.806,11.574,15.51,21.506,15.853c10.379,0.362,29.997,0.362,40.374,0
	c9.933-0.343,16.635-3.047,21.506-15.857l9.971-26.03c0.32,0.319,0.705,0.578,1.154,0.752c0.182,0.07,0.374,0.104,0.558,0.155
	l-9.881,25.81c-5.211,13.704-13.06,16.746-23.241,17.1c-5.207,0.179-12.729,0.268-20.253,0.268c-7.522,0-15.047-0.089-20.253-0.268
	c-10.182-0.354-18.028-3.396-23.242-17.1L34.156,57.056c-4.553,0.399-7.821,0.743-9.082,0.95c-5.394,0.889-7.036,0.423-8.3,6.193
	C15.507,69.965,14,88,14,97s0.006,16.213,1.225,26.301c1.22,10.082,8.303,12.617,21.391,13.652
	C49.704,137.982,85.998,138,95.999,138s46.3-0.018,59.386-1.047c13.086-1.035,20.168-3.57,21.391-13.652
	C177.994,113.213,178,106,178,97S176.493,69.965,175.227,64.199z M127,106c0,0.78-1.222,2-2,2H67c-0.776,0-2-1.22-2-2V64
	c0-0.775,1.224-2,2-2h58c0.778,0,2,1.225,2,2V106z M41,90c0,0.776-0.224,1-1,1h-4c-0.776,0-1,0.224-1,1v4c0,0.775-0.222,1-1,1h-4
	c-0.778,0-1-0.225-1-1v-4c0-0.776-0.224-1-1-1h-4c-0.776,0-1-0.224-1-1v-4c0-0.776,0.224-1,1-1h4c0.776,0,1-0.225,1-1v-4
	c0-0.776,0.222-1,1-1h4c0.778,0,1,0.224,1,1v4c0,0.775,0.224,1,1,1h4c0.776,0,1,0.224,1,1V90z M147.094,71.687l1.672-4.407
	c0.277-0.729,1.09-1.096,1.814-0.818c1.945,0.738,2.921,2.911,2.186,4.858c-0.739,1.942-2.912,2.921-4.856,2.183
	C147.186,73.225,146.818,72.41,147.094,71.687z M150,97c-2.762,0-5-2.238-5-5s2.238-5,5-5s5,2.238,5,5S152.762,97,150,97z M162,87
	c-2.762,0-5-2.238-5-5s2.238-5,5-5s5,2.238,5,5S164.762,87,162,87z"/>
</svg>
