<?xml version="1.0" encoding="utf-8"?>
<!-- Generator: Adobe Illustrator 16.0.0, SVG Export Plug-In . SVG Version: 6.00 Build 0)  -->
<!DOCTYPE svg PUBLIC "-//W3C//DTD SVG 1.1 Tiny//EN" "http://www.w3.org/Graphics/SVG/1.1/DTD/svg11-tiny.dtd">
<svg version="1.1" baseProfile="tiny" id="Calque_1"
	 xmlns="http://www.w3.org/2000/svg" xmlns:xlink="http://www.w3.org/1999/xlink" x="0px" y="0px" width="192px" height="192px"
	 viewBox="0 0 192 192" xml:space="preserve">
<path id="GBA_1_" fill="#F2F2F2" d="M173.189,65.584c0.517-0.887,0.893-1.831,0.893-2.657c0-6.845-6.85-8.216-10.958-8.216
	c-10.07-1.263-10.896-1.361-20.53-2.432c-0.943-0.535-1.869-1.09-2.756-1.681C139.838,49.23,119,48,96,48s-43.838,1.23-43.838,2.599
	c-0.887,0.591-1.812,1.146-2.76,1.681c-9.635,1.07-10.456,1.174-20.526,2.432c-4.108,0-10.958,1.371-10.958,8.216
	c0,0.826,0.376,1.771,0.893,2.657C13.811,77.617,13,112,13,119c0,6,4.918,8.312,9.026,9.683c8.221,2.741,8.221,2.741,16.437,5.479
	C48.055,139.64,71,144,96,144s47.945-4.36,57.533-9.839c8.22-2.737,8.188-2.728,16.44-5.479C174.082,127.312,179,125,179,119
	C179,112,178.189,77.617,173.189,65.584z M38,93v5c0,1.516-0.488,2-2,2h-4c-1.512,0-2-0.484-2-2v-5h-5c-1.512,0-2-0.484-2-2v-4
	c0-1.517,0.488-2,2-2h5v-5c0-1.517,0.488-2,2-2h4c1.512,0,2,0.483,2,2v5h5c1.512,0,2,0.483,2,2v4c0,1.516-0.488,2-2,2H38z M46,125
	c-1.656,0-3-1.343-3-3s1.344-3,3-3s3,1.343,3,3S47.656,125,46,125z M46,117c-1.656,0-3-1.343-3-3s1.344-3,3-3s3,1.343,3,3
	S47.656,117,46,117z M131.617,130.053c-24.657,5.479-46.957,5.348-71.234,0c-5.352-1.178-8.525-5.479-8.221-10.957l2.742-49.319
	c0.305-5.479,2.756-7.761,8.221-8.216c32.873-2.742,32.873-2.742,65.75,0c5.465,0.455,7.916,2.737,8.221,8.216l2.742,49.319
	C140.139,124.574,136.965,128.865,131.617,130.053z M149,63c1.104,0,2,0.896,2,2s-0.896,2-2,2s-2-0.896-2-2S147.896,63,149,63z
	 M151,97c-2.762,0-5-2.238-5-5s2.238-5,5-5s5,2.238,5,5S153.762,97,151,97z M165,91c-2.762,0-5-2.238-5-5s2.238-5,5-5s5,2.238,5,5
	S167.762,91,165,91z"/>
</svg>
