<?xml version="1.0" encoding="utf-8"?>
<!-- Generator: Adobe Illustrator 16.0.0, SVG Export Plug-In . SVG Version: 6.00 Build 0)  -->
<!DOCTYPE svg PUBLIC "-//W3C//DTD SVG 1.1 Tiny//EN" "http://www.w3.org/Graphics/SVG/1.1/DTD/svg11-tiny.dtd">
<svg version="1.1" baseProfile="tiny" id="Calque_1"
	 xmlns="http://www.w3.org/2000/svg" xmlns:xlink="http://www.w3.org/1999/xlink" x="0px" y="0px" width="192px" height="192px"
	 viewBox="0 0 192 192" xml:space="preserve">
<path id="GB" fill="#F2F2F2" d="M137,21H55c-2.533,0-5,2.47-5,5v140c0,2.53,2.467,5,5,5h60c14.656,0,27-12.346,27-27V26
	C142,23.47,139.53,21,137,21z M79,126c0,0.915-0.16,1-1,1h-6v6c0,0.812-0.237,1-1,1h-5c-0.765,0-1-0.188-1-1v-6h-6
	c-0.841,0-1-0.085-1-1v-5c0-0.914,0.159-1,1-1h6v-6c0-0.812,0.235-1,1-1h4c0.763,0,1,0.188,1,1v6h7c0.84,0,1,0.086,1,1V126z
	 M88.173,144.118l-7.391,4.777c-0.547,0.353-1.233,0.172-1.532-0.408c-0.298-0.58-0.097-1.336,0.451-1.688l7.389-4.781
	c0.549-0.353,1.233-0.168,1.534,0.412C88.923,143.01,88.721,143.762,88.173,144.118z M105.061,144.118l-7.389,4.777
	c-0.549,0.356-1.234,0.172-1.533-0.408c-0.299-0.58-0.096-1.336,0.449-1.688l7.389-4.781c0.551-0.353,1.234-0.168,1.535,0.412
	C105.811,143.01,105.608,143.766,105.061,144.118z M114,130c-3.313,0-6-2.687-6-6s2.687-6,6-6s6,2.687,6,6S117.313,130,114,130z
	 M60,91c-1.267,0-2-0.852-2-2.119V33c0-1.331,0.667-2,2-2h72c1.33,0.004,2,0.669,2,2v44c0,7.995-6.008,14-14,14H60z M131,123
	c-3.313,0-6-2.687-6-6s2.687-6,6-6s6,2.687,6,6S134.313,123,131,123z"/>
</svg>
