<?xml version="1.0" encoding="utf-8"?>
<!-- Generator: Adobe Illustrator 16.0.0, SVG Export Plug-In . SVG Version: 6.00 Build 0)  -->
<!DOCTYPE svg PUBLIC "-//W3C//DTD SVG 1.1 Tiny//EN" "http://www.w3.org/Graphics/SVG/1.1/DTD/svg11-tiny.dtd">
<svg version="1.1" baseProfile="tiny" id="Calque_1"
	 xmlns="http://www.w3.org/2000/svg" xmlns:xlink="http://www.w3.org/1999/xlink" x="0px" y="0px" width="192px" height="192px"
	 viewBox="0 0 192 192" xml:space="preserve">
<g>
	<path fill="#F2F2F2" d="M90,126c0,1,0,4,0,4h83c1.427,0,3-1.574,3-3v-3c0,0-83,0-84,0S90,125,90,126z"/>
	<path fill="#F2F2F2" d="M16,65v62c0,1.426,1.575,3,3,3h7V62h-7C17.575,62,16,63.572,16,65z"/>
	<path fill="#F2F2F2" d="M173,62H90c0,0,0,17,0,18s1,2,2,2s84,0,84,0V65C176,63.572,174.427,62,173,62z"/>
	<path fill="#F2F2F2" d="M87,81V62H29v68h58v-5c0-2.196,1.802-4,4-4h85V85H91C88.802,85,87,83.198,87,81z M81,104
		c0,8.284-6.716,15-15,15H52c-8.284,0-15-6.716-15-15V90c0-8.284,6.716-15,15-15h14c8.284,0,15,6.716,15,15V104z M143,88.957h23V91
		h-23V88.957z M143,93h23v23h-23V93z M117,89h23v2h-23V89z M117,93h23v23h-23V93z"/>
	<circle fill="#F2F2F2" cx="59" cy="97" r="7"/>
	<rect x="58" y="79" fill="#F2F2F2" width="2" height="9"/>
	<rect x="58" y="106" fill="#F2F2F2" width="2" height="9"/>
	<rect x="68" y="96" fill="#F2F2F2" width="9" height="2"/>
	<rect x="41" y="96" fill="#F2F2F2" width="9" height="2"/>
	<polygon fill="#F2F2F2" points="53,86 47,85 48,91 	"/>
	<polygon fill="#F2F2F2" points="65,108 71,109 70,103 	"/>
	<polygon fill="#F2F2F2" points="48,109 54,108 49,103 	"/>
	<polygon fill="#F2F2F2" points="71,85 65,86 70,91 	"/>
	<circle fill="#F2F2F2" cx="128.5" cy="104.5" r="9.5"/>
	<circle fill="#F2F2F2" cx="154.5" cy="104.5" r="9.5"/>
</g>
</svg>
