<?xml version="1.0" encoding="utf-8"?>
<!-- Generator: Adobe Illustrator 16.0.0, SVG Export Plug-In . SVG Version: 6.00 Build 0)  -->
<!DOCTYPE svg PUBLIC "-//W3C//DTD SVG 1.1 Tiny//EN" "http://www.w3.org/Graphics/SVG/1.1/DTD/svg11-tiny.dtd">
<svg version="1.1" baseProfile="tiny" id="Calque_1"
	 xmlns="http://www.w3.org/2000/svg" xmlns:xlink="http://www.w3.org/1999/xlink" x="0px" y="0px" width="192px" height="192px"
	 viewBox="0 0 192 192" xml:space="preserve">
<g id="Neo_Geo">
	<circle fill="#F2F2F2" cx="54.035" cy="89" r="11"/>
	<path fill="#F2F2F2" d="M96.035,45C79.035,45,10,49,10,96c0,25,20.646,51,41.035,51c9,0,33-4,49-4s32,4,41,4
		C157.393,147,182,121,182,96C182,49,113.034,45,96.035,45z M95.035,62c2.209,0,4,1.791,4,4s-1.791,4-4,4s-4-1.791-4-4
		S92.826,62,95.035,62z M54.035,106c-9.389,0-17-7.611-17-17s7.611-17,17-17s17,7.611,17,17S63.424,106,54.035,106z M94.035,103
		c-5.523,0-10-4.478-10-10s4.477-10,10-10s10,4.478,10,10S99.559,103,94.035,103z M114.035,89c-5.523,0-10-4.478-10-10
		s4.477-10,10-10s10,4.478,10,10S119.559,89,114.035,89z M120.035,64c-2.209,0-4-1.791-4-4s1.791-4,4-4s4,1.791,4,4
		S122.244,64,120.035,64z M137.035,87c-5.523,0-10-4.478-10-10s4.477-10,10-10s10,4.478,10,10S142.559,87,137.035,87z M161.035,89
		c-5.523,0-10-4.478-10-10s4.477-10,10-10s10,4.478,10,10S166.559,89,161.035,89z"/>
</g>
</svg>
