<?xml version="1.0" encoding="utf-8"?>
<!-- Generator: Adobe Illustrator 16.0.0, SVG Export Plug-In . SVG Version: 6.00 Build 0)  -->
<!DOCTYPE svg PUBLIC "-//W3C//DTD SVG 1.1 Tiny//EN" "http://www.w3.org/Graphics/SVG/1.1/DTD/svg11-tiny.dtd">
<svg version="1.1" baseProfile="tiny" id="Calque_1"
	 xmlns="http://www.w3.org/2000/svg" xmlns:xlink="http://www.w3.org/1999/xlink" x="0px" y="0px" width="192px" height="192px"
	 viewBox="0 0 192 192" xml:space="preserve">
<g id="Neo_Geo_Pocket">
	<circle fill="#F2F2F2" cx="41" cy="89" r="7"/>
	<path fill="#F2F2F2" d="M168.476,52.235C166.355,49.963,131,49,96,49s-70.357,0.963-72.476,3.235C22.107,52.839,21,53.845,21,55v75
		c0,4.838,7.281,9.007,12.098,9.546C54.674,141.971,75,143,96,143s41.195-1.043,62.897-3.454C163.71,139.012,171,134.838,171,130V55
		C171,53.845,169.889,52.839,168.476,52.235z M157,57c2.209,0,4,1.791,4,4s-1.791,4-4,4s-4-1.791-4-4S154.791,57,157,57z M47,65
		c1.104,0,2,0.896,2,2s-0.896,2-2,2s-2-0.896-2-2S45.896,65,47,65z M30,65h6c1.327,0,2,0.636,2,1.971C38,68.307,37.327,69,36,69h-6
		c-1.327,0-2-0.664-2-2C28,65.665,28.673,65,30,65z M41,102c-7.18,0-13-5.82-13-13s5.82-13,13-13s13,5.82,13,13S48.18,102,41,102z
		 M130,123c0,1.209-18,2-34,2s-34-0.791-34-2V63c0-1.34,1.668-3,3-3h62c1.332,0,3,1.66,3,3V123z M145,96c-3.313,0-6-2.687-6-6
		s2.687-6,6-6s6,2.687,6,6S148.313,96,145,96z M158,86c-3.313,0-6-2.687-6-6s2.687-6,6-6s6,2.687,6,6S161.313,86,158,86z"/>
</g>
</svg>
