<?xml version="1.0" encoding="utf-8"?>
<!-- Generator: Adobe Illustrator 16.0.0, SVG Export Plug-In . SVG Version: 6.00 Build 0)  -->
<!DOCTYPE svg PUBLIC "-//W3C//DTD SVG 1.1 Tiny//EN" "http://www.w3.org/Graphics/SVG/1.1/DTD/svg11-tiny.dtd">
<svg version="1.1" baseProfile="tiny" id="Calque_1"
	 xmlns="http://www.w3.org/2000/svg" xmlns:xlink="http://www.w3.org/1999/xlink" x="0px" y="0px" width="192px" height="192px"
	 viewBox="0 0 192 192" xml:space="preserve">
<g id="layer2_13_" inkscape:groupmode="layer" inkscape:label="logo">
	<path fill="#F2F2F2" d="M114,87H76c-1.42,0-3,1.581-3,3v4c0,1.42,1.58,3,3,3h38c1.421,0,3-1.58,3-3v-4
		C117,88.581,115.421,87,114,87z"/>
	<path fill="#F2F2F2" d="M114,74H76c-1.42,0-3,1.307-3,2.726V81c0,1.42,1.58,3,3,3h38c1.421,0,3-1.58,3-3v-4
		C117,75.581,115.421,74,114,74z"/>
	<path fill="#F2F2F2" d="M173,61H18.903C17.484,61,16,62.58,16,64v64c0,1.42,1.581,3,3,3h154c1.42,0,3-1.58,3-3V64
		C176,62.58,174.42,61,173,61z M170,123c0,1.42-0.58,2-2,2h-51v-4c0-1.421-1.579-3-3-3H76c-1.42,0-3,1.579-3,3v4H24.043
		c-1.42,0-2.043-0.596-2.043-2.016V69c0-1.42,0.58-2,2-2h49v1c0,1.419,1.58,3,3,3h38c1.421,0,3-1.581,3-3v-1h51c1.42,0,2,0.58,2,2
		V123z"/>
	<path fill="#F2F2F2" d="M61,92h-4v-4c0-1.676-2.324-4-4-4H43c-1.676,0-4,2.324-4,4v4h-4c-1.676,0-4,2.323-4,4v11
		c0,1.676,2.324,4,4,4h4v3c0,1.677,2.324,4,4,4h10c1.676,0,4-2.323,4-4v-3h4c1.676,0,4-2.227,4-3.902V96C65,94.323,62.676,92,61,92z
		 M62,106c0,1.42-0.58,2-2,2h-6v5c0,1.42-0.58,2-2,2h-8c-1.42,0-2-0.58-2-2v-5h-6c-1.42,0-2-0.58-2-2v-9c0-1.42,0.58-2,2-2h6v-6
		c0-1.419,0.58-2,2-2h8c1.42,0,2,0.581,2,2v6h6c1.42,0,2,0.58,2,2V106z"/>
	<path fill="#F2F2F2" d="M113.988,100H76c-1.42,0-3,1.579-3,3v9c0,1.42,1.58,3,3,3h38c1.421,0,3-1.58,3-3v-9
		C117,101.579,115.41,100,113.988,100z M92,108c0,1.227-0.773,2-2,2h-9c-1.226,0-2-0.773-2-2v-1c0-1.227,0.774-2,2-2h9
		c1.227,0,2,0.773,2,2V108z M111,108c0,1.227-0.773,2-2,2h-8c-1.227,0-2-0.773-2-2v-1c0-1.227,0.773-2,2-2h8c1.227,0,2,0.773,2,2
		V108z"/>
	<path fill="#F2F2F2" d="M137,100h-10c-1.42,0-3,1.579-3,3v10c0,1.42,1.58,3,3,3h10c1.421,0,3-1.58,3-3v-10
		C140,101.579,138.421,100,137,100z M132,113c-2.762,0-5-2.238-5-5s2.238-5,5-5s5,2.238,5,5S134.762,113,132,113z"/>
	<path fill="#F2F2F2" d="M158,100h-10c-1.42,0-3,1.579-3,3v10c0,1.42,1.58,3,3,3h10c1.42,0,3-1.58,3-3v-10
		C161,101.579,159.42,100,158,100z M153,113c-2.762,0-5-2.238-5-5s2.238-5,5-5s5,2.238,5,5S155.762,113,153,113z"/>
</g>
</svg>
