<?xml version="1.0" encoding="utf-8"?>
<!-- Generator: Adobe Illustrator 16.0.0, SVG Export Plug-In . SVG Version: 6.00 Build 0)  -->
<!DOCTYPE svg PUBLIC "-//W3C//DTD SVG 1.1 Tiny//EN" "http://www.w3.org/Graphics/SVG/1.1/DTD/svg11-tiny.dtd">
<svg version="1.1" baseProfile="tiny" id="Calque_1"
	 xmlns="http://www.w3.org/2000/svg" xmlns:xlink="http://www.w3.org/1999/xlink" x="0px" y="0px" width="192px" height="192px"
	 viewBox="0 0 192 192" xml:space="preserve">
<g id="N64">
	<path fill="#F2F2F2" d="M171.426,61.779l-0.032,0.032c-0.413-9.477-5.536-16.512-12.991-21.36c0.093-0.087,0.185-0.184,0.254-0.299
		c0.395-0.661,0.184-1.521-0.479-1.921c-5.096-3.064-11.369-4.747-15.643-5.749c-4.007-0.938-8.616-1.719-13.625-2.344l-2.184-5.233
		l-0.031,0.179c-0.203-1.282-1.448-1.889-2.762-2.417C116.951,19.875,107,18,96,18s-20.952,1.875-27.938,4.667
		c-1.264,0.505-2.68,1.107-2.812,2.284l-2.164,5.188c-5.005,0.625-9.613,1.406-13.621,2.344c-0.036,0.01-0.068,0.019-0.101,0.028
		c-0.956,0.257-11.103,3.037-15.547,5.726c-0.661,0.4-0.873,1.26-0.474,1.916c0.069,0.115,0.156,0.217,0.248,0.304
		C26.139,45.305,21.02,52.34,20.606,61.812l-0.032-0.032C17.486,71.04,16,83.973,16,96c0,20.973,5,41,16,41
		c9,0,15.434-26.805,18.117-38.831l12.357,2.721C79.238,100.89,74,174,95.998,174c22.002,0,16.764-73.11,33.523-73.11l12.361-2.721
		C144.566,110.195,151,137,160,137c11,0,16-20.027,16-41C176,83.973,174.514,71.04,171.426,61.779z M59,66c0,0.771-0.229,1-1,1h-7v7
		c0,0.771-0.228,1-1,1h-6c-0.771,0-1-0.229-1-1v-7h-7c-0.771,0-1-0.229-1-1v-6c0-0.771,0.229-1,1-1h7v-7c0-0.772,0.229-1,1-1h6
		c0.772,0,1,0.228,1,1v7h7c0.771,0,1,0.229,1,1V66z M151,45c2.762,0,5,2.238,5,5s-2.238,5-5,5s-5-2.238-5-5S148.238,45,151,45z
		 M141,55c2.762,0,5,2.238,5,5s-2.238,5-5,5s-5-2.238-5-5S138.238,55,141,55z M96,63c3.313,0,6,2.687,6,6s-2.687,6-6,6s-6-2.687-6-6
		S92.687,63,96,63z M104.062,110.062L96,113l-8.062-2.938L85,102l2.938-8.062L96,91l8.062,2.938L107,102L104.062,110.062z M128,76
		c-3.866,0-7-3.134-7-7s3.134-7,7-7s7,3.134,7,7S131.866,76,128,76z M140,88c-3.866,0-7-3.134-7-7s3.134-7,7-7s7,3.134,7,7
		S143.866,88,140,88z M150,75c-2.762,0-5-2.238-5-5s2.238-5,5-5s5,2.238,5,5S152.762,75,150,75z M160,65c-2.762,0-5-2.238-5-5
		s2.238-5,5-5s5,2.238,5,5S162.762,65,160,65z"/>
	<circle fill="#F2F2F2" cx="96" cy="102" r="8"/>
</g>
</svg>
