<?xml version="1.0" encoding="utf-8"?>
<!-- Generator: Adobe Illustrator 16.0.0, SVG Export Plug-In . SVG Version: 6.00 Build 0)  -->
<!DOCTYPE svg PUBLIC "-//W3C//DTD SVG 1.1 Tiny//EN" "http://www.w3.org/Graphics/SVG/1.1/DTD/svg11-tiny.dtd">
<svg version="1.1" baseProfile="tiny" id="Calque_1"
	 xmlns="http://www.w3.org/2000/svg" xmlns:xlink="http://www.w3.org/1999/xlink" x="0px" y="0px" width="192px" height="192px"
	 viewBox="0 0 192 192" xml:space="preserve">
<path fill="#F2F2F2" d="M151,30h-2v2c0,0.133-0.701,1-1,1h-5c-0.3,0-1-0.867-1-1v-2H50v2c0,0.133-0.702,1-1,1h-5
	c-0.299,0-1-0.867-1-1v-2h-2c-1.167,0-2,0.835-2,2v104c0,1.166,0.833,2,2,2h4v21.389c0,1.167,1.236,2.611,2.402,2.611H144
	c1.168,0,2-0.833,2-2v-22h5c1.168,0,2-0.834,2-2V32C153,30.835,152.168,30,151,30z M96,138.26L89,127h14L96,138.26z M138,115
	c0,2.115-1.885,4-4,4H89c-2.115,0-4-1.885-4-4V37c0-2.114,1.885-4,4-4h45c2.115,0,4,1.886,4,4V115z"/>
</svg>
