<?xml version="1.0" encoding="utf-8"?>
<!-- Generator: Adobe Illustrator 16.0.0, SVG Export Plug-In . SVG Version: 6.00 Build 0)  -->
<!DOCTYPE svg PUBLIC "-//W3C//DTD SVG 1.1 Tiny//EN" "http://www.w3.org/Graphics/SVG/1.1/DTD/svg11-tiny.dtd">
<svg version="1.1" baseProfile="tiny" id="Calque_1"
	 xmlns="http://www.w3.org/2000/svg" xmlns:xlink="http://www.w3.org/1999/xlink" x="0px" y="0px" width="192px" height="192px"
	 viewBox="0 0 192 192" xml:space="preserve">
<path id="DS" fill="#F2F2F2" d="M156,37c0-1.312-1.541-3-3-3H39c-1.456,0-3,1.688-3,3v56h4c-2.333,0-4,1.666-4,4
	c0,2.333,1.667,4,4,4h-4v54c0,1.312,1.544,3,3,3h114c1.459,0,3-1.688,3-3v-54c-2.105,0-1.977,0-4,0c2.334,0,4-1.667,4-4
	c0-2.334-1.666-4-4-4c2.108,0,1.895,0,4,0V37z M142,109c2.209,0,4,1.791,4,4s-1.791,4-4,4s-4-1.791-4-4S139.791,109,142,109z
	 M59,128h-6v6h-6v-6h-6v-6h6v-6h6v6h6V128z M125,150H67v-43h58V150z M125,85H67V42h58V85z M134,152c-1.104,0-2-0.896-2-2
	s0.896-2,2-2s2,0.896,2,2S135.104,152,134,152z M134,145c-1.104,0-2-0.896-2-2s0.896-2,2-2s2,0.896,2,2S135.104,145,134,145z
	 M135,125c-2.209,0-4-1.791-4-4s1.791-4,4-4s4,1.791,4,4S137.209,125,135,125z M142,133c-2.209,0-4-1.791-4-4s1.791-4,4-4
	s4,1.791,4,4S144.209,133,142,133z M153,121c0,2.209-1.791,4-4,4s-4-1.791-4-4s1.791-4,4-4S153,118.791,153,121z"/>
</svg>
