<?xml version="1.0" encoding="utf-8"?>
<!-- Generator: Adobe Illustrator 16.0.0, SVG Export Plug-In . SVG Version: 6.00 Build 0)  -->
<!DOCTYPE svg PUBLIC "-//W3C//DTD SVG 1.1 Tiny//EN" "http://www.w3.org/Graphics/SVG/1.1/DTD/svg11-tiny.dtd">
<svg version="1.1" baseProfile="tiny" id="Calque_1"
	 xmlns="http://www.w3.org/2000/svg" xmlns:xlink="http://www.w3.org/1999/xlink" x="0px" y="0px" width="192px" height="192px"
	 viewBox="0 0 192 192" xml:space="preserve">
<path id="PCFX" fill="#F2F2F2" d="M137,97c0,3.313-2.687,6-6,6s-6-2.687-6-6s2.687-6,6-6S137,93.687,137,97z M151,90
	c0,3.313-2.687,6-6,6s-6-2.687-6-6s2.687-6,6-6S151,86.687,151,90z M165,86c0,3.313-2.687,6-6,6s-6-2.687-6-6s2.687-6,6-6
	S165,82.687,165,86z M171,101c0,3.313-2.687,6-6,6s-6-2.687-6-6s2.687-6,6-6S171,97.687,171,101z M156,105c0,3.313-2.687,6-6,6
	s-6-2.687-6-6s2.687-6,6-6S156,101.687,156,105z M142,112c0,3.313-2.687,6-6,6s-6-2.687-6-6s2.687-6,6-6S142,108.687,142,112z
	 M170.112,73.549C165.995,63.941,130.998,57,96,57s-69.995,6.941-74.112,16.549C15.521,89.01,12,101,12,110.992
	C12,127,22,135,47,135c6,0,11.776-0.395,18.807-1.064c2.744-10.979,57.643-10.979,60.387,0C133.224,134.604,139,135,145,135
	c25,0,35-8,35-24.008C180,101,176.479,89.01,170.112,73.549z M57.785,106.885c-0.215,0.661-0.92,1.031-1.585,0.836
	c-0.985-0.288-2.091-0.815-3.158-1.324c-1.232-0.589-2.505-1.196-3.439-1.368c-0.884,0.03-1.331,0.478-1.36,1.361
	c0.171,0.934,0.778,2.207,1.366,3.439c0.51,1.067,1.036,2.173,1.325,3.158c0.195,0.668-0.174,1.368-0.835,1.585
	c-2.079,0.677-4.005,1.005-5.889,1.005s-3.81-0.328-5.888-1.005c-0.66-0.217-1.031-0.917-0.836-1.585
	c0.289-0.986,0.816-2.091,1.326-3.159c0.588-1.231,1.194-2.505,1.365-3.438c-0.029-0.884-0.477-1.331-1.359-1.361
	c-0.935,0.172-2.207,0.779-3.439,1.368c-1.068,0.509-2.174,1.036-3.159,1.324c-0.665,0.194-1.37-0.175-1.585-0.836
	c-1.343-4.127-1.343-7.649,0-11.776c0.216-0.66,0.918-1.027,1.585-0.836c0.986,0.29,2.092,0.817,3.161,1.327
	c1.231,0.587,2.504,1.193,3.438,1.364c0.883-0.03,1.33-0.476,1.359-1.36c-0.171-0.932-0.777-2.203-1.365-3.436
	c-0.51-1.068-1.037-2.173-1.326-3.161c-0.194-0.664,0.171-1.362,0.828-1.582c4.543-1.515,7.246-1.515,11.792,0
	c0.656,0.22,1.022,0.918,0.827,1.582c-0.289,0.987-0.816,2.092-1.326,3.16c-0.588,1.231-1.194,2.505-1.365,3.437
	c0.029,0.885,0.476,1.33,1.36,1.36c0.934-0.171,2.206-0.777,3.438-1.364c1.068-0.51,2.174-1.037,3.16-1.327
	c0.667-0.192,1.368,0.176,1.585,0.836C59.127,99.235,59.127,102.758,57.785,106.885z M93,95c0.5,0,5.5,0,6,0s1,0.5,1,1s0,0.5,0,1
	s-0.5,1-1,1s-5.5,0-6,0s-1-0.5-1-1s0-0.5,0-1S92.5,95,93,95z M93,102c0.5,0,5.5,0,6,0s1,0.5,1,1s0,0.5,0,1s-0.5,1-1,1s-5.5,0-6,0
	s-1-0.5-1-1s0-0.5,0-1S92.5,102,93,102z M91,119h-5c-1.137,0-2-0.864-2-2c0-1.137,0.863-2,2-2h5c1.137,0,2,0.863,2,2
	C93,118.136,92.137,119,91,119z M106,119h-5c-1.137,0-2-0.864-2-2c0-1.137,0.863-2,2-2h5c1.137,0,2,0.863,2,2
	C108,118.136,107.137,119,106,119z"/>
</svg>
