<?xml version="1.0" encoding="utf-8"?>
<!-- Generator: Adobe Illustrator 16.0.0, SVG Export Plug-In . SVG Version: 6.00 Build 0)  -->
<!DOCTYPE svg PUBLIC "-//W3C//DTD SVG 1.1 Tiny//EN" "http://www.w3.org/Graphics/SVG/1.1/DTD/svg11-tiny.dtd">
<svg version="1.1" baseProfile="tiny" id="Calque_1"
	 xmlns="http://www.w3.org/2000/svg" xmlns:xlink="http://www.w3.org/1999/xlink" x="0px" y="0px" width="192px" height="192px"
	 viewBox="0 0 192 192" xml:space="preserve">
<g id="PC_Engine">
	<path fill="#F2F2F2" d="M90,112h-7c-1.782,0-3,1.396-3,3c0,1.603,1.218,3,3,3h7c1.783,0,3-1.397,3-3C93,113.396,91.783,112,90,112z
		"/>
	<path fill="#F2F2F2" d="M109,112h-7c-1.782,0-3,1.396-3,3c0,1.603,1.218,3,3,3h7c1.783,0,3-1.397,3-3
		C112,113.396,110.783,112,109,112z"/>
	<path fill="#F2F2F2" d="M170.838,70.194L119,62c0-1.432-1.568-2-3-2H75c-1.43,0-2,0.568-2,2l-51.838,8.194
		C18.609,70.576,16,73.419,16,76v51c0,2.859,2.141,5,5,5h150c2.859,0,5-3.141,5-6V76C176,73.419,173.391,70.576,170.838,70.194z
		 M44,123c0,0.75-0.286,1-1,1h-5c-0.713,0-1-0.25-1-1v-9h-9c-0.748,0-1-0.288-1-1v-5c0-0.713,0.252-1,1-1h9v-9c0-0.751,0.287-1,1-1
		h5c0.714,0,1,0.249,1,1v9h9c0.749,0,1,0.287,1,1v5c0,0.712-0.251,1-1,1l-9,0.064V123z M167,116c0,6.435-5.566,11-12,11
		l-105.451-0.032c0.033-0.031-0.74-0.312-0.971-0.705c-0.349-0.594-0.15-1.357,0.443-1.705c0.411-0.242,0.787-0.482,1.146-0.734
		c3.66-2.567,6.1-6.4,6.872-10.799c0.111-0.638,0.182-1.277,0.221-1.915c0.011-0.284,0.021-0.575,0.029-0.874
		c0.027-3.45-1.01-6.817-3.033-9.699c-5.297-7.545-15.75-9.376-23.303-4.083c-0.562,0.396-1.34,0.259-1.734-0.305
		C29.049,95.905,28.981,95.274,29,95c-0.032,0.031,0-17,0-17c0-2.859,2.141-5,5-5h28c2.859,0,6,2.141,6,5c0,15.678,12.321,28,28,28
		s28-12.322,28-28c0-2.859,2.143-5,5-5h29c2.857,0,5,2.141,5,5v27c2.374,2.123,4,5.552,4,9V116z"/>
	<path fill="#F2F2F2" d="M157,106.059V106h-22c-4.971,0-9,4.029-9,9s4.029,9,9,9h22v-0.059c4.5-0.498,8-4.309,8-8.941
		S161.5,106.557,157,106.059z M135,122c-3.866,0-7-3.134-7-7s3.134-7,7-7s7,3.134,7,7S138.866,122,135,122z M156,122
		c-3.866,0-7-3.134-7-7s3.134-7,7-7s7,3.134,7,7S159.866,122,156,122z"/>
</g>
</svg>
