<?xml version="1.0" encoding="utf-8"?>
<!-- Generator: Adobe Illustrator 16.0.0, SVG Export Plug-In . SVG Version: 6.00 Build 0)  -->
<!DOCTYPE svg PUBLIC "-//W3C//DTD SVG 1.1 Tiny//EN" "http://www.w3.org/Graphics/SVG/1.1/DTD/svg11-tiny.dtd">
<svg version="1.1" baseProfile="tiny" id="Calque_1"
	 xmlns="http://www.w3.org/2000/svg" xmlns:xlink="http://www.w3.org/1999/xlink" x="0px" y="0px" width="192px" height="192px"
	 viewBox="0 0 192 192" xml:space="preserve">
<path id="PSX" fill="#F2F2F2" d="M161.113,58.302c-1.176-3.947-2.677-7.754-4.473-11.388h0.003C153.226,45.673,149.848,45,146,45
	c-3.846,0-7.845,0.673-11.264,1.914h0.004c-1.798,3.634-3.299,7.44-4.473,11.389c-1.479,0.922-2.982,1.533-4.268,2.697H66
	c-1.285-1.164-2.791-1.775-4.269-2.697c-1.173-3.948-2.675-7.755-4.472-11.389h0.002C53.845,45.673,49.847,45,46,45
	c-3.848,0-7.226,0.673-10.644,1.914h0.003c-1.796,3.634-3.297,7.44-4.473,11.388C22.631,63.455,17,73.55,17,84
	c0,8,2.012,45.687,2.012,45.687C19.012,139.25,26.436,147,36,147c6.359,0,12.244-3.425,15.256-8.534h0.001
	c0,0,0.007-0.015,0.01-0.019c0.298-0.508,0.571-1.033,0.817-1.572c2.393-4.599,9.277-17.834,11.012-21.166
	C66.781,108.623,67.01,108,77,108h38c9.992,0,10.218,0.623,13.904,7.709c1.732,3.33,8.61,16.551,11.007,21.158
	c0.25,0.546,0.524,1.075,0.828,1.589c0.001,0.003,0.004,0.01,0.004,0.01C143.755,143.575,149.641,147,156,147
	c9.564,0,16.988-7.75,16.988-17.313c0,0,2.012-37.687,2.012-46.687C175,72.55,169.37,63.455,161.113,58.302z M41,70
	c0-0.779,0.219-0.959,1-0.959h8c0.781,0,1,0.18,1,0.959c0,0,0,4.313,0,5c0,0.76-3,5-5,5s-5-4-5-5C41,74.313,41,70,41,70z M33,88
	c-0.779,0-0.959-0.22-0.959-1v-8c0-0.78,0.18-1,0.959-1c0,0,4.313,0,5,0c0.76,0,5,3,5,5s-4,5-5,5C37.313,88,33,88,33,88z M51,96.041
	C51,96.82,50.78,97,50,97h-8c-0.78,0-1-0.18-1-0.959c0,0,0-4.313,0-5c0-0.76,3-5,5-5s5,4,5,5C51,91.728,51,96.041,51,96.041z M60,87
	c0,0.78-0.18,1-0.959,1c0,0-4.313,0-5,0c-0.76,0-5-3-5-5s4-5,5-5c0.687,0,5,0,5,0C59.82,78,60,78.22,60,79V87z M88.986,99
	c0,0.78-0.206,1-0.986,1h-7c-0.781,0-1-0.22-1-1v-2c0-0.781,0.219-1,1-1h7c0.78,0,0.986,0.219,0.986,1V99z M104,100
	c-0.711,0-0.986-0.22-0.986-1v-2c0-0.781,0.275-1,0.986-1c1.466,0,8,1,8,2S105.466,100,104,100z M146,62c3.866,0,7,3.134,7,7
	s-3.134,7-7,7s-7-3.134-7-7S142.134,62,146,62z M132,90c-3.866,0-7-3.134-7-7s3.134-7,7-7s7,3.134,7,7S135.866,90,132,90z M146,104
	c-3.866,0-7-3.134-7-7s3.134-7,7-7s7,3.134,7,7S149.866,104,146,104z M159,90c-3.866,0-7-3.134-7-7s3.134-7,7-7s7,3.134,7,7
	S162.866,90,159,90z"/>
</svg>
