<?xml version="1.0" encoding="utf-8"?>
<!-- Generator: Adobe Illustrator 16.0.0, SVG Export Plug-In . SVG Version: 6.00 Build 0)  -->
<!DOCTYPE svg PUBLIC "-//W3C//DTD SVG 1.1 Tiny//EN" "http://www.w3.org/Graphics/SVG/1.1/DTD/svg11-tiny.dtd">
<svg version="1.1" baseProfile="tiny" id="Calque_1"
	 xmlns="http://www.w3.org/2000/svg" xmlns:xlink="http://www.w3.org/1999/xlink" x="0px" y="0px" width="192px" height="192px"
	 viewBox="0 0 192 192" xml:space="preserve">
<path fill="#F2F2F2" d="M165,47H27c-1.283,0-3,1.717-3,3v92c0,1.284,1.717,3,3,3h138c1.283,0,3-1.716,3-3V50
	C168,48.717,166.283,47,165,47z M147,129c0,2.566-1.436,4-4,4H49c-2.564,0-4-1.434-4-4V55c0-2.564,1.436-4,4-4h94
	c2.564,0,4,1.436,4,4V129z"/>
</svg>
