<?xml version="1.0" encoding="utf-8"?>
<!-- Generator: Adobe Illustrator 16.0.0, SVG Export Plug-In . SVG Version: 6.00 Build 0)  -->
<!DOCTYPE svg PUBLIC "-//W3C//DTD SVG 1.1 Tiny//EN" "http://www.w3.org/Graphics/SVG/1.1/DTD/svg11-tiny.dtd">
<svg version="1.1" baseProfile="tiny" id="Calque_1"
	 xmlns="http://www.w3.org/2000/svg" xmlns:xlink="http://www.w3.org/1999/xlink" x="0px" y="0px" width="192px" height="192px"
	 viewBox="0 0 192 192" xml:space="preserve">
<path id="megadrive" fill="#F2F2F2" d="M96,43c-53.497,0-86,16.88-86,53s21.26,53,33,53s15.441-20.218,28.033-25.255
	c13.869-5.549,36.064-5.549,49.936,0C133.523,128.768,130.759,149,144,149s38-21.75,38-53S149.497,43,96,43z M64,100
	c0,1.532-1.469,3-3,3h-6v5c0,1.533-1.469,3-3,3h-5c-1.532,0-3-1.467-3-3v-5h-6c-1.533,0-3-1.468-3-3v-5c0-1.531,1.467-3,3-3h6v-6
	c0-1.533,1.468-3,3-3h5c1.531,0,3,1.467,3,3v6h6c1.531,0,3,1.469,3,3V100z M125.092,71.881l11.242-6.055
	c1.291-0.695,2.943-0.281,3.688,0.925c0.746,1.206,0.307,2.746-0.984,3.439l-11.242,6.055c-1.289,0.696-2.941,0.28-3.688-0.926
	C123.363,74.114,123.803,72.575,125.092,71.881z M125,111c-4.418,0-8-3.582-8-8s3.582-8,8-8s8,3.582,8,8S129.418,111,125,111z
	 M143,101c-4.418,0-8-3.582-8-8s3.582-8,8-8s8,3.582,8,8S147.418,101,143,101z M162,92c-4.418,0-8-3.582-8-8s3.582-8,8-8
	s8,3.582,8,8S166.418,92,162,92z"/>
</svg>
