<?xml version="1.0" encoding="utf-8"?>
<!-- Generator: Adobe Illustrator 16.0.0, SVG Export Plug-In . SVG Version: 6.00 Build 0)  -->
<!DOCTYPE svg PUBLIC "-//W3C//DTD SVG 1.1 Tiny//EN" "http://www.w3.org/Graphics/SVG/1.1/DTD/svg11-tiny.dtd">
<svg version="1.1" baseProfile="tiny" id="Calque_1"
	 xmlns="http://www.w3.org/2000/svg" xmlns:xlink="http://www.w3.org/1999/xlink" x="0px" y="0px" width="192px" height="192px"
	 viewBox="0 0 192 192" xml:space="preserve">
<g id="Settings">
	<path fill="#F2F2F2" d="M119.742,107.436c-7.205,0.793-12.4,7.277-11.605,14.482c0.795,7.204,7.279,12.398,14.484,11.605
		c7.205-0.796,12.4-7.281,11.605-14.482C133.432,111.832,126.947,106.638,119.742,107.436z"/>
	<path fill="#F2F2F2" d="M82.26,63.264c-11.556,0-20.919,9.36-20.919,20.919c0,11.554,9.363,20.919,20.919,20.919
		c11.552,0,20.919-9.365,20.919-20.919C103.179,72.624,93.812,63.264,82.26,63.264z"/>
	<path fill="#F2F2F2" d="M96,21c-62.262,0-75,12.647-75,75s12.535,75,75,75c62.469,0,75-12.621,75-75S158.265,21,96,21z
		 M90.025,110.667l-0.57,6.611c-2.32,0.501-4.726,0.771-7.195,0.771c-2.472,0-4.879-0.271-7.197-0.771l-0.57-6.611
		c-4.292-1.253-8.148-3.523-11.299-6.528l-6.013,2.814C53.951,103.405,51.494,99.677,50,95l5.423-4.31
		c-0.511-2.094-0.782-4.279-0.782-6.529c0-2.249,0.271-4.434,0.782-6.524L50,74c1.494-4.676,3.951-9.078,7.181-12.626l6.013,2.812
		c3.15-3.006,7.007-5.275,11.299-6.53l0.57-6.609C77.381,50.544,79.788,50,82.26,50c2.47,0,4.875,0.544,7.195,1.047l0.57,6.609
		c4.292,1.255,8.146,3.524,11.296,6.53l6.019-2.812c3.224,3.548,5.701,7.783,7.195,12.459l-5.439,3.804
		c0.51,2.091,0.781,4.275,0.781,6.524c0,2.25-0.271,4.436-0.781,6.529l5.439,3.8c-1.494,4.677-3.972,8.915-7.195,12.463
		l-6.019-2.814C98.172,107.144,94.317,109.414,90.025,110.667z M138.388,132.953l-3.946-1.338c-1.756,2.086-4.005,3.77-6.594,4.846
		l0.099,4.162c-1.412,0.474-2.895,0.805-4.434,0.976C122.738,141.684,121.762,142,121,142c-0.754,0.001-1.291-0.313-2.028-0.39
		l-0.81-4.081c-2.764-0.485-5.325-1.635-7.496-3.294l-3.557,2.169c-2.258-1.991-4.093-4.463-5.349-7.277l3.133-2.743
		c-0.461-1.271-0.782-2.613-0.937-4.018c-0.155-1.399-0.135-2.783,0.039-4.122l-3.657-1.994c0.612-3.022,1.864-5.834,3.632-8.269
		l3.947,1.339c1.758-2.088,4.004-3.77,6.596-4.847l-0.102-4.163c1.414-0.473,2.896-0.805,4.436-0.975
		c1.542-0.169,3.061-0.166,4.541-0.017l0.812,4.086c2.763,0.485,5.321,1.636,7.495,3.294l3.555-2.169
		c2.258,1.991,4.094,4.463,5.349,7.278l-3.132,2.742c0.461,1.271,0.783,2.613,0.938,4.018c0.153,1.403,0.133,2.783-0.039,4.122
		L142,124C141.389,127.022,140.155,130.519,138.388,132.953z"/>
</g>
</svg>
