<?xml version="1.0" encoding="utf-8"?>
<!-- Generator: Adobe Illustrator 16.0.0, SVG Export Plug-In . SVG Version: 6.00 Build 0)  -->
<!DOCTYPE svg PUBLIC "-//W3C//DTD SVG 1.1 Tiny//EN" "http://www.w3.org/Graphics/SVG/1.1/DTD/svg11-tiny.dtd">
<svg version="1.1" baseProfile="tiny" id="Calque_1"
	 xmlns="http://www.w3.org/2000/svg" xmlns:xlink="http://www.w3.org/1999/xlink" x="0px" y="0px" width="192px" height="192px"
	 viewBox="0 0 192 192" xml:space="preserve">
<path fill="#F2F2F2" d="M164.969,65.956c0.02-0.029,0.041-0.058,0.059-0.091c0.736-1.343,0.244-3.029-1.099-3.768
	C158.604,59.178,149,57,146,57s-19,0-19,0c-1.535,0-3,1.465-3,3H68c0-1.533-1.467-3-3-3c0,0-16,0-19,0s-12.605,2.178-17.928,5.098
	c-1.346,0.738-1.836,2.425-1.1,3.768c0.018,0.033,0.039,0.06,0.059,0.091C16.753,72.64,10,83.829,10,97c0,20.699,16.304,38,37,38
	c7.199,0,14.29-2.483,20-6h58c5.709,3.517,12.801,6,20,6c20.695,0,37-17.301,37-38C182,83.829,175.247,72.64,164.969,65.956z
	 M61,102c0,0.664-0.336,1-1,1h-7v7c0,0.664-0.336,1-1,1h-9c-0.665,0-1-0.336-1-1v-7h-7c-0.663,0-1-0.336-1-1v-9c0-0.666,0.337-1,1-1
	h7v-7c0-0.666,0.335-1,1-1h9c0.664,0,1,0.334,1,1v7h7c0.664,0,1,0.334,1,1V102z M89.213,103.861l-8.328,5.551
	c-0.473,0.315-1.009,0.466-1.537,0.466c-0.897,0-1.777-0.433-2.312-1.236c-0.851-1.275-0.505-2.998,0.77-3.849l8.328-5.552
	c1.274-0.85,2.998-0.506,3.85,0.771C90.831,101.287,90.486,103.012,89.213,103.861z M105.866,103.861l-8.327,5.551
	c-0.473,0.315-1.008,0.466-1.538,0.466c-0.896,0-1.775-0.433-2.311-1.236c-0.851-1.275-0.507-2.998,0.769-3.849l8.327-5.552
	c1.276-0.85,2.999-0.506,3.851,0.771C107.486,101.287,107.143,103.012,105.866,103.861z M128,105c-3.866,0-7-3.134-7-7s3.134-7,7-7
	s7,3.134,7,7S131.866,105,128,105z M145,119c-3.866,0-7-3.134-7-7s3.134-7,7-7s7,3.134,7,7S148.866,119,145,119z M145,91
	c-3.866,0-7-3.134-7-7s3.134-7,7-7s7,3.134,7,7S148.866,91,145,91z M161,105c-3.866,0-7-3.134-7-7s3.134-7,7-7s7,3.134,7,7
	S164.866,105,161,105z"/>
</svg>
