<?xml version="1.0" encoding="utf-8"?>
<!-- Generator: Adobe Illustrator 16.0.0, SVG Export Plug-In . SVG Version: 6.00 Build 0)  -->
<!DOCTYPE svg PUBLIC "-//W3C//DTD SVG 1.1 Tiny//EN" "http://www.w3.org/Graphics/SVG/1.1/DTD/svg11-tiny.dtd">
<svg version="1.1" baseProfile="tiny" id="Calque_1"
	 xmlns="http://www.w3.org/2000/svg" xmlns:xlink="http://www.w3.org/1999/xlink" x="0px" y="0px" width="192px" height="192px"
	 viewBox="0 0 192 192" xml:space="preserve">
<g id="Vectrex">
	<path fill="#F2F2F2" d="M173,64H18c-1.443,0-3,2.559-3,4v56c0,1.442,1.557,4,3,4h156c1.443,0,3-2.558,3-4V68
		C177,66.559,174.443,64,173,64z M172,114c0,1.444-1.453,3-2.896,3H23c-1.441,0-3-1.556-3-3V75c0-1.443,1.559-3,3-3h72
		c0,0,0,3.96,0,4c0,3.606,3,7,8,7s8-3.394,8-7c0-0.04,0-4,0-4h58c1.443,0,3,1.557,3,3V114z"/>
	<path fill="#F2F2F2" d="M155,86c-4.282,0-7.859,2.993-8.77,7h-3.461c-0.91-4.007-4.487-7-8.77-7s-7.859,2.993-8.77,7h-3.461
		c-0.91-4.007-4.487-7-8.77-7s-7.859,2.993-8.77,7h-3.461c-0.91-4.007-4.487-7-8.77-7s-7.859,2.993-8.77,7H72.883
		C71.887,84.002,64.263,77,55,77c-9.939,0-18,8.061-18,18s8.061,18,18,18c9.263,0,16.887-7.002,17.883-16H83.23
		c0.91,4.007,4.487,7,8.77,7s7.859-2.993,8.77-7h3.461c0.91,4.007,4.487,7,8.77,7s7.859-2.993,8.77-7h3.461
		c0.91,4.007,4.487,7,8.77,7s7.859-2.993,8.77-7h3.461c0.91,4.007,4.487,7,8.77,7c4.971,0,9-4.029,9-9S159.971,86,155,86z M55,110
		c-8.283,0-15-6.717-15-15s6.717-15,15-15s15,6.717,15,15S63.283,110,55,110z M92,101c-3.313,0-6-2.687-6-6s2.687-6,6-6s6,2.687,6,6
		S95.313,101,92,101z M113,101c-3.313,0-6-2.687-6-6s2.687-6,6-6s6,2.687,6,6S116.313,101,113,101z M134,101c-3.313,0-6-2.687-6-6
		s2.687-6,6-6s6,2.687,6,6S137.313,101,134,101z M155,101c-3.313,0-6-2.687-6-6s2.687-6,6-6s6,2.687,6,6S158.313,101,155,101z"/>
	<circle fill="#F2F2F2" cx="55" cy="95" r="4"/>
</g>
</svg>
