<?xml version="1.0" encoding="utf-8"?>
<!-- Generator: Adobe Illustrator 16.0.0, SVG Export Plug-In . SVG Version: 6.00 Build 0)  -->
<!DOCTYPE svg PUBLIC "-//W3C//DTD SVG 1.1 Tiny//EN" "http://www.w3.org/Graphics/SVG/1.1/DTD/svg11-tiny.dtd">
<svg version="1.1" baseProfile="tiny" id="Calque_1"
	 xmlns="http://www.w3.org/2000/svg" xmlns:xlink="http://www.w3.org/1999/xlink" x="0px" y="0px" width="192px" height="192px"
	 viewBox="0 0 192 192" xml:space="preserve">
<path id="Virtual_Boy" fill="#F2F2F2" d="M159.143,88.072c-2.889-4.883-4.213-9.826-1.801-16.821C166.664,61.307,160,39,142,39
	c-5,0-10.201,1.562-16.347,5.504L116,51H76l-9.852-6.496C60.098,40.624,55,39,50,39c-18,0-24.941,22.392-15.463,32.333
	c2.427,6.752,1.316,11.208-1.877,16.739C26.095,99.756,24,110.039,24,121.039c0,8,0.945,15.934,1.632,23.246
	C26.775,150.345,32,153,37,153s9.017-3.104,9.713-8.715c1.71-26.701,2.342-25.765,4.684-46.845C52.986,90.092,58.424,86,63.109,86
	H70v21c0,1.242,0.758,2,2,2h48c1.242,0,2-0.758,2-2V86h6.693c4.684,0,10.044,2.689,11.711,11.44
	c3.48,20.845,3.012,21.313,4.684,46.845C145.822,150.158,150,153,155,153s9.836-2.92,11.17-8.715
	c1.053-6.065,1.83-12.246,1.83-19.246C168,113.039,165.849,100.756,159.143,88.072z M60,59c0,0.726-0.275,1-1,1h-5v5
	c0,0.725-0.275,1-1,1h-5c-0.726,0-1-0.275-1-1v-5h-5c-0.725,0-1-0.274-1-1v-5c0-0.725,0.275-1,1-1h5v-5c0-0.727,0.274-1,1-1h5
	c0.725,0,1,0.273,1,1v5h5c0.725,0,1,0.275,1,1V59z M67,68c-2.209,0-4-1.791-4-4s1.791-4,4-4s4,1.791,4,4S69.209,68,67,68z M78,73
	c-2.209,0-4-1.791-4-4s1.791-4,4-4s4,1.791,4,4S80.209,73,78,73z M98,59h-4c-1,0-5-3-5-4s1-1,2-1h10c1,0,2,0,2,1S99,59,98,59z
	 M114,73c-2.209,0-4-1.791-4-4s1.791-4,4-4s4,1.791,4,4S116.209,73,114,73z M125,68c-2.209,0-4-1.791-4-4s1.791-4,4-4s4,1.791,4,4
	S127.209,68,125,68z M151,59c0,0.726-0.275,1-1,1h-5v5c0,0.725-0.275,1-1,1h-5c-0.727,0-1-0.275-1-1v-5h-5c-0.725,0-1-0.274-1-1v-5
	c0-0.725,0.275-1,1-1h5v-5c0-0.727,0.273-1,1-1h5c0.725,0,1,0.273,1,1v5h5c0.725,0,1,0.275,1,1V59z"/>
</svg>
