<?xml version="1.0" encoding="utf-8"?>
<!-- Generator: Adobe Illustrator 16.0.0, SVG Export Plug-In . SVG Version: 6.00 Build 0)  -->
<!DOCTYPE svg PUBLIC "-//W3C//DTD SVG 1.1 Tiny//EN" "http://www.w3.org/Graphics/SVG/1.1/DTD/svg11-tiny.dtd">
<svg version="1.1" baseProfile="tiny" id="Calque_1"
	 xmlns="http://www.w3.org/2000/svg" xmlns:xlink="http://www.w3.org/1999/xlink" x="0px" y="0px" width="192px" height="192px"
	 viewBox="0 0 192 192" xml:space="preserve">
<path id="Wonderswan" fill="#F2F2F2" d="M151.432,51.168C144.524,50.017,140,49,135,49c-15,0-23.722,5-37,5c-13.298,0-23-5-36-5
	c-5,0-9.033,0.92-14.021,2.168c-8.788,1.628-17.665-1.107-25.234,7.569C19.532,62.416,18,73,18,86c0,18,1.766,39.955,4.744,45.911
	c3.154,6.314,7.094,10.158,12.618,10.093C51.513,142.004,58,143,64,143c3,0,6.486-0.539,9.211-0.996C94.165,138.512,107,143,126,143
	c9,0,18.047-1.188,30.48-3.52c13.607-2.549,17.135-6.921,17.52-12.48V64C173.709,53.373,166.572,53.69,151.432,51.168z
	 M32.318,64.53c0.783-1.754,3.482-2.549,5.658-2.549c2.324,0,4.27,0.847,5.342,2.323c0.348,0.474,0.316,1.129-0.069,1.572
	l-4.417,5.047c-0.238,0.273-0.584,0.43-0.947,0.43c-0.364,0-0.711-0.156-0.95-0.43l-4.417-5.047
	C32.196,65.504,32.115,64.979,32.318,64.53z M43.318,83.448c-1.072,1.477-3.018,2.323-5.342,2.323c-2.176,0-4.875-0.794-5.658-2.549
	c-0.203-0.447-0.122-0.973,0.199-1.347l4.417-5.046c0.239-0.273,0.586-0.43,0.95-0.43c0.363,0,0.709,0.156,0.947,0.43l4.417,5.046
	C43.635,82.319,43.666,82.975,43.318,83.448z M43.249,111.295l-4.417,5.047c-0.238,0.273-0.584,0.43-0.947,0.43
	c-0.364,0-0.711-0.156-0.95-0.43l-4.417-5.047c-0.321-0.369-0.402-0.895-0.199-1.346c0.783-1.75,3.482-2.55,5.658-2.55
	c2.324,0,4.271,0.847,5.344,2.323C43.666,110.201,43.635,110.853,43.249,111.295z M28.309,68.439
	c0.479-0.344,1.13-0.317,1.572,0.074l5.047,4.412c0.273,0.238,0.432,0.586,0.432,0.951c0,0.364-0.158,0.708-0.432,0.946
	l-5.047,4.417c-0.234,0.208-0.529,0.312-0.829,0.312c-0.173,0-0.352-0.035-0.517-0.108c-1.555-0.699-2.311-2.866-2.497-4.66
	C25.756,72.048,26.603,69.677,28.309,68.439z M29.052,124.976c-0.176,0-0.352-0.039-0.517-0.113
	c-1.557-0.699-2.311-2.866-2.497-4.659c-0.282-2.732,0.566-5.104,2.271-6.346c0.479-0.343,1.13-0.316,1.572,0.074l5.047,4.416
	c0.273,0.239,0.432,0.582,0.432,0.947s-0.158,0.712-0.432,0.951l-5.047,4.417C29.646,124.867,29.352,124.976,29.052,124.976z
	 M43.318,128.867c-1.07,1.477-3.018,2.323-5.342,2.323c-2.176,0-4.875-0.795-5.658-2.55c-0.203-0.447-0.122-0.973,0.201-1.346
	l4.415-5.043c0.239-0.273,0.586-0.434,0.95-0.434c0.363,0,0.709,0.16,0.947,0.434l4.417,5.043
	C43.635,127.737,43.666,128.394,43.318,128.867z M47.457,124.732c-0.221,0.16-0.482,0.243-0.742,0.243
	c-0.295,0-0.594-0.108-0.83-0.312l-5.046-4.417c-0.274-0.239-0.431-0.586-0.431-0.951s0.156-0.708,0.431-0.947l5.046-4.416
	c0.371-0.326,0.896-0.404,1.347-0.204c1.56,0.699,2.311,2.87,2.497,4.664C50.011,121.123,49.164,123.494,47.457,124.732z
	 M47.457,79.314c-0.221,0.16-0.482,0.238-0.742,0.238c-0.295,0-0.594-0.104-0.83-0.312l-5.046-4.417
	c-0.274-0.238-0.431-0.582-0.431-0.946c0-0.365,0.156-0.713,0.431-0.951l5.046-4.412c0.369-0.326,0.896-0.404,1.347-0.205
	c1.555,0.695,2.311,2.862,2.497,4.66C50.014,75.701,49.164,78.072,47.457,79.314z M75,134h-5c-1.045,0-2-0.957-2-2
	c0-1.047,0.955-2,2-2h5.102c1.045,0,1.898,0.953,1.898,2C77,133.043,76.045,134,75,134z M89,134h-5c-1.043,0-2-0.957-2-2
	c0-1.047,0.957-2,2-2h4c1.047,0,3,0.953,3,2C91,133.043,90.047,134,89,134z M101,135c-2.762,0-5-1.343-5-3s2.238-3,5-3s5,1.343,5,3
	S103.762,135,101,135z M136,118H66V73h70V118z M161.915,126.348c-1.073,1.477-3.019,2.324-5.342,2.324
	c-2.176-0.005-4.875-0.8-5.661-2.55c-0.201-0.452-0.123-0.978,0.202-1.347l4.417-5.046c0.238-0.278,0.586-0.435,0.949-0.435
	c0.361,0,0.709,0.161,0.948,0.435l4.417,5.046C162.232,125.219,162.263,125.87,161.915,126.348z M166.052,122.209
	c-0.222,0.161-0.481,0.243-0.741,0.243c-0.297,0-0.594-0.108-0.831-0.312l-5.044-4.417c-0.273-0.238-0.433-0.586-0.433-0.951
	c0-0.364,0.159-0.708,0.433-0.946l5.044-4.417c0.372-0.326,0.897-0.404,1.349-0.204c1.557,0.703,2.311,2.87,2.497,4.669
	C168.607,118.604,167.756,120.972,166.052,122.209z"/>
</svg>
