<?xml version="1.0" encoding="utf-8"?>
<!-- Generator: Adobe Illustrator 16.0.0, SVG Export Plug-In . SVG Version: 6.00 Build 0)  -->
<!DOCTYPE svg PUBLIC "-//W3C//DTD SVG 1.1//EN" "http://www.w3.org/Graphics/SVG/1.1/DTD/svg11.dtd">
<svg version="1.1" id="Calque_1" xmlns="http://www.w3.org/2000/svg" xmlns:xlink="http://www.w3.org/1999/xlink" x="0px" y="0px"
	 width="192px" height="192px" viewBox="0 0 192 192" enable-background="new 0 0 192 192" xml:space="preserve">
<g id="layer2_7_" inkscape:label="logo" inkscape:groupmode="layer">
	<path fill="#F2F2F2" d="M165.999,11.001H26.001c-8.284,0-15,6.716-15,15v140c0,8.268,6.69,14.971,14.952,14.996h140.094
		c8.262-0.025,14.952-6.729,14.952-14.996v-140C180.999,17.717,174.282,11.001,165.999,11.001z M96,158.332
		c-9.977,0-19.398-2.355-27.76-6.523l-17.701,17.703l-0.001-0.002c-3.59,3.598-8.553,5.822-14.037,5.822
		c-10.954,0-19.833-8.879-19.833-19.832c0-5.486,2.227-10.449,5.824-14.039l-0.001-0.002l17.7-17.699
		c-4.167-8.361-6.523-17.783-6.523-27.76c0-34.426,27.906-62.332,62.332-62.332c34.427,0,62.332,27.906,62.332,62.332
		C158.332,130.426,130.427,158.332,96,158.332z"/>
	
		<path id="path3018_1_" sodipodi:ry="3.5" sodipodi:cx="11.5" sodipodi:cy="52.5" sodipodi:type="arc" sodipodi:rx="3.5" fill="#F2F2F2" d="
		M50.667,155.5c0,7.824-6.343,14.166-14.166,14.166c-7.823,0-14.167-6.342-14.167-14.166c0-7.826,6.344-14.166,14.167-14.166
		C44.324,141.334,50.667,147.674,50.667,155.5z"/>
	<path fill="#F2F2F2" d="M112.037,86.695c-1.102-1.899-13.87-9.237-16.078-9.237c-2.202,0.005-14.942,7.398-16.038,9.306
		c-1.096,1.907-1.065,16.637,0.04,18.542c1.103,1.9,13.871,9.238,16.073,9.238c0.002,0,0.005,0,0.006,0
		c2.204-0.008,14.943-7.402,16.035-9.307C113.173,103.33,113.142,88.6,112.037,86.695z"/>
</g>
</svg>
