<?xml version="1.0" encoding="utf-8"?>
<!-- Generator: Adobe Illustrator 16.0.0, SVG Export Plug-In . SVG Version: 6.00 Build 0)  -->
<!DOCTYPE svg PUBLIC "-//W3C//DTD SVG 1.1//EN" "http://www.w3.org/Graphics/SVG/1.1/DTD/svg11.dtd">
<svg version="1.1" id="Calque_1" xmlns="http://www.w3.org/2000/svg" xmlns:xlink="http://www.w3.org/1999/xlink" x="0px" y="0px"
	 width="192px" height="192px" viewBox="0 0 192 192" enable-background="new 0 0 192 192" xml:space="preserve">
<g>
	<path fill="#F2F2F2" d="M96,23.808c-39.724,0-72.042,32.318-72.042,72.042c0,39.724,32.317,72.042,72.042,72.042
		c39.725,0,72.042-32.318,72.042-72.042C168.042,56.125,135.725,23.808,96,23.808z M92.137,120.518H47.971c0-4.751,0-9.503,0-14.332
		c0-12.542,11.372-16.28,22.122-16.28c4.128,0,11.684-0.701,11.684-7.01c0-5.92-5.375-8.724-12.385-8.724
		c-5.375,0-10.904,2.727-10.983,7.633H48.205c0.078-11.528,10.983-16.513,21.031-16.513c10.906,0,22.746,4.44,22.746,17.37
		c0,13.865-10.438,16.514-21.888,16.514c-4.518,0-11.84,1.168-11.84,7.088v4.674h33.883V120.518z M146.272,97.149
		c0,32.482-47.827,32.56-47.827,0v-7.868c0-32.559,47.827-32.481,47.827,0V97.149z"/>
	<path fill="#F2F2F2" d="M108.65,89.282v7.868c0,19.785,27.418,19.785,27.418,0v-7.868C136.068,69.809,108.65,69.575,108.65,89.282z
		"/>
	<path fill="#F2F2F2" d="M181.29,100.47c0.062-1.131-0.736-3.337-0.736-4.471c0-1.13,0.798-3.337,0.736-4.469
		c-0.062-1.131-1.084-3.242-1.198-4.368c-0.124-1.128,0.442-3.405,0.262-4.524c-0.176-1.116-1.415-3.109-1.648-4.218
		c-0.232-1.105,0.088-3.431-0.209-4.525c-0.293-1.095-1.733-2.947-2.082-4.022c-0.352-1.077-0.273-3.423-0.683-4.48
		c-0.405-1.057-2.028-2.749-2.491-3.783c-0.456-1.035-0.629-3.375-1.144-4.384c-0.511-1.008-2.306-2.521-2.87-3.501
		c-0.568-0.981-0.982-3.29-1.602-4.241c-0.612-0.949-2.555-2.266-3.222-3.182c-0.661-0.916-1.317-3.169-2.028-4.051
		c-0.716-0.879-2.78-1.985-3.541-2.828c-0.756-0.843-1.641-3.014-2.441-3.815c-0.803-0.799-2.975-1.685-3.816-2.442
		c-0.843-0.757-1.945-2.826-2.83-3.538c-0.878-0.715-3.131-1.368-4.047-2.032c-0.916-0.666-2.234-2.606-3.184-3.222
		c-0.949-0.618-3.26-1.03-4.24-1.597c-0.979-0.566-2.49-2.359-3.5-2.874c-1.011-0.515-3.351-0.685-4.386-1.145
		c-1.032-0.463-2.724-2.086-3.782-2.491c-1.059-0.407-3.401-0.332-4.477-0.681c-1.077-0.35-2.93-1.789-4.025-2.083
		c-1.092-0.293-3.416,0.028-4.527-0.208c-1.109-0.236-3.096-1.473-4.217-1.65c-1.115-0.177-3.398,0.384-4.522,0.267
		c-1.126-0.119-3.235-1.141-4.369-1.202c-1.132-0.057-3.337,0.739-4.47,0.739s-3.337-0.796-4.469-0.739
		c-1.133,0.061-3.244,1.083-4.367,1.202c-1.125,0.117-3.409-0.444-4.526-0.267c-1.119,0.177-3.111,1.414-4.216,1.65
		c-1.112,0.236-3.434-0.085-4.525,0.208c-1.097,0.295-2.949,1.733-4.025,2.083c-1.076,0.349-3.424,0.274-4.478,0.681
		c-1.059,0.404-2.75,2.028-3.783,2.491c-1.036,0.459-3.373,0.629-4.385,1.145c-1.01,0.514-2.521,2.307-3.502,2.874
		s-3.29,0.979-4.238,1.597c-0.95,0.615-2.268,2.556-3.184,3.222c-0.915,0.667-3.168,1.317-4.047,2.032
		c-0.885,0.712-1.988,2.781-2.832,3.538c-0.842,0.758-3.014,1.643-3.815,2.442c-0.802,0.801-1.685,2.973-2.441,3.815
		c-0.76,0.843-2.824,1.948-3.54,2.828c-0.713,0.882-1.367,3.133-2.029,4.051c-0.668,0.916-2.609,2.233-3.223,3.182
		c-0.618,0.951-1.031,3.259-1.599,4.241c-0.565,0.98-2.362,2.493-2.87,3.501c-0.518,1.01-0.688,3.35-1.146,4.384
		c-0.463,1.034-2.084,2.726-2.491,3.783c-0.409,1.057-0.329,3.403-0.683,4.48c-0.346,1.076-1.787,2.928-2.081,4.022
		c-0.295,1.094,0.023,3.419-0.21,4.525c-0.232,1.109-1.473,3.103-1.646,4.218c-0.18,1.119,0.385,3.396,0.261,4.524
		c-0.112,1.126-1.136,3.237-1.199,4.368c-0.06,1.13,0.737,3.339,0.737,4.469c0,1.134-0.797,3.34-0.737,4.471
		c0.063,1.131,1.087,3.242,1.199,4.367c0.124,1.127-0.44,3.404-0.261,4.523c0.174,1.119,1.414,3.113,1.646,4.219
		c0.233,1.108-0.085,3.434,0.21,4.525c0.294,1.094,1.735,2.945,2.081,4.023c0.354,1.078,0.273,3.422,0.683,4.479
		c0.407,1.057,2.028,2.749,2.491,3.784c0.458,1.035,0.629,3.373,1.146,4.383c0.508,1.009,2.305,2.52,2.87,3.502
		c0.567,0.982,0.98,3.291,1.599,4.24c0.613,0.95,2.555,2.266,3.223,3.183c0.662,0.916,1.316,3.169,2.029,4.049
		c0.716,0.881,2.78,1.987,3.54,2.827c0.757,0.843,1.64,3.018,2.441,3.816c0.802,0.801,2.974,1.686,3.815,2.443
		c0.844,0.759,1.947,2.825,2.832,3.539c0.879,0.711,3.132,1.364,4.047,2.031c0.916,0.664,2.233,2.607,3.184,3.223
		c0.948,0.617,3.258,1.03,4.238,1.598c0.98,0.565,2.492,2.359,3.502,2.871c1.012,0.514,3.349,0.686,4.385,1.146
		c1.033,0.459,2.725,2.084,3.783,2.49c1.054,0.407,3.401,0.33,4.478,0.681c1.076,0.35,2.929,1.79,4.025,2.082
		c1.092,0.294,3.413-0.026,4.525,0.208c1.104,0.236,3.097,1.473,4.216,1.651c1.117,0.177,3.4-0.386,4.526-0.267
		c1.123,0.118,3.234,1.141,4.367,1.201c1.132,0.059,3.336-0.736,4.469-0.736s3.338,0.795,4.47,0.736
		c1.134-0.061,3.243-1.083,4.369-1.201c1.124-0.119,3.407,0.443,4.522,0.267c1.121-0.179,3.107-1.415,4.217-1.651
		c1.111-0.234,3.436,0.086,4.527-0.208c1.096-0.292,2.948-1.732,4.025-2.082c1.075-0.351,3.418-0.273,4.477-0.681
		c1.059-0.406,2.75-2.031,3.782-2.49c1.035-0.461,3.375-0.633,4.386-1.146c1.01-0.512,2.521-2.306,3.5-2.871
		c0.98-0.567,3.291-0.98,4.24-1.598c0.949-0.615,2.268-2.559,3.184-3.223c0.916-0.667,3.169-1.32,4.047-2.031
		c0.885-0.714,1.987-2.78,2.83-3.539c0.842-0.758,3.014-1.643,3.816-2.443c0.801-0.799,1.686-2.974,2.441-3.816
		c0.761-0.84,2.825-1.946,3.541-2.827c0.711-0.88,1.367-3.133,2.028-4.049c0.667-0.917,2.609-2.232,3.222-3.183
		c0.619-0.949,1.033-3.258,1.602-4.24c0.564-0.982,2.359-2.493,2.87-3.502c0.515-1.01,0.688-3.348,1.144-4.383
		c0.463-1.035,2.086-2.728,2.491-3.784c0.409-1.058,0.331-3.401,0.683-4.479c0.349-1.078,1.789-2.93,2.082-4.023
		c0.297-1.092-0.023-3.417,0.209-4.525c0.233-1.105,1.473-3.1,1.648-4.219c0.181-1.119-0.386-3.396-0.262-4.523
		C180.206,103.712,181.229,101.601,181.29,100.47z M96,171.302c-41.604,0-75.453-33.848-75.453-75.453
		c0-41.604,33.849-75.452,75.453-75.452c41.604,0,75.452,33.848,75.452,75.452C171.452,137.454,137.604,171.302,96,171.302z"/>
</g>
</svg>
