<?xml version="1.0" encoding="utf-8"?>
<!-- Generator: Adobe Illustrator 16.0.0, SVG Export Plug-In . SVG Version: 6.00 Build 0)  -->
<!DOCTYPE svg PUBLIC "-//W3C//DTD SVG 1.1//EN" "http://www.w3.org/Graphics/SVG/1.1/DTD/svg11.dtd">
<svg version="1.1" id="Calque_1" xmlns="http://www.w3.org/2000/svg" xmlns:xlink="http://www.w3.org/1999/xlink" x="0px" y="0px"
	 width="192px" height="192px" viewBox="0 0 192 192" enable-background="new 0 0 192 192" xml:space="preserve">
<path fill="#F2F2F2" d="M178.937,153.662l-12.541-29.279c-0.314-0.734-0.551-1.98-0.734-5.01c0,0-6.943-101.147-7.087-103.221
	c-0.143-2.073-3.224-5.152-5.77-5.152H39.197c-2.548,0-5.629,3.079-5.771,5.152c-0.144,2.074-7.087,103.221-7.087,103.221
	c-0.184,3.029-0.421,4.275-0.735,5.01l-12.541,29.279c-0.61,1.406-0.878,2.832-0.878,4.34c0,2.354,0,19.91,0,19.91
	c0,1.705,1.383,3.088,3.087,3.088h161.455c1.705,0,3.087-1.383,3.087-3.088c0,0,0-17.557,0-19.91
	C179.814,156.494,179.547,155.068,178.937,153.662z M61.604,136.127v5.725l0,0c0,0,0,0,0,0.002c0,0.631-0.933,1.143-2.082,1.143
	c-1.15,0-2.081-0.512-2.081-1.143c0-0.002,0-0.002,0-0.002l0,0v-5.725c-3.649-0.895-6.351-4.076-6.351-7.875
	c0-4.492,3.774-8.135,8.432-8.135c4.656,0,8.433,3.643,8.433,8.135C67.954,132.051,65.252,135.232,61.604,136.127z M89.297,145.605
	c0,1.82-3.169,3.295-7.082,3.295c-3.911,0-7.082-1.475-7.082-3.295v-2.633c0-1.82,3.171-3.295,7.082-3.295
	c3.913,0,7.082,1.475,7.082,3.295V145.605z M91.565,139.352v-2.531c0-1.752,3.051-3.172,6.812-3.172c3.764,0,6.813,1.42,6.813,3.172
	v2.531c0,1.75-3.05,3.17-6.813,3.17C94.616,142.521,91.565,141.102,91.565,139.352z M109.123,150.791c0,1.82-3.17,3.297-7.081,3.297
	c-3.912,0-7.083-1.477-7.083-3.297v-2.631c0-1.82,3.171-3.297,7.083-3.297c3.911,0,7.081,1.477,7.081,3.297V150.791z
	 M107.998,133.098v-2.432c0-1.684,2.929-3.045,6.544-3.045c3.613,0,6.543,1.361,6.543,3.045v2.432c0,1.682-2.93,3.045-6.543,3.045
	C110.927,136.143,107.998,134.779,107.998,133.098z M125.018,144.539c0,1.75-3.051,3.17-6.812,3.17c-3.764,0-6.813-1.42-6.813-3.17
	v-2.533c0-1.752,3.05-3.17,6.813-3.17c3.762,0,6.812,1.418,6.812,3.17V144.539z M140.911,138.283c0,1.682-2.929,3.045-6.543,3.045
	s-6.545-1.363-6.545-3.045v-2.432c0-1.682,2.931-3.045,6.545-3.045s6.543,1.363,6.543,3.045V138.283z M147.858,104.59H44.142
	c-1.706,0-3.244-0.943-3.088-3.088l3.756-75.787c0.178-1.988,1.383-3.087,3.088-3.087h96.206c1.705,0,2.91,1.1,3.087,3.087
	l3.756,75.787C151.104,103.646,149.564,104.59,147.858,104.59z"/>
</svg>
