<?xml version="1.0" encoding="utf-8"?>
<!-- Generator: Adobe Illustrator 16.0.0, SVG Export Plug-In . SVG Version: 6.00 Build 0)  -->
<!DOCTYPE svg PUBLIC "-//W3C//DTD SVG 1.1 Tiny//EN" "http://www.w3.org/Graphics/SVG/1.1/DTD/svg11-tiny.dtd">
<svg version="1.1" baseProfile="tiny" id="Calque_1"
	 xmlns="http://www.w3.org/2000/svg" xmlns:xlink="http://www.w3.org/1999/xlink" x="0px" y="0px" width="192px" height="192px"
	 viewBox="0 0 192 192" xml:space="preserve">
<g>
	<path fill="#F2F2F2" d="M64.74,112.451c-4.346,0-7.865,3.523-7.865,7.869s3.52,7.869,7.865,7.869c4.347,0,7.872-3.523,7.872-7.869
		S69.087,112.451,64.74,112.451z"/>
	<path fill="#F2F2F2" d="M153.951,11H38.049c-2.762,0-5,2.238-5,5v159.999c0,2.762,2.238,5.001,5,5.001h115.902
		c2.762,0,5-2.239,5-5.001V16C158.951,13.238,156.713,11,153.951,11z M64.74,131.884c-6.381,0-11.562-5.179-11.562-11.563
		s5.181-11.562,11.562-11.562c6.388,0,11.563,5.178,11.563,11.562S71.128,131.884,64.74,131.884z M97.553,126.426
		c-2.425,0-4.395-1.969-4.395-4.395c0-2.428,1.97-4.395,4.395-4.395c2.429,0,4.396,1.967,4.396,4.395
		C101.949,124.457,99.981,126.426,97.553,126.426z M109.425,134.531c-2.428,0-4.396-1.967-4.396-4.395
		c0-2.427,1.969-4.395,4.396-4.395c2.427,0,4.395,1.968,4.395,4.395C113.819,132.564,111.852,134.531,109.425,134.531z
		 M110.054,121.426c-2.426,0-4.395-1.969-4.395-4.395c0-2.428,1.969-4.395,4.395-4.395c2.427,0,4.395,1.967,4.395,4.395
		C114.448,119.457,112.48,121.426,110.054,121.426z M121.925,129.531c-2.428,0-4.395-1.968-4.395-4.395
		c0-2.426,1.967-4.395,4.395-4.395c2.426,0,4.395,1.969,4.395,4.395C126.319,127.563,124.351,129.531,121.925,129.531z
		 M122.556,116.426c-2.429,0-4.396-1.967-4.396-4.395s1.968-4.395,4.396-4.395c2.425,0,4.395,1.967,4.395,4.395
		S124.98,116.426,122.556,116.426z M138.819,157.447c0,0.942-0.764,1.707-1.706,1.707c-0.945,0-1.71-0.765-1.71-1.707v-7.213
		c0-0.942,0.765-1.707,1.71-1.707c0.942,0,1.706,0.765,1.706,1.707V157.447z M134.424,124.531c-2.425,0-4.394-1.969-4.394-4.395
		c0-2.427,1.969-4.395,4.394-4.395c2.427,0,4.396,1.968,4.396,4.395C138.819,122.562,136.851,124.531,134.424,124.531z
		 M143.293,89.16c0,1.381-1.12,2.501-2.501,2.501H51.208c-1.381,0-2.5-1.12-2.5-2.501V29.159c0-1.381,1.119-2.5,2.5-2.5h89.584
		c1.381,0,2.501,1.119,2.501,2.5V89.16z"/>
</g>
</svg>
