<?xml version="1.0" encoding="utf-8"?>
<!-- Generator: Adobe Illustrator 16.0.0, SVG Export Plug-In . SVG Version: 6.00 Build 0)  -->
<!DOCTYPE svg PUBLIC "-//W3C//DTD SVG 1.1 Tiny//EN" "http://www.w3.org/Graphics/SVG/1.1/DTD/svg11-tiny.dtd">
<svg version="1.1" baseProfile="tiny" id="Calque_1"
	 xmlns="http://www.w3.org/2000/svg" xmlns:xlink="http://www.w3.org/1999/xlink" x="0px" y="0px" width="192px" height="192px"
	 viewBox="0 0 192 192" xml:space="preserve">
<g>
	<path fill="#F2F2F2" d="M138.361,61.324H53.637c-1.481,0-2.683,1.197-2.683,2.679v49.356c0,1.479,1.201,2.677,2.683,2.677h84.724
		c1.484,0,2.686-1.197,2.686-2.677V64.003C141.047,62.521,139.846,61.324,138.361,61.324z M72.183,98.002V84.159
		c0-0.795-0.644-1.442-1.439-1.442c-0.797,0-1.441,0.647-1.441,1.442v13.843c-5.349-0.706-9.481-5.28-9.481-10.821
		c0-6.033,4.892-10.921,10.923-10.921c6.03,0,10.921,4.888,10.921,10.921C81.665,92.722,77.533,97.296,72.183,98.002z
		 M106.807,110.838H85.194c-1.16,0-2.1-0.938-2.1-2.099c0-1.161,0.939-2.102,2.1-2.102h21.613c1.158,0,2.102,0.94,2.102,2.102
		C108.908,109.899,107.965,110.838,106.807,110.838z M122.697,98.002V84.159c0-0.795-0.645-1.442-1.441-1.442
		c-0.795,0-1.439,0.647-1.439,1.442v13.843c-5.35-0.706-9.479-5.28-9.479-10.821c0-6.033,4.889-10.921,10.918-10.921
		c6.033,0,10.922,4.888,10.922,10.921C132.178,92.722,128.049,97.296,122.697,98.002z"/>
	<path fill="#F2F2F2" d="M96,11.047c-70.524,0-84.953,14.326-84.953,84.953S25.246,180.953,96,180.953
		c70.759,0,84.953-14.297,84.953-84.953S166.527,11.047,96,11.047z M156.096,101.475h-10.049v10.187
		c0,5.181-4.199,9.378-9.381,9.378h-9.646v4.02l6.389,2.614v8.004h-26.531v-8.004l6.385-2.614v-4.02H78.739v4.02l6.387,2.614v8.004
		H58.592v-8.004l6.388-2.614v-4.02h-9.646c-5.18,0-9.379-4.197-9.379-9.378v-10.187H35.903c-2.824,0-5.112-2.29-5.112-5.115
		c0-7.942,6.184-14.805,15.164-18.07V65.702c0-5.179,4.199-9.379,9.379-9.379h81.332c5.182,0,9.381,4.2,9.381,9.379v12.587
		c8.979,3.266,15.162,10.128,15.162,18.07C161.209,99.185,158.92,101.475,156.096,101.475z"/>
</g>
</svg>
