<?xml version="1.0" encoding="utf-8"?>
<!-- Generator: Adobe Illustrator 16.0.0, SVG Export Plug-In . SVG Version: 6.00 Build 0)  -->
<!DOCTYPE svg PUBLIC "-//W3C//DTD SVG 1.1//EN" "http://www.w3.org/Graphics/SVG/1.1/DTD/svg11.dtd">
<svg version="1.1" id="Calque_1" xmlns="http://www.w3.org/2000/svg" xmlns:xlink="http://www.w3.org/1999/xlink" x="0px" y="0px"
	 width="192px" height="192px" viewBox="0 0 192 192" enable-background="new 0 0 192 192" xml:space="preserve">
<g>
	<path fill="#F2F2F2" d="M161.234,72.915V56.506c0-6.752-5.474-12.226-12.226-12.226H42.992c-6.752,0-12.226,5.474-12.226,12.226
		v16.409C19.062,77.171,11,86.118,11,96.467l0,0l0,0c0,3.681,2.984,6.666,6.666,6.666h13.1v13.279
		c0,6.754,5.474,12.227,12.226,12.227h12.575v5.24l-8.325,3.406v10.436h34.583v-10.436l-8.326-3.406v-5.24h45.002v5.24l-8.324,3.406
		v10.436h34.582v-10.436l-8.326-3.406v-5.24h12.576c6.752,0,12.226-5.473,12.226-12.227v-13.279h13.101
		c3.682,0,6.665-2.984,6.665-6.666l0,0l0,0C181,86.118,172.938,77.171,161.234,72.915z M154.714,118.625
		c0,1.93-1.563,3.494-3.492,3.494H40.779c-1.929,0-3.493-1.564-3.493-3.494V54.293c0-1.929,1.564-3.493,3.493-3.493h110.443
		c1.929,0,3.492,1.564,3.492,3.493V118.625z"/>
	<path fill="#F2F2F2" d="M63.077,70.269c-7.861,0-14.234,6.373-14.234,14.234c0,7.224,5.383,13.188,12.356,14.106V80.564
		c0-1.037,0.841-1.878,1.878-1.878c1.037,0,1.878,0.841,1.878,1.878v18.045c6.973-0.918,12.357-6.882,12.357-14.106
		C77.312,76.642,70.939,70.269,63.077,70.269z"/>
	<path fill="#F2F2F2" d="M128.923,70.269c-7.861,0-14.234,6.373-14.234,14.234c0,7.224,5.383,13.188,12.357,14.106V80.564
		c0-1.037,0.84-1.878,1.877-1.878s1.878,0.841,1.878,1.878v18.045c6.974-0.918,12.356-6.882,12.356-14.106
		C143.157,76.642,136.785,70.269,128.923,70.269z"/>
	<path fill="#F2F2F2" d="M112.824,112.605c0,1.512-1.226,2.736-2.737,2.736H81.913c-1.512,0-2.737-1.225-2.737-2.736l0,0
		c0-1.512,1.226-2.738,2.737-2.738h28.174C111.599,109.867,112.824,111.094,112.824,112.605L112.824,112.605z"/>
</g>
</svg>
