<?xml version="1.0" encoding="utf-8"?>
<!-- Generator: Adobe Illustrator 16.0.0, SVG Export Plug-In . SVG Version: 6.00 Build 0)  -->
<!DOCTYPE svg PUBLIC "-//W3C//DTD SVG 1.1//EN" "http://www.w3.org/Graphics/SVG/1.1/DTD/svg11.dtd">
<svg version="1.1" id="Calque_1" xmlns="http://www.w3.org/2000/svg" xmlns:xlink="http://www.w3.org/1999/xlink" x="0px" y="0px"
	 width="192px" height="192px" viewBox="0 0 192 192" enable-background="new 0 0 192 192" xml:space="preserve">
<path fill="#F2F2F2" d="M101.806,12.249l-0.071,0.068c-0.095-0.137-0.142-0.282-0.268-0.405c-1.194-1.196-3.118-1.196-4.312,0
	L15.223,93.844c-1.194,1.194-1.194,3.116,0,4.312l81.932,81.932c1.193,1.195,3.117,1.195,4.312,0
	c0.048-0.044,0.093-0.086,0.138-0.133l75.529-75.533l0.539-16.306l-9.368-9.366l-34.494,34.498L82.062,61.501l34.495-34.497
	L101.806,12.249z M124.913,35.358L99.311,61.501l17.247,17.249l25.877-25.873L124.913,35.358z M123.028,124.029l-38.811,38.81
	l-51.747-51.747l38.811-38.809c1.194-1.194,3.117-1.194,4.312,0l47.435,47.432C124.223,120.912,124.223,122.836,123.028,124.029z"/>
</svg>
