<?xml version="1.0" encoding="utf-8"?>
<!-- Generator: Adobe Illustrator 16.0.0, SVG Export Plug-In . SVG Version: 6.00 Build 0)  -->
<!DOCTYPE svg PUBLIC "-//W3C//DTD SVG 1.1 Tiny//EN" "http://www.w3.org/Graphics/SVG/1.1/DTD/svg11-tiny.dtd">
<svg version="1.1" baseProfile="tiny" id="Calque_1"
	 xmlns="http://www.w3.org/2000/svg" xmlns:xlink="http://www.w3.org/1999/xlink" x="0px" y="0px" width="192px" height="192px"
	 viewBox="0 0 192 192" xml:space="preserve">
<g>
	<path fill="#F2F2F2" d="M123.043,87.101h-11.252c-0.746,0-1.346,0.604-1.346,1.346v27.82c0,0.74,0.6,1.342,1.346,1.342h11.252
		c8.426,0,15.254-6.828,15.254-15.248C138.297,93.935,131.469,87.101,123.043,87.101z"/>
	<path fill="#F2F2F2" d="M96,9.38c-71.909,0-86.62,14.607-86.62,86.619c0,72.014,14.478,86.621,86.62,86.621
		c72.148,0,86.619-14.578,86.619-86.621C182.619,23.958,167.912,9.38,96,9.38z M121.062,140.362H93.024
		c-1.852,0-3.354-1.498-3.354-3.35v-5.963c-7.881,11.73-40.943,10.213-56.253,0.27c-1.031-0.92-0.377-2.498,1.446-1.723
		c2.232,0.867,4.639,1.553,7.149,2.057l2.7-2.08c0.268-0.16,0.621-0.064,0.778,0.209l1.013,2.379l2.511-2.633
		c0.281-0.234,0.694-0.189,0.923,0.094l1.688,2.719l2.25-3.141c0.256-0.273,0.69-0.295,0.97-0.037l2.517,3.021l2.466-4.029
		c0.278-0.35,0.784-0.404,1.132-0.125l2.015,2.096l1.932-3.982c0.294-0.447,0.889-0.572,1.334-0.279l3.131,2.67l0.978-4.834
		c0.201-0.602,0.848-0.92,1.445-0.721l4.646,2.273l-0.916-5.201c-0.042-0.855,0.623-1.582,1.479-1.617l6.622,0.527l-5.137-6.424
		c-0.579-0.951-0.276-2.195,0.677-2.771l7.217-3.217l-8.222-7.006c-0.751-0.826-0.689-2.102,0.137-2.848l7.707-5.395l-9.653-7.455
		c-0.785-0.787-0.785-2.064,0-2.855l8.647-6.68l-1.607-12.545c-0.002-1.117,0.903-2.018,2.014-2.018l9.731,1.244l5.067-8.578
		c0.684-0.881,1.953-1.037,2.834-0.354l8.072,8.127l5.402-6.102c0.697-0.613,1.754-0.543,2.367,0.154l6.996,10.416
		c18.721,2.369,33.199,18.338,33.199,37.703C159.072,123.353,142.055,140.362,121.062,140.362z"/>
</g>
</svg>
