<?xml version="1.0" encoding="utf-8"?>
<!-- Generator: Adobe Illustrator 16.0.0, SVG Export Plug-In . SVG Version: 6.00 Build 0)  -->
<!DOCTYPE svg PUBLIC "-//W3C//DTD SVG 1.1 Tiny//EN" "http://www.w3.org/Graphics/SVG/1.1/DTD/svg11-tiny.dtd">
<svg version="1.1" baseProfile="tiny" id="Calque_1"
	 xmlns="http://www.w3.org/2000/svg" xmlns:xlink="http://www.w3.org/1999/xlink" x="0px" y="0px" width="192px" height="192px"
	 viewBox="0 0 192 192" xml:space="preserve">
<g>
	<polygon fill="#F2F2F2" points="95.995,62.001 95.999,10.999 61.464,11.001 61.997,62 	"/>
	<path fill="#F2F2F2" d="M180.997,27.601L165.458,11l-18.464,0.001l0.003,67.996L44.998,78.999l-0.001-67.996l-29.082-0.004
		l-0.003,0.139c-0.229-0.042-0.418-0.138-0.663-0.136C12.893,11,10.998,12.896,11,15.252l0,161.497c0,2.355,1.894,4.248,4.25,4.252
		l161.498-0.002c2.354,0,4.25-1.896,4.25-4.25c0.002-0.09,0.006-0.176,0.002-0.266L180.997,27.601z M146.995,176.749H44.997
		l0.001-76.498c0-2.355,1.895-4.25,4.25-4.25l93.498-0.004c2.357,0.004,4.252,1.898,4.252,4.252L146.995,176.749z"/>
</g>
</svg>
