<?xml version="1.0" encoding="utf-8"?>
<!-- Generator: Adobe Illustrator 16.0.0, SVG Export Plug-In . SVG Version: 6.00 Build 0)  -->
<!DOCTYPE svg PUBLIC "-//W3C//DTD SVG 1.1 Tiny//EN" "http://www.w3.org/Graphics/SVG/1.1/DTD/svg11-tiny.dtd">
<svg version="1.1" baseProfile="tiny" id="Calque_1"
	 xmlns="http://www.w3.org/2000/svg" xmlns:xlink="http://www.w3.org/1999/xlink" x="0px" y="0px" width="192px" height="192px"
	 viewBox="0 0 192 192" xml:space="preserve">
<g>
	<path fill="#F2F2F2" d="M176.143,11H15.857c-4.471,0-8.096,3.625-8.096,8.095v153.81c0,4.471,3.625,8.095,8.096,8.095h160.285
		c4.471,0,8.096-3.624,8.096-8.095V19.095C184.238,14.625,180.613,11,176.143,11z M25.989,32.875c0-2.385,1.933-4.317,4.317-4.317
		h41.101L25.989,68.861V32.875z M166.012,69.218l-62.235,70.134l62.235-55.225v36.001l-15.463,17.424l15.463-13.721v35.293
		c0,2.385-1.934,4.318-4.317,4.318H52.396l61.859-69.71l-78.558,69.71h-5.392c-2.385,0-4.317-1.934-4.317-4.318v-32.486
		l39.38-44.378l-39.38,34.945v-34.04l48.456-54.606h64.108L85.697,88.123l23.099-20.498c-0.053,0.417-0.089,0.838-0.089,1.27v1.995
		c0,5.523,4.478,10,10,10h1.995c5.523,0,10-4.477,10-10v-1.995c0-5.523-4.477-10-10-10h-1.995c-0.026,0-0.051,0.003-0.076,0.004
		l34.19-30.34h8.873c2.384,0,4.317,1.933,4.317,4.317V69.218z M119.704,67.859c1.123,0,2.033,0.91,2.033,2.033
		c0,1.123-0.91,2.033-2.033,2.033s-2.033-0.911-2.033-2.033C117.671,68.769,118.581,67.859,119.704,67.859z"/>
	<path fill="#F2F2F2" d="M83.293,68.895c0-5.523-4.477-10-10-10h-1.995c-5.522,0-10,4.477-10,10v1.995c0,5.523,4.478,10,10,10h1.995
		c5.523,0,10-4.477,10-10V68.895z M72.295,71.925c-1.123,0-2.033-0.911-2.033-2.033c0-1.123,0.911-2.033,2.033-2.033
		c1.123,0,2.033,0.91,2.033,2.033C74.329,71.015,73.418,71.925,72.295,71.925z"/>
	<circle fill="#F2F2F2" cx="85.043" cy="111.476" r="3.25"/>
	<circle fill="#F2F2F2" cx="106.957" cy="111.476" r="3.25"/>
</g>
</svg>
