<?xml version="1.0" encoding="utf-8"?>
<!-- Generator: Adobe Illustrator 16.0.0, SVG Export Plug-In . SVG Version: 6.00 Build 0)  -->
<!DOCTYPE svg PUBLIC "-//W3C//DTD SVG 1.1 Tiny//EN" "http://www.w3.org/Graphics/SVG/1.1/DTD/svg11-tiny.dtd">
<svg version="1.1" baseProfile="tiny" id="Calque_1"
	 xmlns="http://www.w3.org/2000/svg" xmlns:xlink="http://www.w3.org/1999/xlink" x="0px" y="0px" width="192px" height="192px"
	 viewBox="0 0 192 192" xml:space="preserve">
<path fill="#F2F2F2" d="M176.143,11H15.857c-4.471,0-8.096,3.625-8.096,8.095v153.81c0,4.471,3.625,8.095,8.096,8.095h160.285
	c4.471,0,8.096-3.624,8.096-8.095V19.095C184.238,14.625,180.613,11,176.143,11z M30.307,28.558h41.101L25.989,68.861V32.875
	C25.989,30.491,27.922,28.558,30.307,28.558z M161.694,163.442H52.396l61.859-69.71l-78.558,69.71h-5.392
	c-2.385,0-4.317-1.934-4.317-4.318v-32.486l39.38-44.378l-39.38,34.945v-34.04l48.456-54.606h64.108L85.697,88.123l67.124-59.564
	h8.873c2.384,0,4.317,1.933,4.317,4.317v36.342l-62.235,70.134l62.235-55.225v36.001l-15.463,17.424l15.463-13.721v35.293
	C166.012,161.509,164.078,163.442,161.694,163.442z"/>
</svg>
