<?xml version="1.0" encoding="utf-8"?>
<!-- Generator: Adobe Illustrator 16.0.0, SVG Export Plug-In . SVG Version: 6.00 Build 0)  -->
<!DOCTYPE svg PUBLIC "-//W3C//DTD SVG 1.1//EN" "http://www.w3.org/Graphics/SVG/1.1/DTD/svg11.dtd">
<svg version="1.1" id="Calque_1" xmlns="http://www.w3.org/2000/svg" xmlns:xlink="http://www.w3.org/1999/xlink" x="0px" y="0px"
	 width="192px" height="192px" viewBox="0 0 192 192" enable-background="new 0 0 192 192" xml:space="preserve">
<path fill="#F2F2F2" d="M181.084,53.458V13.954c0-1.685-1.352-3.039-3.037-3.039H13.954c-1.684,0-3.039,1.354-3.039,3.039v164.093
	c0,1.686,1.354,3.038,3.039,3.038H71.69c0-1.679,1.361-3.038,3.039-3.038s3.039,1.359,3.039,3.038h36.465
	c0-1.679,1.359-3.038,3.039-3.038s3.039,1.359,3.039,3.038h57.736c1.686,0,3.037-1.353,3.037-3.038V59.535h-3.037v-6.077H181.084z
	 M105.115,165.892c0,5.051-4.064,9.117-9.115,9.117c-5.051,0-9.117-4.066-9.117-9.117v-24.31c0-5.051,4.066-9.116,9.117-9.116
	c5.05,0,9.115,4.065,9.115,9.116V165.892z M96,120.311c-13.428,0-24.311-10.885-24.311-24.31C71.69,82.574,82.573,71.69,96,71.69
	c13.425,0,24.31,10.884,24.31,24.311C120.311,109.426,109.426,120.311,96,120.311z M127.906,111.194
	c-2.516,0-4.559-2.041-4.559-4.559c0-2.516,2.043-4.558,4.559-4.558c2.518,0,4.559,2.042,4.559,4.558
	C132.465,109.153,130.424,111.194,127.906,111.194z M175.008,56.496c0,1.679-1.359,3.039-3.039,3.039H20.031
	c-1.678,0-3.039-1.36-3.039-3.039V20.031c0-1.678,1.36-3.038,3.039-3.038h151.938c1.68,0,3.039,1.36,3.039,3.038V56.496z"/>
</svg>
