<?xml version="1.0" encoding="utf-8"?>
<!-- Generator: Adobe Illustrator 16.0.0, SVG Export Plug-In . SVG Version: 6.00 Build 0)  -->
<!DOCTYPE svg PUBLIC "-//W3C//DTD SVG 1.1//EN" "http://www.w3.org/Graphics/SVG/1.1/DTD/svg11.dtd">
<svg version="1.1" id="Calque_1" xmlns="http://www.w3.org/2000/svg" xmlns:xlink="http://www.w3.org/1999/xlink" x="0px" y="0px"
	 width="192px" height="192px" viewBox="0 0 192 192" enable-background="new 0 0 192 192" xml:space="preserve">
<path fill="#F2F2F2" d="M167.91,11.015H24.089c-7.221,0-13.075,5.854-13.075,13.074v143.822c0,7.221,5.854,13.074,13.075,13.074
	H167.91c7.221,0,13.076-5.854,13.076-13.074V24.089C180.986,16.868,175.131,11.015,167.91,11.015z M153.201,112.343
	c0,2.168-0.859,4.246-2.393,5.779l-18.736,18.736h12.957c4.514,0,8.172,3.658,8.172,8.172s-3.658,8.172-8.172,8.172h-32.686
	c-3.305,0-6.285-1.99-7.551-5.045c-1.264-3.053-0.564-6.568,1.773-8.905l30.291-30.294v-9.573l-51.423,51.423
	c-1.532,1.533-3.611,2.395-5.778,2.395H46.969c-3.305,0-6.285-1.99-7.55-5.045c-1.265-3.053-0.565-6.568,1.772-8.905l84.111-84.11
	h-9.574l-62.981,62.98c-2.336,2.337-5.852,3.035-8.905,1.771c-3.053-1.266-5.044-4.245-5.044-7.551V79.656
	c0-2.167,0.861-4.245,2.394-5.777l18.737-18.737H46.969c-4.513,0-8.171-3.659-8.171-8.172c0-4.514,3.659-8.172,8.171-8.172h32.688
	c3.305,0,6.285,1.991,7.55,5.044c1.265,3.054,0.565,6.569-1.772,8.906L55.141,83.042v9.573l51.425-51.424
	c1.531-1.532,3.609-2.394,5.777-2.394h32.686c3.307,0,6.285,1.99,7.551,5.044s0.566,6.569-1.771,8.906l-84.111,84.11h9.574
	l62.98-62.979c2.336-2.338,5.852-3.037,8.906-1.772c3.053,1.266,5.043,4.245,5.043,7.55V112.343z"/>
</svg>
