<?xml version="1.0" encoding="utf-8"?>
<!-- Generator: Adobe Illustrator 16.0.0, SVG Export Plug-In . SVG Version: 6.00 Build 0)  -->
<!DOCTYPE svg PUBLIC "-//W3C//DTD SVG 1.1 Tiny//EN" "http://www.w3.org/Graphics/SVG/1.1/DTD/svg11-tiny.dtd">
<svg version="1.1" baseProfile="tiny" id="Calque_1"
	 xmlns="http://www.w3.org/2000/svg" xmlns:xlink="http://www.w3.org/1999/xlink" x="0px" y="0px" width="192px" height="192px"
	 viewBox="0 0 192 192" xml:space="preserve">
<path fill="#F2F2F2" d="M96,11.237C25.633,11.237,11.237,25.53,11.237,96c0,70.469,14.167,84.763,84.763,84.763
	c70.6,0,84.762-14.265,84.762-84.763S166.369,11.237,96,11.237z M141.774,109.075c0,1.736-0.687,3.4-1.914,4.627l-14.992,14.995
	h10.369c3.61,0,6.537,2.927,6.537,6.538c0,3.613-2.927,6.54-6.537,6.54H109.08c-2.645,0-5.03-1.595-6.043-4.037
	c-1.012-2.444-0.45-5.257,1.42-7.128l24.241-24.242v-7.66l-41.15,41.15c-1.227,1.229-2.891,1.917-4.625,1.917H56.765
	c-2.645,0-5.029-1.595-6.041-4.037c-1.011-2.444-0.451-5.257,1.419-7.128l67.309-67.308h-7.663l-50.399,50.399
	c-1.867,1.87-4.682,2.428-7.126,1.418c-2.443-1.014-4.037-3.398-4.037-6.045V82.924c0-1.736,0.689-3.399,1.917-4.627l14.994-14.994
	H56.765c-3.609,0-6.539-2.927-6.539-6.538c0-3.614,2.93-6.54,6.539-6.54h26.158c2.645,0,5.029,1.594,6.042,4.036
	c1.013,2.445,0.451,5.255-1.417,7.128L63.305,85.632v7.66l41.152-41.151c1.225-1.228,2.89-1.916,4.623-1.916h26.157
	c2.645,0,5.03,1.592,6.041,4.036c1.011,2.445,0.452,5.255-1.418,7.128l-67.31,67.309h7.663l50.399-50.4
	c1.87-1.87,4.683-2.43,7.126-1.417c2.444,1.013,4.035,3.396,4.035,6.044V109.075z"/>
</svg>
