<?xml version="1.0" encoding="utf-8"?>
<!-- Generator: Adobe Illustrator 16.0.0, SVG Export Plug-In . SVG Version: 6.00 Build 0)  -->
<!DOCTYPE svg PUBLIC "-//W3C//DTD SVG 1.1 Tiny//EN" "http://www.w3.org/Graphics/SVG/1.1/DTD/svg11-tiny.dtd">
<svg version="1.1" baseProfile="tiny" id="Calque_1"
	 xmlns="http://www.w3.org/2000/svg" xmlns:xlink="http://www.w3.org/1999/xlink" x="0px" y="0px" width="192px" height="192px"
	 viewBox="0 0 192 192" xml:space="preserve">
<path fill="#F2F2F2" d="M181.136,96.925c-0.048-9.205-1.558-27.957-2.873-33.947c-1.314-5.991-3.02-5.504-8.62-6.429
	c-1.574-0.26-6.15-0.72-12.458-1.247l-3.222,8.416c-0.187-0.094-0.379-0.181-0.579-0.257c-0.394-0.15-0.808-0.226-1.229-0.226
	c-0.052,0-0.102,0.009-0.153,0.012l3.107-8.115c-16.343-1.324-42.293-2.966-59.108-2.966c-10.023,0-23.291,0.583-35.836,1.335
	L60.1,52.475l-14.509,0.933l0.068,1.053c-4.352,0.315-8.358,0.63-11.801,0.922l17.197,45.377
	c5.059,13.297,12.019,16.105,22.331,16.463c10.775,0.375,31.146,0.375,41.919,0c10.313-0.357,17.274-3.166,22.333-16.465
	l10.35-27.028c0.333,0.331,0.734,0.602,1.2,0.779c0.189,0.072,0.387,0.11,0.58,0.163l-10.262,26.8
	c-5.41,14.227-13.56,17.385-24.131,17.752c-5.405,0.188-13.217,0.281-21.029,0.281s-15.624-0.094-21.028-0.281
	c-10.571-0.367-18.721-3.525-24.133-17.754L31.787,55.562c-4.729,0.417-8.12,0.771-9.429,0.987
	c-5.601,0.925-7.306,0.438-8.621,6.429c-1.314,5.991-2.824,24.742-2.873,33.947c-0.049,9.206,0,16.95,1.266,27.42
	c1.268,10.473,8.621,13.102,22.21,14.174c13.589,1.07,50.337,1.314,61.661,1.314c11.323,0,48.071-0.244,61.66-1.314
	c13.588-1.072,20.942-3.701,22.209-14.174C181.137,113.875,181.186,106.131,181.136,96.925z M127.707,106.959
	c0,0.807-0.653,1.461-1.461,1.461H65.755c-0.808,0-1.461-0.654-1.461-1.461v-45.15c0-0.807,0.653-1.461,1.461-1.461h60.491
	c0.808,0,1.461,0.654,1.461,1.461V106.959z M39.454,89.06c0,0.807-0.654,1.461-1.461,1.461H34.12c-0.806,0-1.46,0.654-1.461,1.46
	v3.874c0,0.807-0.654,1.46-1.461,1.46h-3.141c-0.808,0-1.462-0.654-1.462-1.46v-3.872c0-0.807-0.653-1.461-1.461-1.461h-3.872
	c-0.807,0-1.461-0.654-1.461-1.461v-3.142c0-0.807,0.654-1.461,1.461-1.461h3.872c0.808,0,1.461-0.654,1.461-1.46v-3.873
	c0-0.807,0.654-1.461,1.462-1.461h3.141c0.807,0,1.461,0.654,1.461,1.461v3.872c0,0.807,0.655,1.461,1.461,1.461h3.873
	c0.807,0,1.461,0.654,1.461,1.461V89.06z M149.052,70.754l1.737-4.576c0.287-0.755,1.131-1.134,1.885-0.848
	c2.019,0.766,3.033,3.023,2.268,5.041c-0.767,2.018-3.023,3.033-5.042,2.267C149.146,72.352,148.766,71.508,149.052,70.754z
	 M151.89,96.438c-2.542,0-4.604-2.061-4.604-4.603c0-2.542,2.062-4.603,4.604-4.603s4.603,2.061,4.603,4.603
	C156.492,94.377,154.432,96.438,151.89,96.438z M164.312,86.646c-2.542,0-4.603-2.061-4.603-4.603c0-2.542,2.061-4.603,4.603-4.603
	s4.603,2.061,4.603,4.603C168.914,84.586,166.854,86.646,164.312,86.646z"/>
</svg>
