<?xml version="1.0" encoding="utf-8"?>
<!-- Generator: Adobe Illustrator 16.0.0, SVG Export Plug-In . SVG Version: 6.00 Build 0)  -->
<!DOCTYPE svg PUBLIC "-//W3C//DTD SVG 1.1 Tiny//EN" "http://www.w3.org/Graphics/SVG/1.1/DTD/svg11-tiny.dtd">
<svg version="1.1" baseProfile="tiny" id="Calque_1"
	 xmlns="http://www.w3.org/2000/svg" xmlns:xlink="http://www.w3.org/1999/xlink" x="0px" y="0px" width="192px" height="192px"
	 viewBox="0 0 192 192" xml:space="preserve">
<path fill="#F2F2F2" d="M181.104,96.925c-0.048-9.201-1.558-27.946-2.872-33.935c-1.314-5.988-3.019-5.501-8.618-6.427
	c-1.572-0.26-6.14-0.718-12.438-1.245l-3.489,9.091c-0.23-0.126-0.47-0.242-0.722-0.334c-0.306-0.111-0.624-0.168-0.948-0.168
	c-0.078,0-0.154,0.011-0.231,0.018l3.367-8.773c-16.333-1.324-42.32-2.971-59.152-2.971c-10.019,0-23.28,0.583-35.821,1.335
	l-0.065-1.025l-14.503,0.933l0.067,1.053c-4.449,0.322-8.539,0.645-12.032,0.941l17.401,45.345
	c5.042,13.25,12.289,16.129,22.349,16.477c10.77,0.375,31.135,0.375,41.904,0c10.06-0.348,17.307-3.227,22.348-16.475l10.626-27.689
	c0.302,0.344,0.678,0.619,1.12,0.78c0.197,0.072,0.398,0.127,0.601,0.174l-10.526,27.43c-5.423,14.254-13.242,17.352-24.1,17.727
	c-5.403,0.189-13.211,0.281-21.021,0.281c-7.809,0-15.617-0.092-21.02-0.281c-10.857-0.375-18.677-3.473-24.101-17.729
	L31.624,55.594c-4.632,0.409-7.947,0.757-9.238,0.97c-5.599,0.925-7.303,0.438-8.617,6.427c-1.314,5.989-2.824,24.733-2.872,33.935
	c-0.05,9.202,0,16.944,1.265,27.411c1.266,10.467,8.618,13.098,22.201,14.168s50.318,1.314,61.637,1.314
	c11.32,0,48.054-0.244,61.638-1.314s20.936-3.701,22.201-14.168C181.104,113.869,181.152,106.127,181.104,96.925z M127.695,106.955
	c0,0.807-0.654,1.461-1.461,1.461H65.766c-0.808,0-1.461-0.654-1.461-1.461V61.822c0-0.806,0.653-1.46,1.461-1.46h60.469
	c0.807,0,1.461,0.654,1.461,1.46V106.955z M39.476,89.063c0,0.807-0.655,1.46-1.461,1.46h-3.871c-0.807,0-1.459,0.653-1.461,1.459
	v3.872c0,0.807-0.653,1.46-1.46,1.46h-3.141c-0.807,0-1.461-0.654-1.461-1.46v-3.87c0-0.807-0.653-1.461-1.46-1.461H21.29
	c-0.807,0-1.461-0.653-1.461-1.46v-3.141c0-0.807,0.654-1.461,1.461-1.461h3.871c0.807,0,1.46-0.653,1.46-1.46V79.13
	c0-0.807,0.654-1.46,1.461-1.46h3.141c0.807,0,1.46,0.654,1.46,1.46V83c0,0.808,0.654,1.461,1.461,1.461h3.871
	c0.806,0,1.461,0.654,1.461,1.461V89.063z M149.838,72.636c-0.758-0.276-1.148-1.115-0.872-1.873l1.679-4.596
	c0.276-0.758,1.115-1.148,1.873-0.871c2.026,0.74,3.07,2.983,2.33,5.009C154.107,72.333,151.864,73.375,149.838,72.636z
	 M151.867,96.438c-2.54,0-4.601-2.06-4.601-4.601s2.061-4.601,4.601-4.601c2.542,0,4.602,2.06,4.602,4.601
	S154.409,96.438,151.867,96.438z M164.285,86.65c-2.541,0-4.601-2.06-4.601-4.601c0-2.541,2.06-4.601,4.601-4.601
	s4.601,2.06,4.601,4.601C168.886,84.59,166.826,86.65,164.285,86.65z"/>
</svg>
