<?xml version="1.0" encoding="utf-8"?>
<!-- Generator: Adobe Illustrator 16.0.0, SVG Export Plug-In . SVG Version: 6.00 Build 0)  -->
<!DOCTYPE svg PUBLIC "-//W3C//DTD SVG 1.1//EN" "http://www.w3.org/Graphics/SVG/1.1/DTD/svg11.dtd">
<svg version="1.1" id="Calque_1" xmlns="http://www.w3.org/2000/svg" xmlns:xlink="http://www.w3.org/1999/xlink" x="0px" y="0px"
	 width="192px" height="192px" viewBox="0 0 192 192" enable-background="new 0 0 192 192" xml:space="preserve">
<path fill="#F2F2F2" d="M181.055,96.924c-0.048-9.196-1.557-27.93-2.87-33.915c-1.314-5.985-3.018-5.499-8.613-6.423
	S120.378,52.208,96,52.208c-10.014,0-23.269,0.583-35.801,1.334l-0.066-1.024l-14.494,0.932l0.067,1.052
	c-11.687,0.846-20.903,1.694-23.277,2.086c-5.596,0.924-7.299,0.438-8.612,6.423c-1.314,5.985-2.822,24.718-2.871,33.915
	c-0.049,9.197,0,16.933,1.266,27.394c1.265,10.463,8.612,13.09,22.188,14.16c13.576,1.07,50.288,1.314,61.602,1.314
	c11.313,0,48.026-0.244,61.601-1.314s20.923-3.697,22.188-14.16C181.056,113.857,181.104,106.121,181.055,96.924z M39.508,89.066
	c0,0.806-0.653,1.459-1.46,1.459H34.18c-0.807,0-1.459,0.653-1.46,1.458v3.87c0,0.807-0.653,1.46-1.46,1.46h-3.138
	c-0.807,0-1.46-0.654-1.46-1.46v-3.868c0-0.807-0.654-1.46-1.46-1.46h-3.868c-0.807,0-1.46-0.653-1.46-1.459v-3.139
	c0-0.806,0.653-1.459,1.46-1.459h3.868c0.807,0,1.459-0.654,1.46-1.459V79.14c0-0.806,0.653-1.46,1.46-1.46h3.138
	c0.807,0,1.46,0.654,1.46,1.46v3.868c0,0.806,0.653,1.46,1.46,1.46h3.868c0.807,0,1.46,0.653,1.46,1.459V89.066z M149.585,70.778
	l1.519-4.648c0.251-0.767,1.074-1.185,1.841-0.935c2.05,0.669,3.17,2.875,2.5,4.924s-2.875,3.169-4.925,2.5
	C149.754,72.369,149.335,71.544,149.585,70.778z M127.677,106.947c0,0.807-0.653,1.461-1.459,1.461H65.784
	c-0.807,0-1.46-0.654-1.46-1.461V61.842c0-0.807,0.653-1.46,1.46-1.46h60.434c0.806,0,1.459,0.653,1.459,1.46V106.947z
	 M151.836,96.438c-2.539,0-4.599-2.059-4.599-4.598s2.06-4.598,4.599-4.598c2.54,0,4.599,2.059,4.599,4.598
	S154.376,96.438,151.836,96.438z M164.246,86.656c-2.539,0-4.599-2.059-4.599-4.598s2.06-4.598,4.599-4.598s4.599,2.059,4.599,4.598
	S166.785,86.656,164.246,86.656z"/>
</svg>
