<?xml version="1.0" encoding="utf-8"?>
<!-- Generator: Adobe Illustrator 16.0.0, SVG Export Plug-In . SVG Version: 6.00 Build 0)  -->
<!DOCTYPE svg PUBLIC "-//W3C//DTD SVG 1.1//EN" "http://www.w3.org/Graphics/SVG/1.1/DTD/svg11.dtd">
<svg version="1.1" id="Calque_1" xmlns="http://www.w3.org/2000/svg" xmlns:xlink="http://www.w3.org/1999/xlink" x="0px" y="0px"
	 width="192px" height="192px" viewBox="0 0 192 192" enable-background="new 0 0 192 192" xml:space="preserve">
<path fill="#F2F2F2" d="M168.477,11.136H96H23.523c-8.496,0-12.159,5.896-12.159,20.282v47.246c0,1.929,1.208,3.565,2.908,4.221
	v93.446c0,2.504,2.028,4.533,4.531,4.533h154.394c2.504,0,4.531-2.029,4.531-4.533V82.885c1.697-0.655,2.908-2.292,2.908-4.221
	V31.418C180.637,17.032,176.973,11.136,168.477,11.136z M56.344,34.93h79.312v2.266H56.344V34.93z M56.344,39.688h79.312v2.266
	H56.344V39.688z M165.189,78.135v18.733v45.471c0,2.504-2.029,4.532-4.531,4.532H31.341c-2.504,0-4.531-2.028-4.531-4.532V96.868
	V78.135v-12.84c0-10.013,8.116-18.13,18.129-18.13h102.122c10.014,0,18.129,8.117,18.129,18.13V78.135z"/>
</svg>
