<?xml version="1.0" encoding="utf-8"?>
<!-- Generator: Adobe Illustrator 16.0.0, SVG Export Plug-In . SVG Version: 6.00 Build 0)  -->
<!DOCTYPE svg PUBLIC "-//W3C//DTD SVG 1.1//EN" "http://www.w3.org/Graphics/SVG/1.1/DTD/svg11.dtd">
<svg version="1.1" id="Calque_1" xmlns="http://www.w3.org/2000/svg" xmlns:xlink="http://www.w3.org/1999/xlink" x="0px" y="0px"
	 width="192px" height="192px" viewBox="0 0 192 192" enable-background="new 0 0 192 192" xml:space="preserve">
<g id="layer2_3_" inkscape:label="logo" inkscape:groupmode="layer">
	<rect id="rect3861" x="68.581" y="32.935" fill="#F2F2F2" width="54.839" height="49.355"/>
	<path fill="#F2F2F2" d="M142.887,11H49.115c-2.878,0-5.212,2.333-5.212,5.212v159.577c0,2.876,2.334,5.211,5.212,5.211h68.821
		c16.658,0,30.162-13.504,30.162-30.161V16.212C148.098,13.333,145.762,11,142.887,11z M76.806,129.766
		c0,1.039-0.773,1.88-1.729,1.88h-6.497v6.55c0,0.926-0.704,1.676-1.571,1.676h-5.082c-0.868,0-1.572-0.75-1.572-1.676v-6.55h-6.498
		c-0.954,0-1.729-0.841-1.729-1.88v-4.467c0-1.039,0.774-1.879,1.729-1.879h6.498v-6.551c0-0.926,0.704-1.676,1.572-1.676h5.082
		c0.867,0,1.571,0.75,1.571,1.676v6.551h6.497c0.955,0,1.729,0.84,1.729,1.879V129.766z M87.105,150.689l-8.398,5.428
		c-0.623,0.4-1.402,0.194-1.742-0.464c-0.339-0.659-0.109-1.521,0.514-1.923l8.396-5.431c0.623-0.401,1.401-0.192,1.742,0.466
		C87.957,149.426,87.726,150.284,87.105,150.689z M93.258,90.517H54.738c-1.439,0-2.609-1.169-2.609-2.61V71.19V41.161V24.709
		c0-1.514,1.229-2.742,2.742-2.742h38.388h30.162h13.709c1.516,0,2.742,1.228,2.742,2.742v13.71V71.19v2.875
		c0,9.085-7.367,16.452-16.451,16.452H93.39H93.258z M123.42,127.532c0,3.786-3.068,6.854-6.855,6.854
		c-3.785,0-6.855-3.068-6.855-6.854s3.07-6.854,6.855-6.854C120.352,120.678,123.42,123.746,123.42,127.532z M106.299,150.689
		l-8.398,5.428c-0.623,0.403-1.403,0.194-1.743-0.464c-0.34-0.659-0.109-1.521,0.512-1.923l8.397-5.428
		c0.625-0.401,1.404-0.195,1.744,0.463C107.15,149.426,106.92,150.287,106.299,150.689z M135.758,126.161
		c-3.785,0-6.855-3.069-6.855-6.854c0-3.787,3.07-6.855,6.855-6.855c3.787,0,6.855,3.068,6.855,6.855
		C142.613,123.092,139.545,126.161,135.758,126.161z"/>
</g>
</svg>
