<?xml version="1.0" encoding="utf-8"?>
<!-- Generator: Adobe Illustrator 16.0.0, SVG Export Plug-In . SVG Version: 6.00 Build 0)  -->
<!DOCTYPE svg PUBLIC "-//W3C//DTD SVG 1.1//EN" "http://www.w3.org/Graphics/SVG/1.1/DTD/svg11.dtd">
<svg version="1.1" id="Calque_1" xmlns="http://www.w3.org/2000/svg" xmlns:xlink="http://www.w3.org/1999/xlink" x="0px" y="0px"
	 width="192px" height="192px" viewBox="0 0 192 192" enable-background="new 0 0 192 192" xml:space="preserve">
<g id="gb">
	<path fill="#F2F2F2" d="M142.271,11H49.729c-2.984,0-5.404,2.419-5.404,5.404v159.191c0,2.984,2.42,5.404,5.404,5.404h78.133
		c10.943,0,19.814-8.871,19.814-19.814V16.404C147.676,13.419,145.256,11,142.271,11z M79.169,129.381
		c0,1.491-1.21,2.701-2.702,2.701h-5.798v5.798c0,1.492-1.21,2.702-2.702,2.702H63.07c-1.493,0-2.702-1.21-2.702-2.702v-5.798
		h-5.798c-1.492,0-2.702-1.21-2.702-2.701v-4.898c0-1.491,1.21-2.701,2.702-2.701h5.798v-5.799c0-1.491,1.209-2.701,2.702-2.701
		h4.897c1.492,0,2.702,1.21,2.702,2.701v5.799h5.798c1.492,0,2.702,1.21,2.702,2.701V129.381z M114.9,136.275
		c-3.326,0-6.023-2.697-6.023-6.023s2.697-6.023,6.023-6.023c3.328,0,6.023,2.697,6.023,6.023S118.229,136.275,114.9,136.275z
		 M52.967,99.34c-1.375,0-2.488-1.114-2.488-2.488V23.546c0-1.374,1.114-2.488,2.488-2.488h86.257c1.375,0,2.49,1.114,2.49,2.488
		v66.67c0,5.04-4.086,9.124-9.125,9.124H52.967z M133.973,130.013c-3.326,0-6.023-2.696-6.023-6.022
		c0-3.327,2.697-6.023,6.023-6.023s6.023,2.696,6.023,6.023C139.996,127.316,137.299,130.013,133.973,130.013z"/>
</g>
</svg>
