<?xml version="1.0" encoding="utf-8"?>
<!-- Generator: Adobe Illustrator 16.0.0, SVG Export Plug-In . SVG Version: 6.00 Build 0)  -->
<!DOCTYPE svg PUBLIC "-//W3C//DTD SVG 1.1//EN" "http://www.w3.org/Graphics/SVG/1.1/DTD/svg11.dtd">
<svg version="1.1" id="Calque_1" xmlns="http://www.w3.org/2000/svg" xmlns:xlink="http://www.w3.org/1999/xlink" x="0px" y="0px"
	 width="192px" height="192px" viewBox="0 0 192 192" enable-background="new 0 0 192 192" xml:space="preserve">
<path fill="#F2F2F2" d="M137.131,10.999h-82.26c-4.543,0-8.227,3.683-8.227,8.226v148.067c0,18.278,98.711,18.278,98.711,0V19.225
	C145.355,14.682,141.672,10.999,137.131,10.999z M80.919,127.533c0,1.516-1.229,2.742-2.742,2.742h-4.113v4.113
	c0,1.516-1.228,2.742-2.742,2.742h-5.484c-1.514,0-2.741-1.227-2.741-2.742v-4.113h-4.113c-1.515,0-2.741-1.227-2.741-2.742v-5.484
	c0-1.516,1.227-2.742,2.741-2.742h4.113v-4.112c0-1.516,1.228-2.742,2.741-2.742h5.484c1.515,0,2.742,1.227,2.742,2.742v4.112h4.113
	c1.514,0,2.742,1.227,2.742,2.742V127.533z M115.193,131.646c-3.027,0-5.482-2.455-5.482-5.484c0-3.028,2.455-5.484,5.482-5.484
	c3.029,0,5.484,2.456,5.484,5.484C120.678,129.191,118.223,131.646,115.193,131.646z M131.646,126.162
	c-3.029,0-5.484-2.455-5.484-5.484c0-3.027,2.455-5.483,5.484-5.483c3.027,0,5.484,2.456,5.484,5.483
	C137.131,123.707,134.674,126.162,131.646,126.162z M139.873,87.097c0,3.404-2.76,6.162-6.162,6.162h0.678
	c-25.594,3.132-51.184,2.966-76.776,0h0.677c-3.403,0-6.161-2.758-6.161-6.162V24.505c0-2.916,2.364-5.28,5.28-5.28h77.183
	c2.916,0,5.281,2.364,5.281,5.28V87.097z"/>
</svg>
