<?xml version="1.0" encoding="utf-8"?>
<!-- Generator: Adobe Illustrator 16.0.0, SVG Export Plug-In . SVG Version: 6.00 Build 0)  -->
<!DOCTYPE svg PUBLIC "-//W3C//DTD SVG 1.1//EN" "http://www.w3.org/Graphics/SVG/1.1/DTD/svg11.dtd">
<svg version="1.1" id="Calque_1" xmlns="http://www.w3.org/2000/svg" xmlns:xlink="http://www.w3.org/1999/xlink" x="0px" y="0px"
	 width="192px" height="192px" viewBox="0 0 192 192" enable-background="new 0 0 192 192" xml:space="preserve">
<g id="layer5" inkscape:label="logo" inkscape:groupmode="layer">
	<rect id="rect3786" x="68.58" y="27.45" fill="#F2F2F2" width="54.84" height="49.356"/>
	<path fill="#F2F2F2" d="M137.13,10.999H54.87c-4.543,0-8.226,3.683-8.226,8.226v148.067c0,18.279,98.711,18.279,98.711,0V19.225
		C145.355,14.682,141.672,10.999,137.13,10.999z M80.919,127.534c0,1.516-1.229,2.742-2.742,2.742h-4.113v4.113
		c0,1.514-1.228,2.742-2.742,2.742h-5.484c-1.514,0-2.742-1.229-2.742-2.742v-4.113h-4.113c-1.515,0-2.742-1.227-2.742-2.742v-5.484
		c0-1.516,1.228-2.742,2.742-2.742h4.113v-4.113c0-1.516,1.228-2.742,2.742-2.742h5.484c1.514,0,2.742,1.227,2.742,2.742v4.113
		h4.113c1.514,0,2.742,1.227,2.742,2.742V127.534z M91.887,153.583h-5.484c-0.758,0-1.371-0.613-1.371-1.371
		s0.613-1.371,1.371-1.371h5.484c0.758,0,1.371,0.613,1.371,1.371S92.645,153.583,91.887,153.583z M108.34,153.583h-5.484
		c-0.758,0-1.371-0.613-1.371-1.371s0.613-1.371,1.371-1.371h5.484c0.758,0,1.37,0.613,1.37,1.371S109.098,153.583,108.34,153.583z
		 M115.193,131.647c-3.027,0-5.483-2.455-5.483-5.484s2.456-5.484,5.483-5.484c3.029,0,5.484,2.455,5.484,5.484
		S118.223,131.647,115.193,131.647z M131.646,126.163c-3.029,0-5.484-2.455-5.484-5.484c0-3.027,2.455-5.484,5.484-5.484
		c3.028,0,5.483,2.457,5.483,5.484C137.13,123.708,134.675,126.163,131.646,126.163z M139.872,80.226v5.011v1.861
		c0,3.402-2.759,6.161-6.161,6.161h0.678c-25.594,3.133-51.184,2.965-76.777,0h0.678c-3.403,0-6.162-2.759-6.162-6.161v-1.861
		v-5.011v-55.72c0-2.917,2.365-5.281,5.28-5.281h77.184c2.916,0,5.28,2.364,5.28,5.281V80.226z"/>
</g>
</svg>
