<?xml version="1.0" encoding="utf-8"?>
<!-- Generator: Adobe Illustrator 16.0.0, SVG Export Plug-In . SVG Version: 6.00 Build 0)  -->
<!DOCTYPE svg PUBLIC "-//W3C//DTD SVG 1.1//EN" "http://www.w3.org/Graphics/SVG/1.1/DTD/svg11.dtd">
<svg version="1.1" id="Calque_1" xmlns="http://www.w3.org/2000/svg" xmlns:xlink="http://www.w3.org/1999/xlink" x="0px" y="0px"
	 width="192px" height="192px" viewBox="0 0 192 192" enable-background="new 0 0 192 192" xml:space="preserve">
<path fill="#F2F2F2" d="M170.629,57.303h-27.64l-8.293,2.764H57.303l-8.292-2.764H21.371c-13.82,27.641-13.82,49.753,0,77.394
	h27.641l8.292-2.764h77.393l8.293,2.764h27.64C184.45,107.057,184.45,84.944,170.629,57.303z M42.101,98.764
	c0,0.764-0.619,1.383-1.382,1.383h-5.528v5.527c0,0.764-0.619,1.383-1.382,1.383h-5.528c-0.764,0-1.382-0.619-1.382-1.383v-5.527
	h-5.528c-0.764,0-1.382-0.619-1.382-1.383v-5.528c0-0.764,0.618-1.382,1.382-1.382h5.528v-5.528c0-0.764,0.618-1.382,1.382-1.382
	h5.528c0.763,0,1.382,0.618,1.382,1.382v5.528h5.528c0.763,0,1.382,0.618,1.382,1.382V98.764z M60.067,66.287
	c-0.382,0-0.69-0.31-0.69-0.691c0-0.382,0.309-0.691,0.69-0.691s0.691,0.309,0.691,0.691C60.758,65.977,60.449,66.287,60.067,66.287
	z M120.876,112.584H71.124V79.416h49.752V112.584z M141.196,66.371l8.012-2.148c0.734-0.197,1.496,0.241,1.689,0.979l2.148,8.008
	c0.197,0.737-0.239,1.496-0.977,1.693l-8.012,2.145c-0.734,0.199-1.495-0.239-1.689-0.977l-2.148-8.009
	C140.022,67.326,140.46,66.567,141.196,66.371z M153.046,118.791l-2.143,8.008c-0.199,0.74-0.955,1.178-1.695,0.977l-8.008-2.146
	c-0.738-0.195-1.175-0.951-0.979-1.691l2.146-8.008c0.197-0.738,0.955-1.176,1.692-0.979l8.009,2.146
	C152.809,117.295,153.246,118.053,153.046,118.791z M157.217,62.077l8.009-2.146c0.739-0.197,1.495,0.24,1.695,0.977l2.143,8.01
	c0.2,0.737-0.237,1.495-0.977,1.692l-8.009,2.146c-0.737,0.198-1.495-0.24-1.692-0.978l-2.146-8.01
	C156.042,63.032,156.479,62.275,157.217,62.077z M169.066,123.082l-2.146,8.008c-0.197,0.74-0.956,1.178-1.693,0.977l-8.008-2.143
	c-0.74-0.199-1.178-0.955-0.978-1.695l2.144-8.008c0.199-0.736,0.955-1.174,1.694-0.977l8.009,2.145
	C168.826,121.59,169.264,122.346,169.066,123.082z"/>
</svg>
