<?xml version="1.0" encoding="utf-8"?>
<!-- Generator: Adobe Illustrator 16.0.0, SVG Export Plug-In . SVG Version: 6.00 Build 0)  -->
<!DOCTYPE svg PUBLIC "-//W3C//DTD SVG 1.1 Tiny//EN" "http://www.w3.org/Graphics/SVG/1.1/DTD/svg11-tiny.dtd">
<svg version="1.1" baseProfile="tiny" id="Calque_1"
	 xmlns="http://www.w3.org/2000/svg" xmlns:xlink="http://www.w3.org/1999/xlink" x="0px" y="0px" width="192px" height="192px"
	 viewBox="0 0 192 192" xml:space="preserve">
<path fill="#F2F2F2" d="M173.259,62.862c-0.812-1.831-3.273-5.561-11.543-5.561c-5.73,0-12.51,0-16.133,0
	c-1.606,0-2.683-0.012-4.38,0.596l-5.054,1.685c-1.445,0.482-2.769,0.484-3.726,0.484H59.575c-0.956,0-2.28-0.002-3.726-0.484
	l-5.054-1.685c-1.696-0.607-2.773-0.596-4.379-0.596c-3.623,0-10.403,0-16.134,0c-8.27,0-10.731,3.73-11.543,5.561
	C13.58,74.502,11.003,85.251,11.003,96s2.577,21.498,7.737,33.138c0.812,1.831,3.273,5.562,11.543,5.562c5.73,0,12.511,0,16.134,0
	c1.605,0,2.683,0.012,4.379-0.596l5.054-1.685c1.445-0.482,2.77-0.484,3.726-0.484h72.849c0.957,0,2.28,0.002,3.726,0.484
	l5.054,1.685c1.697,0.607,2.773,0.596,4.38,0.596c3.623,0,10.402,0,16.133,0c8.27,0,10.731-3.73,11.543-5.562
	c5.16-11.64,7.738-22.389,7.738-33.138S178.419,74.502,173.259,62.862z M42.098,98.765c0,0.766-0.617,1.382-1.382,1.382h-5.528
	v5.528c0,0.767-0.618,1.382-1.383,1.382h-5.527c-0.765,0-1.383-0.615-1.383-1.382v-5.528h-5.528c-0.764,0-1.382-0.616-1.382-1.382
	v-5.529c0-0.761,0.618-1.382,1.382-1.382h5.528v-5.528c0-0.761,0.618-1.382,1.383-1.382h5.527c0.765,0,1.383,0.621,1.383,1.382
	v5.528h5.528c0.765,0,1.382,0.621,1.382,1.382V98.765z M53.645,87.408l0.914-6.473c0.039-0.275,0.294-0.467,0.568-0.427l1.576,0.222
	c0.275,0.039,0.467,0.293,0.429,0.568l-0.915,6.473c-0.038,0.275-0.293,0.467-0.567,0.427l-1.577-0.222
	C53.797,87.938,53.605,87.683,53.645,87.408z M53.277,99.167V92.63c0-0.278,0.225-0.503,0.503-0.503h1.593
	c0.277,0,0.503,0.225,0.503,0.503v6.537c0,0.277-0.226,0.503-0.503,0.503H53.78C53.502,99.67,53.277,99.444,53.277,99.167z
	 M56.741,111.267l-1.576,0.227c-0.274,0.039-0.529-0.152-0.569-0.427l-0.93-6.472c-0.04-0.274,0.151-0.529,0.426-0.568l1.576-0.227
	c0.274-0.04,0.529,0.15,0.569,0.426l0.931,6.471C57.207,110.972,57.017,111.227,56.741,111.267z M120.878,112.585H71.122v-33.17
	h49.756V112.585z M135.296,80.73l1.576-0.222c0.275-0.04,0.529,0.152,0.568,0.427l0.914,6.473c0.039,0.275-0.152,0.529-0.427,0.568
	l-1.577,0.222c-0.275,0.04-0.529-0.152-0.568-0.427l-0.914-6.473C134.829,81.023,135.021,80.769,135.296,80.73z M138.333,104.595
	l-0.93,6.472c-0.039,0.274-0.294,0.466-0.569,0.427l-1.576-0.227c-0.275-0.04-0.466-0.295-0.427-0.57l0.931-6.471
	c0.04-0.275,0.294-0.466,0.569-0.426l1.576,0.227C138.183,104.065,138.373,104.32,138.333,104.595z M138.722,99.167
	c0,0.277-0.225,0.503-0.502,0.503h-1.594c-0.277,0-0.502-0.226-0.502-0.503V92.63c0-0.278,0.225-0.503,0.502-0.503h1.594
	c0.277,0,0.502,0.225,0.502,0.503V99.167z M146.636,66.286c2.402,0,4.35,1.947,4.35,4.35s-1.947,4.35-4.35,4.35
	s-4.35-1.948-4.35-4.35S144.233,66.286,146.636,66.286z M146.638,125.716c-2.402,0-4.35-1.947-4.35-4.35s1.947-4.35,4.35-4.35
	s4.35,1.947,4.35,4.35S149.04,125.716,146.638,125.716z M162.656,61.994c2.402,0,4.35,1.948,4.35,4.35s-1.947,4.35-4.35,4.35
	c-2.401,0-4.35-1.948-4.35-4.35S160.255,61.994,162.656,61.994z M162.657,130.009c-2.401,0-4.349-1.948-4.349-4.35
	c0-2.402,1.947-4.35,4.349-4.35c2.402,0,4.35,1.947,4.35,4.35C167.007,128.061,165.06,130.009,162.657,130.009z"/>
</svg>
