<?xml version="1.0" encoding="utf-8"?>
<!-- Generator: Adobe Illustrator 16.0.0, SVG Export Plug-In . SVG Version: 6.00 Build 0)  -->
<!DOCTYPE svg PUBLIC "-//W3C//DTD SVG 1.1//EN" "http://www.w3.org/Graphics/SVG/1.1/DTD/svg11.dtd">
<svg version="1.1" id="Calque_1" xmlns="http://www.w3.org/2000/svg" xmlns:xlink="http://www.w3.org/1999/xlink" x="0px" y="0px"
	 width="192px" height="192px" viewBox="0 0 192 192" enable-background="new 0 0 192 192" xml:space="preserve">
<path fill="#F2F2F2" d="M177.73,11H14.27C12.464,11,11,12.464,11,14.269v163.462c0,1.807,1.464,3.269,3.27,3.269H177.73
	c1.807,0,3.27-1.462,3.27-3.269V14.269C181,12.464,179.537,11,177.73,11z M19.173,176.097c0,0.902-0.731,1.635-1.635,1.635
	s-1.635-0.732-1.635-1.635V159.75c0-0.903,0.731-1.634,1.635-1.634s1.635,0.73,1.635,1.634V176.097z M25.711,176.097
	c0,0.902-0.731,1.635-1.634,1.635c-0.904,0-1.635-0.732-1.635-1.635V159.75c0-0.903,0.731-1.634,1.635-1.634
	c0.903,0,1.634,0.73,1.634,1.634V176.097z M32.25,176.097c0,0.902-0.731,1.635-1.635,1.635c-0.903,0-1.634-0.732-1.634-1.635V159.75
	c0-0.903,0.731-1.634,1.634-1.634c0.904,0,1.635,0.73,1.635,1.634V176.097z M38.789,172.827c0,0.903-0.731,1.635-1.635,1.635
	c-0.903,0-1.634-0.731-1.634-1.635V159.75c0-0.903,0.731-1.634,1.634-1.634c0.904,0,1.635,0.73,1.635,1.634V172.827z
	 M45.327,172.827c0,0.903-0.731,1.635-1.635,1.635s-1.635-0.731-1.635-1.635V159.75c0-0.903,0.731-1.634,1.635-1.634
	s1.635,0.73,1.635,1.634V172.827z M51.865,172.827c0,0.903-0.731,1.635-1.634,1.635c-0.904,0-1.635-0.731-1.635-1.635V159.75
	c0-0.903,0.731-1.634,1.635-1.634c0.903,0,1.634,0.73,1.634,1.634V172.827z M58.404,172.827c0,0.903-0.731,1.635-1.634,1.635
	c-0.904,0-1.635-0.731-1.635-1.635V159.75c0-0.903,0.731-1.634,1.635-1.634c0.903,0,1.634,0.73,1.634,1.634V172.827z
	 M64.942,172.827c0,0.903-0.731,1.635-1.635,1.635c-0.903,0-1.634-0.731-1.634-1.635V159.75c0-0.903,0.731-1.634,1.634-1.634
	c0.904,0,1.635,0.73,1.635,1.634V172.827z M71.481,172.827c0,0.903-0.731,1.635-1.635,1.635s-1.635-0.731-1.635-1.635V159.75
	c0-0.903,0.731-1.634,1.635-1.634s1.635,0.73,1.635,1.634V172.827z M78.02,172.827c0,0.903-0.731,1.635-1.635,1.635
	c-0.904,0-1.635-0.731-1.635-1.635V159.75c0-0.903,0.731-1.634,1.635-1.634c0.903,0,1.635,0.73,1.635,1.634V172.827z
	 M84.558,172.827c0,0.903-0.731,1.635-1.634,1.635c-0.904,0-1.635-0.731-1.635-1.635V159.75c0-0.903,0.731-1.634,1.635-1.634
	c0.903,0,1.634,0.73,1.634,1.634V172.827z M91.096,172.827c0,0.903-0.731,1.635-1.635,1.635c-0.903,0-1.634-0.731-1.634-1.635
	V159.75c0-0.903,0.731-1.634,1.634-1.634c0.904,0,1.635,0.73,1.635,1.634V172.827z M97.635,172.827c0,0.903-0.731,1.635-1.634,1.635
	c-0.904,0-1.635-0.731-1.635-1.635V159.75c0-0.903,0.73-1.634,1.635-1.634c0.903,0,1.634,0.73,1.634,1.634V172.827z
	 M104.174,172.827c0,0.903-0.732,1.635-1.635,1.635c-0.904,0-1.635-0.731-1.635-1.635V159.75c0-0.903,0.73-1.634,1.635-1.634
	c0.902,0,1.635,0.73,1.635,1.634V172.827z M110.711,172.827c0,0.903-0.73,1.635-1.635,1.635c-0.902,0-1.635-0.731-1.635-1.635
	V159.75c0-0.903,0.732-1.634,1.635-1.634c0.904,0,1.635,0.73,1.635,1.634V172.827z M117.25,172.827c0,0.903-0.73,1.635-1.635,1.635
	s-1.635-0.731-1.635-1.635V159.75c0-0.903,0.73-1.634,1.635-1.634s1.635,0.73,1.635,1.634V172.827z M123.789,172.827
	c0,0.903-0.732,1.635-1.635,1.635c-0.904,0-1.635-0.731-1.635-1.635V159.75c0-0.903,0.73-1.634,1.635-1.634
	c0.902,0,1.635,0.73,1.635,1.634V172.827z M130.326,172.827c0,0.903-0.73,1.635-1.635,1.635c-0.902,0-1.635-0.731-1.635-1.635
	V159.75c0-0.903,0.732-1.634,1.635-1.634c0.904,0,1.635,0.73,1.635,1.634V172.827z M136.865,172.827c0,0.903-0.73,1.635-1.635,1.635
	s-1.635-0.731-1.635-1.635V159.75c0-0.903,0.73-1.634,1.635-1.634s1.635,0.73,1.635,1.634V172.827z M143.404,172.827
	c0,0.903-0.732,1.635-1.635,1.635c-0.904,0-1.635-0.731-1.635-1.635V159.75c0-0.903,0.73-1.634,1.635-1.634
	c0.902,0,1.635,0.73,1.635,1.634V172.827z M149.941,172.827c0,0.903-0.73,1.635-1.635,1.635c-0.902,0-1.633-0.731-1.633-1.635
	V159.75c0-0.903,0.73-1.634,1.633-1.634c0.904,0,1.635,0.73,1.635,1.634V172.827z M156.48,172.827c0,0.903-0.73,1.635-1.635,1.635
	c-0.902,0-1.635-0.731-1.635-1.635V159.75c0-0.903,0.732-1.634,1.635-1.634c0.904,0,1.635,0.73,1.635,1.634V172.827z
	 M163.02,172.827c0,0.903-0.732,1.635-1.635,1.635c-0.904,0-1.635-0.731-1.635-1.635V159.75c0-0.903,0.73-1.634,1.635-1.634
	c0.902,0,1.635,0.73,1.635,1.634V172.827z M169.557,172.827c0,0.903-0.73,1.635-1.633,1.635c-0.904,0-1.635-0.731-1.635-1.635
	V159.75c0-0.903,0.73-1.634,1.635-1.634c0.902,0,1.633,0.73,1.633,1.634V172.827z M176.096,176.097c0,0.902-0.73,1.635-1.635,1.635
	c-0.902,0-1.635-0.732-1.635-1.635V159.75c0-0.903,0.732-1.634,1.635-1.634c0.904,0,1.635,0.73,1.635,1.634V176.097z
	 M177.73,151.577c0,1.807-1.463,3.27-3.27,3.27H17.539c-1.806,0-3.269-1.463-3.269-3.27V50.231c0-1.806,1.463-3.27,3.269-3.27
	h156.922c1.807,0,3.27,1.464,3.27,3.27V151.577z"/>
</svg>
