<?xml version="1.0" encoding="utf-8"?>
<!-- Generator: Adobe Illustrator 16.0.0, SVG Export Plug-In . SVG Version: 6.00 Build 0)  -->
<!DOCTYPE svg PUBLIC "-//W3C//DTD SVG 1.1//EN" "http://www.w3.org/Graphics/SVG/1.1/DTD/svg11.dtd">
<svg version="1.1" id="Calque_1" xmlns="http://www.w3.org/2000/svg" xmlns:xlink="http://www.w3.org/1999/xlink" x="0px" y="0px"
	 width="192px" height="192px" viewBox="0 0 192 192" enable-background="new 0 0 192 192" xml:space="preserve">
<g id="layer3_1_" inkscape:label="logo" inkscape:groupmode="layer">
	
		<path id="path3897" sodipodi:rx="3.5" sodipodi:type="arc" sodipodi:cy="37.5" sodipodi:cx="44.5" sodipodi:ry="3.5" fill="#F2F2F2" d="
		M139.197,105.753c0,5.389-4.365,9.755-9.754,9.755s-9.754-4.366-9.754-9.755s4.365-9.754,9.754-9.754
		S139.197,100.364,139.197,105.753z"/>
	
		<path id="path3899" sodipodi:rx="3.5" sodipodi:type="arc" sodipodi:cy="37.5" sodipodi:cx="54.5" sodipodi:ry="3.5" fill="#F2F2F2" d="
		M167.066,105.753c0,5.389-4.365,9.755-9.754,9.755s-9.754-4.366-9.754-9.755s4.365-9.754,9.754-9.754
		S167.066,100.364,167.066,105.753z"/>
	<g>
		<path fill="#F2F2F2" d="M77.885,70.918H30.508c-1.539,0-2.787,1.248-2.787,2.787v47.376c0,1.541,1.248,2.787,2.787,2.787h47.377
			c1.539,0,2.787-1.246,2.787-2.787V73.705C80.672,72.166,79.424,70.918,77.885,70.918z M77.885,104.36
			c0,9.234-7.487,16.721-16.721,16.721H47.229c-9.234,0-16.721-7.486-16.721-16.721V90.426c0-9.234,7.487-16.721,16.721-16.721
			h13.935c9.234,0,16.721,7.486,16.721,16.721V104.36z"/>
		<rect x="36.082" y="95.999" fill="#F2F2F2" width="8.361" height="2.787"/>
		<rect x="52.803" y="107.147" fill="#F2F2F2" width="2.787" height="8.36"/>
		<circle fill="#F2F2F2" cx="54.197" cy="97.393" r="6.967"/>
		<rect x="63.951" y="95.999" fill="#F2F2F2" width="8.361" height="2.787"/>
		<rect x="52.803" y="79.278" fill="#F2F2F2" width="2.787" height="8.36"/>
		<path fill="#F2F2F2" d="M178.213,59.771H13.787c-1.539,0-2.787,1.248-2.787,2.787v66.885c0,1.54,1.248,2.787,2.787,2.787h164.426
			c1.541,0,2.787-1.247,2.787-2.787V62.558C181,61.019,179.754,59.771,178.213,59.771z M83.458,123.868
			c0,1.541-1.247,2.787-2.786,2.787H27.721c-1.539,0-2.787-1.246-2.787-2.787v-52.95c0-1.539,1.248-2.787,2.787-2.787h52.951
			c1.539,0,2.786,1.248,2.786,2.787V123.868z M141.984,118.294h-25.082V93.213h25.082V118.294z M169.854,118.294h-25.082V93.213
			h25.082V118.294z"/>
	</g>
</g>
</svg>
