<?xml version="1.0" encoding="utf-8"?>
<!-- Generator: Adobe Illustrator 16.0.0, SVG Export Plug-In . SVG Version: 6.00 Build 0)  -->
<!DOCTYPE svg PUBLIC "-//W3C//DTD SVG 1.1//EN" "http://www.w3.org/Graphics/SVG/1.1/DTD/svg11.dtd">
<svg version="1.1" id="Calque_1" xmlns="http://www.w3.org/2000/svg" xmlns:xlink="http://www.w3.org/1999/xlink" x="0px" y="0px"
	 width="192px" height="192px" viewBox="0 0 192 192" enable-background="new 0 0 192 192" xml:space="preserve">
<g id="layer3_3_" inkscape:label="logo" inkscape:groupmode="layer">
	
		<path id="path3897" sodipodi:rx="3.5" sodipodi:type="arc" sodipodi:cy="37.5" sodipodi:cx="44.5" sodipodi:ry="3.5" fill="#F2F2F2" d="
		M139.758,105.572c0,5.289-4.283,9.572-9.572,9.572c-5.288,0-9.572-4.283-9.572-9.572c0-5.288,4.284-9.572,9.572-9.572
		C135.475,96,139.758,100.284,139.758,105.572z"/>
	
		<path id="path3899" sodipodi:rx="3.5" sodipodi:type="arc" sodipodi:cy="37.5" sodipodi:cx="54.5" sodipodi:ry="3.5" fill="#F2F2F2" d="
		M167.105,105.572c0,5.289-4.283,9.572-9.572,9.572c-5.287,0-9.571-4.283-9.571-9.572c0-5.288,4.284-9.572,9.571-9.572
		C162.822,96,167.105,100.284,167.105,105.572z"/>
	<path fill="#F2F2F2" d="M178.045,60.447H19.424h-2.735h-2.734c-1.511,0-2.735,1.225-2.735,2.734v65.638
		c0,1.511,1.225,2.733,2.735,2.733h2.734h2.735h158.621c1.512,0,2.734-1.223,2.734-2.733V63.182
		C180.779,61.672,179.557,60.447,178.045,60.447z M85.061,123.349c0,1.512-1.225,2.735-2.734,2.735H30.364
		c-1.51,0-2.735-1.224-2.735-2.735V71.387c0-1.511,1.225-2.735,2.735-2.735h51.963c1.51,0,2.734,1.225,2.734,2.735V123.349z
		 M142.492,117.879h-24.613V93.266h24.613V117.879z M142.492,91.279h-24.613v-2.734h24.613V91.279z M169.84,117.879h-24.611V93.266
		h24.611V117.879z M169.84,91.279h-24.611v-2.734h24.611V91.279z"/>
	<path fill="#F2F2F2" d="M79.59,71.387H33.099c-1.51,0-2.735,1.225-2.735,2.734v46.493c0,1.512,1.225,2.734,2.735,2.734H79.59
		c1.511,0,2.736-1.223,2.736-2.734V74.121C82.327,72.611,81.101,71.387,79.59,71.387z M79.59,104.205
		c0,9.062-7.346,16.409-16.408,16.409H49.507c-9.062,0-16.409-7.348-16.409-16.409V90.53c0-9.062,7.347-16.409,16.409-16.409h13.675
		c9.062,0,16.408,7.348,16.408,16.409V104.205z"/>
	<g id="g3935_1_" transform="translate(0,-2)">
		<rect id="rect3925_1_" x="54.977" y="81.592" fill="#F2F2F2" width="2.735" height="8.203"/>
		<rect id="rect3927_1_" x="65.917" y="98" fill="#F2F2F2" width="8.205" height="2.734"/>
		<rect id="rect3929_1_" x="54.977" y="108.939" fill="#F2F2F2" width="2.735" height="8.205"/>
		<rect id="rect3931_1_" x="38.568" y="98" fill="#F2F2F2" width="8.205" height="2.734"/>
		
			<path id="path3933_1_" sodipodi:rx="2.5" sodipodi:type="arc" sodipodi:cy="34.5" sodipodi:cx="17.5" sodipodi:ry="2.5" fill="#F2F2F2" d="
			M63.182,99.368c0,3.776-3.061,6.837-6.837,6.837c-3.776,0-6.837-3.061-6.837-6.837c0-3.777,3.061-6.838,6.837-6.838
			C60.122,92.53,63.182,95.591,63.182,99.368z"/>
	</g>
</g>
</svg>
