<?xml version="1.0" encoding="utf-8"?>
<!-- Generator: Adobe Illustrator 16.0.0, SVG Export Plug-In . SVG Version: 6.00 Build 0)  -->
<!DOCTYPE svg PUBLIC "-//W3C//DTD SVG 1.1//EN" "http://www.w3.org/Graphics/SVG/1.1/DTD/svg11.dtd">
<svg version="1.1" id="Calque_1" xmlns="http://www.w3.org/2000/svg" xmlns:xlink="http://www.w3.org/1999/xlink" x="0px" y="0px"
	 width="192px" height="192px" viewBox="0 0 192 192" enable-background="new 0 0 192 192" xml:space="preserve">
<g id="layer3_6_" inkscape:label="logo" inkscape:groupmode="layer">
	<path fill="#F2F2F2" d="M181,128.903v-2.881l-90.25-0.001c-0.681,0-1.234,0.554-1.234,1.235v4.389h88.743
		C179.774,131.646,181,130.419,181,128.903z"/>
	<path fill="#F2F2F2" d="M13.742,60.354c-1.515,0-2.742,1.229-2.742,2.742v65.807c0,1.516,1.228,2.742,2.742,2.742h7.137V60.354
		H13.742z"/>
	<path fill="#F2F2F2" d="M90.75,80.733H181V63.097c0-1.514-1.226-2.742-2.741-2.742H89.516v19.145
		C89.516,80.18,90.069,80.733,90.75,80.733z"/>
	<path fill="#F2F2F2" d="M90.75,83.733c-2.335,0-4.234-1.899-4.234-4.234V60.354H23.879v71.291h62.637v-4.389
		c0-2.336,1.899-4.235,4.234-4.235H181V83.733H90.75z M79.549,104.226c0,9.086-7.367,16.453-16.451,16.453H49.387
		c-9.084,0-16.451-7.367-16.451-16.453V90.517c0-9.086,7.367-16.451,16.451-16.451h13.711c9.084,0,16.451,7.365,16.451,16.451
		V104.226z M130.275,115.194c-5.303,0-9.598-4.295-9.598-9.597s4.295-9.597,9.598-9.597c5.301,0,9.597,4.295,9.597,9.597
		S135.576,115.194,130.275,115.194z M157.694,115.194c-5.302,0-9.597-4.295-9.597-9.597s4.295-9.597,9.597-9.597
		s9.597,4.295,9.597,9.597S162.996,115.194,157.694,115.194z"/>
	<g id="g3935_4_" transform="translate(0,-2)">
		<rect id="rect3925_4_" x="54.871" y="81.548" fill="#F2F2F2" width="2.742" height="8.227"/>
		<rect id="rect3927_4_" x="65.839" y="98.001" fill="#F2F2F2" width="8.226" height="2.742"/>
		<rect id="rect3929_4_" x="54.871" y="108.968" fill="#F2F2F2" width="2.742" height="8.227"/>
		<rect id="rect3931_4_" x="38.42" y="98.001" fill="#F2F2F2" width="8.226" height="2.742"/>
		
			<path id="path3933_4_" sodipodi:ry="2.5" sodipodi:cx="17.5" sodipodi:cy="34.5" sodipodi:type="arc" sodipodi:rx="2.5" fill="#F2F2F2" d="
			M63.098,99.372c0,3.785-3.069,6.854-6.855,6.854s-6.855-3.068-6.855-6.854c0-3.787,3.069-6.855,6.855-6.855
			S63.098,95.585,63.098,99.372z"/>
	</g>
	<g id="layer1_14_" transform="translate(0,-860.36218)" inkscape:label="Calque 1" inkscape:groupmode="layer">
		<path id="path2999_12_" sodipodi:nodetypes="cccc" inkscape:connector-curvature="0" fill="#F2F2F2" d="M66.846,951.878
			l1.188-5.938l-5.938,1.188L66.846,951.878z"/>
	</g>
	<g id="layer1_13_" transform="translate(0,-860.36218)" inkscape:label="Calque 1" inkscape:groupmode="layer">
		<path id="path2999_11_" sodipodi:nodetypes="cccc" inkscape:connector-curvature="0" fill="#F2F2F2" d="M62.87,969.111
			l5.938,1.188l-1.188-5.938L62.87,969.111z"/>
	</g>
	<g id="layer1_12_" transform="translate(0,-860.36218)" inkscape:label="Calque 1" inkscape:groupmode="layer">
		<path id="path2999_10_" sodipodi:nodetypes="cccc" inkscape:connector-curvature="0" fill="#F2F2F2" d="M45.251,964.361
			l-1.188,5.938l5.938-1.188L45.251,964.361z"/>
	</g>
	<g id="layer1_11_" transform="translate(0,-860.36218)" inkscape:label="Calque 1" inkscape:groupmode="layer">
		<path id="path2999_9_" sodipodi:nodetypes="cccc" inkscape:connector-curvature="0" fill="#F2F2F2" d="M49.227,947.128
			l-5.938-1.188l1.188,5.938L49.227,947.128z"/>
	</g>
</g>
</svg>
