<?xml version="1.0" encoding="utf-8"?>
<!-- Generator: Adobe Illustrator 16.0.0, SVG Export Plug-In . SVG Version: 6.00 Build 0)  -->
<!DOCTYPE svg PUBLIC "-//W3C//DTD SVG 1.1//EN" "http://www.w3.org/Graphics/SVG/1.1/DTD/svg11.dtd">
<svg version="1.1" id="Calque_1" xmlns="http://www.w3.org/2000/svg" xmlns:xlink="http://www.w3.org/1999/xlink" x="0px" y="0px"
	 width="192px" height="192px" viewBox="0 0 192 192" enable-background="new 0 0 192 192" xml:space="preserve">
<g id="layer3" inkscape:label="logo" inkscape:groupmode="layer">
	<path fill="#F2F2F2" d="M178.258,60.355H13.742c-1.515,0-2.742,1.228-2.742,2.742v65.806c0,1.516,1.228,2.742,2.742,2.742h76.774
		h87.742c1.516,0,2.742-1.227,2.742-2.742V63.097C181,61.583,179.773,60.355,178.258,60.355z M79.548,104.227
		c0,9.084-7.366,16.451-16.452,16.451H49.387c-9.085,0-16.452-7.367-16.452-16.451v-13.71c0-9.085,7.366-16.452,16.452-16.452
		h13.709c9.085,0,16.452,7.366,16.452,16.452V104.227z M130.274,115.193c-5.302,0-9.597-4.295-9.597-9.598
		c0-5.301,4.295-9.595,9.597-9.595s9.597,4.294,9.597,9.595C139.871,110.898,135.576,115.193,130.274,115.193z M157.693,115.193
		c-5.302,0-9.597-4.295-9.597-9.598c0-5.301,4.295-9.595,9.597-9.595s9.598,4.294,9.598,9.595
		C167.291,110.898,162.995,115.193,157.693,115.193z"/>
	<g id="g3935" transform="translate(0,-2)">
		<rect id="rect3925" x="54.871" y="81.548" fill="#F2F2F2" width="2.742" height="8.226"/>
		<rect id="rect3927" x="65.839" y="98" fill="#F2F2F2" width="8.226" height="2.742"/>
		<rect id="rect3929" x="54.871" y="108.967" fill="#F2F2F2" width="2.742" height="8.227"/>
		<rect id="rect3931" x="38.419" y="98" fill="#F2F2F2" width="8.226" height="2.742"/>
		
			<path id="path3933" sodipodi:rx="2.5" sodipodi:type="arc" sodipodi:cy="34.5" sodipodi:cx="17.5" sodipodi:ry="2.5" fill="#F2F2F2" d="
			M63.097,99.371c0,3.785-3.068,6.855-6.854,6.855c-3.787,0-6.855-3.07-6.855-6.855c0-3.787,3.068-6.855,6.855-6.855
			C60.028,92.516,63.097,95.584,63.097,99.371z"/>
	</g>
</g>
</svg>
