<?xml version="1.0" encoding="utf-8"?>
<!-- Generator: Adobe Illustrator 16.0.0, SVG Export Plug-In . SVG Version: 6.00 Build 0)  -->
<!DOCTYPE svg PUBLIC "-//W3C//DTD SVG 1.1//EN" "http://www.w3.org/Graphics/SVG/1.1/DTD/svg11.dtd">
<svg version="1.1" id="Calque_1" xmlns="http://www.w3.org/2000/svg" xmlns:xlink="http://www.w3.org/1999/xlink" x="0px" y="0px"
	 width="192px" height="192px" viewBox="0 0 192 192" enable-background="new 0 0 192 192" xml:space="preserve">
<g id="layer2_1_" inkscape:label="logo" inkscape:groupmode="layer">
	<path fill="#F2F2F2" d="M181,68.58V43.903c0-1.52-1.221-2.742-2.742-2.742H13.742c-1.52,0-2.742,1.223-2.742,2.742V68.58h2.742
		v1.371h-2.046c-0.384,0-0.696,0.312-0.696,0.696v1.35c0,0.385,0.312,0.695,0.696,0.695h2.046v2.742h-2.087
		c-0.362,0-0.655,0.293-0.655,0.655v1.433c0,0.361,0.293,0.654,0.655,0.654h2.087v1.371H11v68.549c0,1.521,1.222,2.742,2.742,2.742
		h164.516c1.521,0,2.742-1.222,2.742-2.742V79.548h-2.742v-1.371h2.089c0.358,0,0.653-0.293,0.653-0.654V76.09
		c0-0.362-0.295-0.655-0.653-0.655h-2.089v-2.742h2.046c0.386,0,0.696-0.311,0.696-0.695v-1.35c0-0.385-0.311-0.696-0.696-0.696
		h-2.046V68.58H181z M175.258,65.839H16.742c-1.657,0-3-1.344-3-3V46.903c0-1.657,1.343-3,3-3h158.516c1.656,0,3,1.343,3,3v15.936
		C178.258,64.495,176.914,65.839,175.258,65.839z"/>
</g>
</svg>
