<?xml version="1.0" encoding="utf-8"?>
<!-- Generator: Adobe Illustrator 16.0.0, SVG Export Plug-In . SVG Version: 6.00 Build 0)  -->
<!DOCTYPE svg PUBLIC "-//W3C//DTD SVG 1.1//EN" "http://www.w3.org/Graphics/SVG/1.1/DTD/svg11.dtd">
<svg version="1.1" id="Calque_1" xmlns="http://www.w3.org/2000/svg" xmlns:xlink="http://www.w3.org/1999/xlink" x="0px" y="0px"
	 width="192px" height="192px" viewBox="0 0 192 192" enable-background="new 0 0 192 192" xml:space="preserve">
<path fill="#F2F2F2" d="M175.926,64.507c0.538-0.917,0.926-1.896,0.926-2.75c0-7.092-7.092-8.511-11.348-8.511
	c-10.428-1.304-11.281-1.41-21.256-2.519c-0.98-0.55-1.939-1.124-2.857-1.736c0-2.837-90.781-2.837-90.781,0
	c-0.919,0.613-1.877,1.186-2.858,1.736c-9.975,1.109-10.828,1.215-21.255,2.519c-4.255,0-11.348,1.418-11.348,8.511
	c0,0.853,0.388,1.833,0.926,2.75c-5.18,12.46-5.181,48.194-5.181,55.407c0,5.674,4.255,8.51,8.511,9.929
	c8.511,2.837,8.511,2.837,17.021,5.674c9.929,5.674,34.042,9.929,59.713,9.603c25.46-0.322,49.507-3.929,59.436-9.603
	c8.512-2.837,8.475-2.825,17.021-5.674c4.256-1.419,8.512-4.255,8.512-9.929C181.107,112.701,181.105,76.967,175.926,64.507z
	 M43.517,90.126c0,1.566-1.27,2.837-2.836,2.837h-4.255v4.255c0,1.568-1.271,2.837-2.837,2.837h-2.837
	c-1.567,0-2.837-1.269-2.837-2.837v-4.255h-4.255c-1.567,0-2.837-1.271-2.837-2.837V87.29c0-1.567,1.27-2.837,2.837-2.837h4.255
	v-4.255c0-1.567,1.27-2.837,2.837-2.837h2.837c1.566,0,2.837,1.27,2.837,2.837v4.255h4.255c1.566,0,2.836,1.27,2.836,2.837V90.126z
	 M132.879,131.262c-25.531,5.674-48.619,5.537-73.759,0c-5.541-1.219-8.826-5.674-8.51-11.348l2.836-51.064
	c0.316-5.674,2.856-8.04,8.511-8.511c34.043-2.837,34.043-2.837,68.086,0c5.654,0.471,8.195,2.837,8.51,8.511l2.838,51.064
	C141.706,125.588,138.418,130.031,132.879,131.262z M152.738,97.219c-3.134,0-5.674-2.541-5.674-5.674
	c0-3.133,2.54-5.674,5.674-5.674c3.133,0,5.674,2.541,5.674,5.674C158.412,94.678,155.871,97.219,152.738,97.219z M166.922,91.545
	c-3.133,0-5.674-2.541-5.674-5.674s2.541-5.674,5.674-5.674c3.134,0,5.674,2.541,5.674,5.674S170.056,91.545,166.922,91.545z"/>
</svg>
