<?xml version="1.0" encoding="utf-8"?>
<!-- Generator: Adobe Illustrator 16.0.0, SVG Export Plug-In . SVG Version: 6.00 Build 0)  -->
<!DOCTYPE svg PUBLIC "-//W3C//DTD SVG 1.1//EN" "http://www.w3.org/Graphics/SVG/1.1/DTD/svg11.dtd">
<svg version="1.1" id="Calque_1" xmlns="http://www.w3.org/2000/svg" xmlns:xlink="http://www.w3.org/1999/xlink" x="0px" y="0px"
	 width="192px" height="192px" viewBox="0 0 192 192" enable-background="new 0 0 192 192" xml:space="preserve">
<g id="layer2_9_" inkscape:label="logo" inkscape:groupmode="layer">
	<path fill="#F2F2F2" d="M176.278,64.366c0.541-0.92,0.93-1.905,0.93-2.762c0-7.123-7.123-8.547-11.396-8.547
		c-10.475-1.311-11.331-1.417-21.351-2.531c-0.985-0.552-1.947-1.128-2.87-1.744c0-2.849-91.183-2.849-91.183,0
		c-0.923,0.615-1.885,1.191-2.87,1.744c-10.02,1.114-10.876,1.221-21.351,2.531c-4.273,0-11.396,1.424-11.396,8.547
		c0,0.857,0.39,1.841,0.93,2.762c-5.203,12.515-5.204,48.407-5.204,55.652c0,5.699,4.274,8.548,8.548,9.974
		c8.548,2.85,8.548,2.85,17.097,5.699c9.973,5.697,34.193,9.973,59.978,9.645c25.572-0.322,49.727-3.947,59.699-9.645
		c8.549-2.85,8.513-2.838,17.097-5.699c4.273-1.426,8.549-4.274,8.549-9.974C181.483,112.773,181.482,76.881,176.278,64.366z
		 M36.161,97.224c0,1.574-1.276,2.85-2.85,2.85h-2.849c-1.574,0-2.851-1.275-2.851-2.85V92.95h-4.274
		c-1.572,0-2.849-1.276-2.849-2.85v-2.85c0-1.574,1.276-2.85,2.849-2.85h4.274v-4.273c0-1.574,1.276-2.85,2.851-2.85h2.849
		c1.573,0,2.85,1.275,2.85,2.85V84.4h4.274c1.573,0,2.849,1.276,2.849,2.85v2.85c0,1.574-1.275,2.85-2.849,2.85h-4.274V97.224z
		 M44.709,125.718c-1.573,0-2.849-1.275-2.849-2.85c0-1.575,1.275-2.85,2.849-2.85c1.574,0,2.851,1.274,2.851,2.85
		C47.56,124.442,46.283,125.718,44.709,125.718z M44.709,117.169c-1.573,0-2.849-1.274-2.849-2.85s1.275-2.85,2.849-2.85
		c1.574,0,2.851,1.274,2.851,2.85S46.283,117.169,44.709,117.169z M133.043,131.416c-25.646,5.699-48.835,5.564-74.086,0
		c-5.565-1.223-8.866-5.698-8.549-11.397l2.85-51.29c0.317-5.699,2.868-8.076,8.549-8.548c34.193-2.85,34.193-2.85,68.386,0
		c5.681,0.473,8.231,2.85,8.55,8.548l2.849,51.29C141.907,125.718,138.604,130.182,133.043,131.416z M151.563,63.03
		c0.788,0,1.425,0.637,1.425,1.424c0,0.788-0.637,1.425-1.425,1.425c-0.787,0-1.425-0.638-1.425-1.425
		C150.139,63.667,150.776,63.03,151.563,63.03z M152.988,97.224c-3.147,0-5.699-2.552-5.699-5.699s2.552-5.699,5.699-5.699
		s5.699,2.552,5.699,5.699S156.136,97.224,152.988,97.224z M167.235,91.524c-3.146,0-5.698-2.552-5.698-5.699
		c0-3.147,2.552-5.699,5.698-5.699c3.148,0,5.699,2.552,5.699,5.699C172.935,88.972,170.384,91.524,167.235,91.524z"/>
</g>
</svg>
