<?xml version="1.0" encoding="utf-8"?>
<!-- Generator: Adobe Illustrator 16.0.0, SVG Export Plug-In . SVG Version: 6.00 Build 0)  -->
<!DOCTYPE svg PUBLIC "-//W3C//DTD SVG 1.1//EN" "http://www.w3.org/Graphics/SVG/1.1/DTD/svg11.dtd">
<svg version="1.1" id="Calque_1" xmlns="http://www.w3.org/2000/svg" xmlns:xlink="http://www.w3.org/1999/xlink" x="0px" y="0px"
	 width="192px" height="192px" viewBox="0 0 192 192" enable-background="new 0 0 192 192" xml:space="preserve">
<path fill="#F2F2F2" d="M172.362,69.103c-23.172-33.987-125.333-33.218-150.724,0c-25.392,33.216,0.065,73.058,19.907,78.255
	c19.841,5.195,16.064-18.448,29.775-23.933c13.711-5.485,35.648-5.485,49.36,0c13.711,5.484,5.844,28.614,26.089,23.933
	C167.013,142.675,195.535,103.089,172.362,69.103z M63.094,98.745c0,1.515-1.229,2.742-2.742,2.742h-5.485v5.484
	c0,1.516-1.228,2.742-2.743,2.742H46.64c-1.514,0-2.742-1.227-2.742-2.742v-5.484h-5.485c-1.515,0-2.742-1.228-2.742-2.742V93.26
	c0-1.514,1.228-2.742,2.742-2.742h5.485v-5.484c0-1.515,1.228-2.743,2.742-2.743h5.484c1.515,0,2.743,1.228,2.743,2.743v5.484h5.485
	c1.514,0,2.742,1.228,2.742,2.742V98.745z M124.757,72.158l11.113-5.985c1.274-0.687,2.908-0.277,3.645,0.915s0.303,2.714-0.973,3.4
	l-11.113,5.985c-1.274,0.688-2.908,0.277-3.645-0.915C123.048,74.366,123.481,72.844,124.757,72.158z M124.697,111.085
	c-4.488,0-8.13-3.68-8.13-8.221s3.642-8.222,8.13-8.222c4.491,0,8.13,3.681,8.13,8.222S129.188,111.085,124.697,111.085z
	 M141.21,101.489c-4.491,0-8.131-3.68-8.131-8.22s3.64-8.221,8.131-8.221s8.13,3.681,8.13,8.221S145.701,101.489,141.21,101.489z
	 M157.798,91.879c-4.492,0-8.131-3.681-8.131-8.222c0-4.54,3.639-8.221,8.131-8.221c4.487,0,8.129,3.681,8.129,8.221
	C165.927,88.198,162.285,91.879,157.798,91.879z"/>
</svg>
