<?xml version="1.0" encoding="utf-8"?>
<!-- Generator: Adobe Illustrator 16.0.0, SVG Export Plug-In . SVG Version: 6.00 Build 0)  -->
<!DOCTYPE svg PUBLIC "-//W3C//DTD SVG 1.1//EN" "http://www.w3.org/Graphics/SVG/1.1/DTD/svg11.dtd">
<svg version="1.1" id="Calque_1" xmlns="http://www.w3.org/2000/svg" xmlns:xlink="http://www.w3.org/1999/xlink" x="0px" y="0px"
	 width="192px" height="192px" viewBox="0 0 192 192" enable-background="new 0 0 192 192" xml:space="preserve">
<g id="layer3_1_" inkscape:label="logo" inkscape:groupmode="layer">
	<path fill="#F2F2F2" d="M172.36,69.104c-23.171-33.986-125.33-33.218-150.72,0c-25.391,33.215,0.065,73.056,19.906,78.253
		c19.84,5.195,16.063-18.447,29.774-23.932s35.648-5.484,49.359,0c13.712,5.484,5.844,28.613,26.089,23.932
		C167.011,142.674,195.532,103.09,172.36,69.104z M63.094,98.746c0,1.514-1.228,2.742-2.742,2.742h-5.484v5.484
		c0,1.516-1.228,2.742-2.743,2.742h-5.484c-1.515,0-2.742-1.227-2.742-2.742v-5.484h-5.485c-1.515,0-2.743-1.229-2.743-2.742v-5.485
		c0-1.514,1.228-2.742,2.743-2.742h5.485v-5.484c0-1.514,1.227-2.742,2.742-2.742h5.484c1.515,0,2.743,1.228,2.743,2.742v5.484
		h5.484c1.515,0,2.742,1.229,2.742,2.742V98.746z M124.756,72.159l11.113-5.985c1.274-0.686,2.908-0.277,3.645,0.915
		c0.736,1.192,0.303,2.714-0.972,3.399l-11.113,5.986c-1.275,0.687-2.908,0.276-3.646-0.915
		C123.047,74.367,123.48,72.844,124.756,72.159z M167.017,93.478c-16.173,5.268-27.142,13.495-37.806,22.278
		c-3.525,3.095-17.896,1.914-17.646-13.789c0.29-18.309,41.951-37.09,52.979-29.792C174.468,78.741,172.743,90.852,167.017,93.478z"
		/>
	
		<path id="path4018" sodipodi:rx="2.5" sodipodi:type="arc" sodipodi:cy="30.5" sodipodi:cx="44.5" sodipodi:ry="2.5" fill="#F2F2F2" d="
		M132.827,102.863c0,4.543-3.639,8.223-8.131,8.223c-4.487,0-8.13-3.68-8.13-8.223c0-4.539,3.643-8.221,8.13-8.221
		C129.188,94.643,132.827,98.324,132.827,102.863z"/>
	
		<path id="path4018-0" sodipodi:rx="2.5" sodipodi:type="arc" sodipodi:cy="30.5" sodipodi:cx="44.5" sodipodi:ry="2.5" fill="#F2F2F2" d="
		M149.339,93.269c0,4.542-3.64,8.221-8.13,8.221s-8.13-3.68-8.13-8.221c0-4.541,3.64-8.222,8.13-8.222
		S149.339,88.728,149.339,93.269z"/>
	
		<path id="path4018-0-3" sodipodi:rx="2.5" sodipodi:type="arc" sodipodi:cy="30.5" sodipodi:cx="44.5" sodipodi:ry="2.5" fill="#F2F2F2" d="
		M165.926,83.659c0,4.54-3.642,8.221-8.13,8.221c-4.491,0-8.13-3.681-8.13-8.221c0-4.541,3.639-8.222,8.13-8.222
		C162.284,75.437,165.926,79.118,165.926,83.659z"/>
</g>
</svg>
