<?xml version="1.0" encoding="utf-8"?>
<!-- Generator: Adobe Illustrator 16.0.0, SVG Export Plug-In . SVG Version: 6.00 Build 0)  -->
<!DOCTYPE svg PUBLIC "-//W3C//DTD SVG 1.1//EN" "http://www.w3.org/Graphics/SVG/1.1/DTD/svg11.dtd">
<svg version="1.1" id="Calque_1" xmlns="http://www.w3.org/2000/svg" xmlns:xlink="http://www.w3.org/1999/xlink" x="0px" y="0px"
	 width="192px" height="192px" viewBox="0 0 192 192" enable-background="new 0 0 192 192" xml:space="preserve">
<path fill="#F2F2F2" d="M178.258,38.419H13.742c-1.515,0-2.742,1.228-2.742,2.742v109.677c0,1.516,1.228,2.742,2.742,2.742h164.516
	c1.516,0,2.742-1.227,2.742-2.742V41.161C181,39.647,179.773,38.419,178.258,38.419z M156.323,134.387
	c0,3.029-2.456,5.484-5.484,5.484H41.161c-3.028,0-5.484-2.455-5.484-5.484V47.742c0-3.028,2.456-5.484,5.484-5.484h109.678
	c3.028,0,5.484,2.456,5.484,5.484V134.387z"/>
</svg>
