<?xml version="1.0" encoding="utf-8"?>
<!-- Generator: Adobe Illustrator 16.0.0, SVG Export Plug-In . SVG Version: 6.00 Build 0)  -->
<!DOCTYPE svg PUBLIC "-//W3C//DTD SVG 1.1//EN" "http://www.w3.org/Graphics/SVG/1.1/DTD/svg11.dtd">
<svg version="1.1" id="Calque_1" xmlns="http://www.w3.org/2000/svg" xmlns:xlink="http://www.w3.org/1999/xlink" x="0px" y="0px"
	 width="192px" height="192px" viewBox="0 0 192 192" enable-background="new 0 0 192 192" xml:space="preserve">
<path fill="#F2F2F2" d="M156.6,59.965C137.57,50.324,117.906,45.968,96,45.968c-21.904,0-41.569,4.356-60.599,13.998
	C16.371,69.607,11,80.983,11,94.177c0,13.193,2.031,20.91,14.887,39.75c12.855,18.841,30.109,13.194,34,0
	c3.89-13.193,24.357-16.238,36.113-16.238c11.756,0,32.225,3.045,36.116,16.238c3.891,13.194,21.145,18.841,34,0
	C178.971,115.087,181,107.37,181,94.177C181,80.983,175.631,69.607,156.6,59.965z M63.797,95.889c0,0.561-0.453,1.015-1.015,1.015
	h-9.45v9.451c0,0.561-0.455,1.016-1.016,1.016H47.03c-0.561,0-1.015-0.455-1.015-1.016v-9.451h-9.451
	c-0.561,0-1.016-0.454-1.016-1.015v-5.286c0-0.561,0.455-1.015,1.016-1.015h9.451v-9.452c0-0.561,0.454-1.015,1.015-1.015h5.286
	c0.561,0,1.016,0.454,1.016,1.015v9.452h9.45c0.562,0,1.015,0.454,1.015,1.015V95.889z M125.791,109.828
	c-3.924,0-7.104-3.181-7.104-7.104s3.18-7.104,7.104-7.104s7.105,3.18,7.105,7.104S129.715,109.828,125.791,109.828z
	 M142.881,100.863c-3.924,0-7.105-3.181-7.105-7.104c0-3.924,3.182-7.104,7.105-7.104c3.922,0,7.104,3.18,7.104,7.104
	C149.984,97.683,146.803,100.863,142.881,100.863z M160.447,93.76c-3.922,0-7.104-3.181-7.104-7.104
	c0-3.924,3.182-7.104,7.104-7.104c3.924,0,7.105,3.18,7.105,7.104C167.553,90.579,164.371,93.76,160.447,93.76z"/>
</svg>
