<?xml version="1.0" encoding="utf-8"?>
<!-- Generator: Adobe Illustrator 16.0.0, SVG Export Plug-In . SVG Version: 6.00 Build 0)  -->
<!DOCTYPE svg PUBLIC "-//W3C//DTD SVG 1.1//EN" "http://www.w3.org/Graphics/SVG/1.1/DTD/svg11.dtd">
<svg version="1.1" id="Calque_1" xmlns="http://www.w3.org/2000/svg" xmlns:xlink="http://www.w3.org/1999/xlink" x="0px" y="0px"
	 width="192px" height="192px" viewBox="0 0 192 192" enable-background="new 0 0 192 192" xml:space="preserve">
<path fill="#F2F2F2" d="M176.141,59.641l-0.034,0.034c-0.438-10.065-5.882-17.541-13.801-22.692
	c0.101-0.094,0.192-0.199,0.267-0.323c0.422-0.702,0.195-1.614-0.508-2.036c-5.412-3.255-12.076-5.046-16.617-6.109
	c-5.089-1.19-11.094-2.14-17.635-2.854l0.838-4.605c0-1.646-1.441-2.358-2.969-2.968c-14.84-5.938-44.523-5.938-59.364,0
	c-1.527,0.609-3.262,1.35-2.968,2.968l0.839,4.61c-6.556,0.716-12.576,1.667-17.68,2.862c-0.477,0.128-11.728,3.165-16.577,6.098
	c-0.701,0.424-0.926,1.336-0.502,2.038c0.074,0.122,0.167,0.225,0.268,0.317c-7.921,5.151-13.366,12.628-13.804,22.694l-0.035-0.034
	c-8.903,26.713-5.936,80.14,11.873,80.14c9.23,0,16.666-28.697,19.518-41.475l13.133,2.889c17.809,0,11.872,77.172,35.617,77.172
	c23.747,0,17.81-77.172,35.618-77.172l13.133-2.889c2.854,12.777,10.288,41.475,19.518,41.475
	C182.076,139.78,185.045,86.354,176.141,59.641z M57.414,64.093c0,0.819-0.664,1.483-1.484,1.483h-7.42v7.421
	c0,0.82-0.663,1.484-1.483,1.484h-5.937c-0.82,0-1.484-0.664-1.484-1.484v-7.421h-7.42c-0.82,0-1.484-0.664-1.484-1.483v-5.937
	c0-0.819,0.664-1.483,1.484-1.483h7.42v-7.421c0-0.82,0.664-1.484,1.484-1.484h5.937c0.82,0,1.483,0.664,1.483,1.484v7.421h7.42
	c0.82,0,1.484,0.664,1.484,1.483V64.093z M153.879,41.832c3.279,0,5.938,2.657,5.938,5.936s-2.658,5.937-5.938,5.937
	c-3.277,0-5.936-2.658-5.936-5.937S150.602,41.832,153.879,41.832z M143.49,52.22c3.279,0,5.938,2.658,5.938,5.937
	s-2.658,5.937-5.938,5.937c-3.278,0-5.936-2.658-5.936-5.937S140.212,52.22,143.49,52.22z M96,111.583
	c-4.918,0-8.904-3.988-8.904-8.904s3.986-8.904,8.904-8.904c4.917,0,8.905,3.988,8.905,8.904S100.916,111.583,96,111.583z
	 M130.135,74.481c-4.1,0-7.421-3.322-7.421-7.421c0-4.098,3.321-7.42,7.421-7.42c4.098,0,7.42,3.322,7.42,7.42
	C137.555,71.159,134.232,74.481,130.135,74.481z M142.006,86.354c-4.098,0-7.42-3.321-7.42-7.42s3.322-7.421,7.42-7.421
	c4.1,0,7.422,3.322,7.422,7.421S146.105,86.354,142.006,86.354z M153.879,74.481c-3.277,0-5.936-2.658-5.936-5.937
	s2.658-5.937,5.936-5.937c3.279,0,5.938,2.658,5.938,5.937S157.158,74.481,153.879,74.481z M164.268,64.093
	c-3.277,0-5.936-2.658-5.936-5.937s2.658-5.937,5.936-5.937c3.278,0,5.938,2.658,5.938,5.937S167.546,64.093,164.268,64.093z"/>
</svg>
