<?xml version="1.0" encoding="utf-8"?>
<!-- Generator: Adobe Illustrator 16.0.0, SVG Export Plug-In . SVG Version: 6.00 Build 0)  -->
<!DOCTYPE svg PUBLIC "-//W3C//DTD SVG 1.1//EN" "http://www.w3.org/Graphics/SVG/1.1/DTD/svg11.dtd">
<svg version="1.1" id="Calque_1" xmlns="http://www.w3.org/2000/svg" xmlns:xlink="http://www.w3.org/1999/xlink" x="0px" y="0px"
	 width="192px" height="192px" viewBox="0 0 192 192" enable-background="new 0 0 192 192" xml:space="preserve">
<path fill="#F2F2F2" d="M178.119,14.242c0-1.796-1.607-3.242-3.602-3.242H17.483c-1.995,0-3.602,1.446-3.602,3.242v77.436
	c5.763,0,0,0,5.763,0c-3.192,0-5.763,2.571-5.763,5.764c0,3.19,2.57,5.763,5.763,5.763c-5.763,0,0,0-5.763,0v74.555
	c0,1.796,1.607,3.241,3.602,3.241h157.035c1.994,0,3.602-1.445,3.602-3.241v-74.555c-2.882,0-2.997,0-5.764,0
	c3.191,0,5.764-2.572,5.764-5.763c0-3.192-2.572-5.764-5.764-5.764c2.882,0,2.882,0,5.764,0V14.242z M159.39,115.449
	c2.786,0,5.042,2.258,5.042,5.043s-2.256,5.043-5.042,5.043s-5.042-2.258-5.042-5.043S156.604,115.449,159.39,115.449z
	 M44.135,139.221h-7.203v7.203h-8.644v-7.203h-7.203v-8.645h7.203v-7.203h8.644v7.203h7.203V139.221z M134.898,169.475H57.102
	v-57.627h77.797V169.475z M134.898,80.153H57.102V22.525h77.797V80.153z M147.864,172.356c-1.593,0-2.882-1.289-2.882-2.882
	c0-1.592,1.289-2.881,2.882-2.881s2.882,1.289,2.882,2.881C150.746,171.067,149.457,172.356,147.864,172.356z M147.864,163.712
	c-1.593,0-2.882-1.288-2.882-2.881s1.289-2.882,2.882-2.882s2.882,1.289,2.882,2.882S149.457,163.712,147.864,163.712z
	 M150.025,134.898c-2.785,0-5.043-2.256-5.043-5.042s2.258-5.042,5.043-5.042s5.043,2.256,5.043,5.042
	S152.811,134.898,150.025,134.898z M159.39,144.264c-2.786,0-5.042-2.257-5.042-5.043c0-2.785,2.256-5.042,5.042-5.042
	s5.042,2.257,5.042,5.042C164.432,142.007,162.176,144.264,159.39,144.264z M173.797,129.856c0,2.786-2.258,5.042-5.043,5.042
	s-5.043-2.256-5.043-5.042s2.258-5.042,5.043-5.042S173.797,127.07,173.797,129.856z"/>
</svg>
