<?xml version="1.0" encoding="utf-8"?>
<!-- Generator: Adobe Illustrator 16.0.0, SVG Export Plug-In . SVG Version: 6.00 Build 0)  -->
<!DOCTYPE svg PUBLIC "-//W3C//DTD SVG 1.1//EN" "http://www.w3.org/Graphics/SVG/1.1/DTD/svg11.dtd">
<svg version="1.1" id="Calque_1" xmlns="http://www.w3.org/2000/svg" xmlns:xlink="http://www.w3.org/1999/xlink" x="0px" y="0px"
	 width="192px" height="192px" viewBox="0 0 192 192" enable-background="new 0 0 192 192" xml:space="preserve">
<path fill="#F2F2F2" d="M178.119,14.242c0-1.796-1.607-3.242-3.602-3.242H17.483c-1.995,0-3.602,1.446-3.602,3.242v77.436
	c5.763,0,0,0,5.763,0c-3.192,0-5.763,2.571-5.763,5.764c0,3.19,2.57,5.763,5.763,5.763c-5.763,0,0,0-5.763,0v74.555
	c0,1.796,1.607,3.241,3.602,3.241h157.035c1.994,0,3.602-1.445,3.602-3.241v-74.555c-2.882,0-2.997,0-5.764,0
	c3.191,0,5.764-2.572,5.764-5.763c0-3.192-2.572-5.764-5.764-5.764c2.882,0,2.882,0,5.764,0V14.242z M170.195,93.84
	c0-0.398,0.32-0.721,0.72-0.721s0.721,0.322,0.721,0.721v5.763c0,0.399-0.321,0.72-0.721,0.72s-0.72-0.32-0.72-0.72V93.84z
	 M167.313,93.84c0-0.398,0.321-0.721,0.72-0.721c0.4,0,0.721,0.322,0.721,0.721v5.763c0,0.399-0.32,0.72-0.721,0.72
	c-0.398,0-0.72-0.32-0.72-0.72V93.84z M164.793,49.898c0.596,0,1.08,0.484,1.08,1.08c0,0.598-0.484,1.081-1.08,1.081
	c-0.598,0-1.082-0.483-1.082-1.081C163.711,50.383,164.195,49.898,164.793,49.898z M164.793,55.661c0.596,0,1.08,0.484,1.08,1.08
	c0,0.597-0.484,1.081-1.08,1.081c-0.598,0-1.082-0.484-1.082-1.081C163.711,56.146,164.195,55.661,164.793,55.661z M159.029,49.898
	c0.598,0,1.081,0.484,1.081,1.08c0,0.598-0.483,1.081-1.081,1.081c-0.596,0-1.08-0.483-1.08-1.081
	C157.949,50.383,158.434,49.898,159.029,49.898z M159.029,55.661c0.598,0,1.081,0.484,1.081,1.08c0,0.597-0.483,1.081-1.081,1.081
	c-0.596,0-1.08-0.484-1.08-1.081C157.949,56.146,158.434,55.661,159.029,55.661z M159.39,115.449c2.786,0,5.042,2.258,5.042,5.043
	s-2.256,5.043-5.042,5.043s-5.042-2.258-5.042-5.043S156.604,115.449,159.39,115.449z M153.268,49.898c0.596,0,1.08,0.484,1.08,1.08
	c0,0.598-0.484,1.081-1.08,1.081c-0.598,0-1.081-0.483-1.081-1.081C152.187,50.383,152.67,49.898,153.268,49.898z M153.268,55.661
	c0.596,0,1.08,0.484,1.08,1.08c0,0.597-0.484,1.081-1.08,1.081c-0.598,0-1.081-0.484-1.081-1.081
	C152.187,56.146,152.67,55.661,153.268,55.661z M38.733,49.898c0.597,0,1.081,0.484,1.081,1.08c0,0.598-0.484,1.081-1.081,1.081
	c-0.596,0-1.081-0.483-1.081-1.081C37.652,50.383,38.137,49.898,38.733,49.898z M38.733,55.661c0.597,0,1.081,0.484,1.081,1.08
	c0,0.597-0.484,1.081-1.081,1.081c-0.596,0-1.081-0.484-1.081-1.081C37.652,56.146,38.137,55.661,38.733,55.661z M32.97,49.898
	c0.597,0,1.081,0.484,1.081,1.08c0,0.598-0.484,1.081-1.081,1.081s-1.081-0.483-1.081-1.081
	C31.89,50.383,32.374,49.898,32.97,49.898z M32.97,55.661c0.597,0,1.081,0.484,1.081,1.08c0,0.597-0.484,1.081-1.081,1.081
	s-1.081-0.484-1.081-1.081C31.89,56.146,32.374,55.661,32.97,55.661z M27.208,49.898c0.597,0,1.081,0.484,1.081,1.08
	c0,0.598-0.484,1.081-1.081,1.081s-1.081-0.483-1.081-1.081C26.127,50.383,26.611,49.898,27.208,49.898z M27.208,55.661
	c0.597,0,1.081,0.484,1.081,1.08c0,0.597-0.484,1.081-1.081,1.081s-1.081-0.484-1.081-1.081
	C26.127,56.146,26.611,55.661,27.208,55.661z M44.135,139.221h-7.203v7.203h-8.644v-7.203h-7.203v-8.645h7.203v-7.203h8.644v7.203
	h7.203V139.221z M134.898,169.475H57.102v-57.627h77.797V169.475z M95.28,98.161V96c0-0.397,0.322-0.72,0.72-0.72
	c0.399,0,0.72,0.322,0.72,0.72v2.161c0,0.398-0.321,0.721-0.72,0.721C95.602,98.882,95.28,98.56,95.28,98.161z M134.898,80.153
	H57.102V22.525h77.797V80.153z M147.864,172.356c-1.593,0-2.882-1.289-2.882-2.882c0-1.592,1.289-2.881,2.882-2.881
	s2.882,1.289,2.882,2.881C150.746,171.067,149.457,172.356,147.864,172.356z M147.864,163.712c-1.593,0-2.882-1.288-2.882-2.881
	s1.289-2.882,2.882-2.882s2.882,1.289,2.882,2.882S149.457,163.712,147.864,163.712z M150.025,134.898
	c-2.785,0-5.043-2.256-5.043-5.042s2.258-5.042,5.043-5.042s5.043,2.256,5.043,5.042S152.811,134.898,150.025,134.898z
	 M159.39,144.264c-2.786,0-5.042-2.257-5.042-5.043c0-2.785,2.256-5.042,5.042-5.042s5.042,2.257,5.042,5.042
	C164.432,142.007,162.176,144.264,159.39,144.264z M173.797,129.856c0,2.786-2.258,5.042-5.043,5.042s-5.043-2.256-5.043-5.042
	s2.258-5.042,5.043-5.042S173.797,127.07,173.797,129.856z"/>
</svg>
