<?xml version="1.0" encoding="utf-8"?>
<!-- Generator: Adobe Illustrator 16.0.0, SVG Export Plug-In . SVG Version: 6.00 Build 0)  -->
<!DOCTYPE svg PUBLIC "-//W3C//DTD SVG 1.1//EN" "http://www.w3.org/Graphics/SVG/1.1/DTD/svg11.dtd">
<svg version="1.1" id="Calque_1" xmlns="http://www.w3.org/2000/svg" xmlns:xlink="http://www.w3.org/1999/xlink" x="0px" y="0px"
	 width="192px" height="192px" viewBox="0 0 192 192" enable-background="new 0 0 192 192" xml:space="preserve">
<path fill="#F2F2F2" d="M178.119,14.241c0-1.795-1.607-3.241-3.602-3.241H17.483c-1.995,0-3.602,1.446-3.602,3.241v77.437
	c5.763,0,0,0,5.763,0c-3.192,0-5.763,2.57-5.763,5.762s2.571,5.764,5.763,5.764c-5.763,0,0,0-5.763,0v74.555
	c0,1.795,1.606,3.242,3.602,3.242h157.035c1.994,0,3.602-1.447,3.602-3.242v-74.555c-2.882,0-2.998,0-5.764,0
	c3.191,0,5.764-2.572,5.764-5.764s-2.572-5.762-5.764-5.762c2.882,0,2.882,0,5.764,0V14.241z M159.39,115.449
	c2.785,0,5.042,2.256,5.042,5.041c0,2.787-2.257,5.043-5.042,5.043c-2.786,0-5.042-2.256-5.042-5.043
	C154.348,117.705,156.604,115.449,159.39,115.449z M44.136,139.221h-7.204v7.203h-8.644v-7.203h-7.204v-8.645h7.204v-7.203h8.644
	v7.203h7.204V139.221z M134.898,169.474H57.102v-57.626h77.797V169.474z M134.898,80.152H57.102V22.525h77.797V80.152z
	 M150.025,134.897c-2.785,0-5.043-2.257-5.043-5.042s2.258-5.042,5.043-5.042s5.043,2.257,5.043,5.042
	S152.811,134.897,150.025,134.897z M159.39,144.262c-2.786,0-5.042-2.256-5.042-5.041c0-2.787,2.256-5.043,5.042-5.043
	c2.785,0,5.042,2.256,5.042,5.043C164.432,142.006,162.175,144.262,159.39,144.262z M173.797,129.855
	c0,2.785-2.257,5.042-5.043,5.042c-2.785,0-5.043-2.257-5.043-5.042s2.258-5.042,5.043-5.042
	C171.54,124.813,173.797,127.07,173.797,129.855z"/>
</svg>
