<?xml version="1.0" encoding="utf-8"?>
<!-- Generator: Adobe Illustrator 16.0.0, SVG Export Plug-In . SVG Version: 6.00 Build 0)  -->
<!DOCTYPE svg PUBLIC "-//W3C//DTD SVG 1.1//EN" "http://www.w3.org/Graphics/SVG/1.1/DTD/svg11.dtd">
<svg version="1.1" id="Calque_1" xmlns="http://www.w3.org/2000/svg" xmlns:xlink="http://www.w3.org/1999/xlink" x="0px" y="0px"
	 width="192px" height="192px" viewBox="0 0 192 192" enable-background="new 0 0 192 192" xml:space="preserve">
<path fill="#F2F2F2" d="M178.249,23.347H13.751C11.01,28.83,11.01,34.313,11.01,37.056c0,2.741,0,5.482,2.741,5.482v2.057v30.844
	v58.26c0,1.141,0.917,2.056,2.057,2.056c-1.14,0-2.057,0.916-2.057,2.056v28.788c0,1.14,0.917,2.056,2.057,2.056h160.385
	c1.141,0,2.057-0.916,2.057-2.056V137.81c0-1.14-0.916-2.056-2.057-2.056c1.141,0,2.057-0.915,2.057-2.056v-58.26V44.595v-2.057
	c2.741,0,2.741-2.741,2.741-5.482C180.99,34.313,180.99,28.83,178.249,23.347z M96,160.429l-13.708-16.449h27.416L96,160.429z
	 M161.799,122.046c0,1.516-1.226,2.742-2.741,2.742H32.942c-1.514,0-2.741-1.227-2.741-2.742V61.729
	c0-1.514,1.228-2.741,2.741-2.741h126.115c1.516,0,2.741,1.228,2.741,2.741V122.046z"/>
</svg>
