<?xml version="1.0" encoding="utf-8"?>
<!-- Generator: Adobe Illustrator 16.0.0, SVG Export Plug-In . SVG Version: 6.00 Build 0)  -->
<!DOCTYPE svg PUBLIC "-//W3C//DTD SVG 1.1//EN" "http://www.w3.org/Graphics/SVG/1.1/DTD/svg11.dtd">
<svg version="1.1" id="Calque_1" xmlns="http://www.w3.org/2000/svg" xmlns:xlink="http://www.w3.org/1999/xlink" x="0px" y="0px"
	 width="192px" height="192px" viewBox="0 0 192 192" enable-background="new 0 0 192 192" xml:space="preserve">
<path fill="#F2F2F2" d="M178.143,46.398c-4.804-5.153-159.483-5.153-164.285,0C12.252,47.083,11,48.078,11,49.388v85
	c0,5.484,8.251,10.355,13.71,10.969c48.744,5.479,93.226,5.483,142.58,0c5.452-0.605,13.71-5.484,13.71-10.969v-85
	C181,48.078,179.748,47.082,178.143,46.398z M165.919,52.13c2.271,0,4.113,1.841,4.113,4.113c0,2.271-1.842,4.112-4.113,4.112
	c-2.271,0-4.112-1.841-4.112-4.112C161.807,53.971,163.648,52.13,165.919,52.13z M33.573,96.638c-4.543,0-8.227-3.683-8.227-8.226
	c0-4.542,3.684-8.226,8.227-8.226c4.542,0,8.225,3.684,8.225,8.226C41.798,92.955,38.115,96.638,33.573,96.638z M134.388,126.163
	c0,2.741-76.775,2.741-76.775,0V57.614c0-1.52,1.217-2.742,2.727-2.742h71.322c1.51,0,2.727,1.223,2.727,2.742V126.163z
	 M152.21,96.001c-3.787,0-6.855-3.068-6.855-6.854c0-3.787,3.068-6.855,6.855-6.855c3.786,0,6.854,3.068,6.854,6.855
	C159.064,92.933,155.996,96.001,152.21,96.001z M165.919,85.033c-3.785,0-6.854-3.068-6.854-6.854c0-3.787,3.069-6.855,6.854-6.855
	c3.787,0,6.855,3.068,6.855,6.855C172.774,81.965,169.706,85.033,165.919,85.033z"/>
</svg>
