<?xml version="1.0" encoding="utf-8"?>
<!-- Generator: Adobe Illustrator 16.0.0, SVG Export Plug-In . SVG Version: 6.00 Build 0)  -->
<!DOCTYPE svg PUBLIC "-//W3C//DTD SVG 1.1//EN" "http://www.w3.org/Graphics/SVG/1.1/DTD/svg11.dtd">
<svg version="1.1" id="Calque_1" xmlns="http://www.w3.org/2000/svg" xmlns:xlink="http://www.w3.org/1999/xlink" x="0px" y="0px"
	 width="192px" height="192px" viewBox="0 0 192 192" enable-background="new 0 0 192 192" xml:space="preserve">
<path fill="#F2F2F2" d="M171.28,68.881c-28.759-31.534-120.791-31.534-149.548,0c-28.76,31.532,5.847,82.321,34.51,77.399
	c28.664-4.92,58.904-6.066,80.529,0C158.395,152.348,200.042,100.413,171.28,68.881z M52.091,100.116
	c-6.062,0-10.977-4.915-10.977-10.977c0-6.063,4.914-10.978,10.977-10.978s10.977,4.915,10.977,10.978
	C63.068,95.202,58.154,100.116,52.091,100.116z M94.628,102.86c-5.306,0-9.605-4.299-9.605-9.605c0-5.305,4.3-9.604,9.605-9.604
	c5.305,0,9.604,4.299,9.604,9.604C104.232,98.562,99.934,102.86,94.628,102.86z M113.838,89.14c-5.307,0-9.605-4.301-9.605-9.605
	c0-5.305,4.299-9.605,9.605-9.605s9.605,4.3,9.605,9.605C123.443,84.839,119.145,89.14,113.838,89.14z M137.164,86.395
	c-5.306,0-9.604-4.3-9.604-9.605s4.299-9.605,9.604-9.605c5.307,0,9.605,4.3,9.605,9.605S142.471,86.395,137.164,86.395z
	 M160.491,89.14c-5.307,0-9.605-4.301-9.605-9.605c0-5.305,4.299-9.605,9.605-9.605c5.306,0,9.604,4.3,9.604,9.605
	C170.096,84.839,165.797,89.14,160.491,89.14z"/>
</svg>
