<?xml version="1.0" encoding="utf-8"?>
<!-- Generator: Adobe Illustrator 16.0.0, SVG Export Plug-In . SVG Version: 6.00 Build 0)  -->
<!DOCTYPE svg PUBLIC "-//W3C//DTD SVG 1.1//EN" "http://www.w3.org/Graphics/SVG/1.1/DTD/svg11.dtd">
<svg version="1.1" id="Calque_1" xmlns="http://www.w3.org/2000/svg" xmlns:xlink="http://www.w3.org/1999/xlink" x="0px" y="0px"
	 width="192px" height="192px" viewBox="0 0 192 192" enable-background="new 0 0 192 192" xml:space="preserve">
<g id="layer2_6_" inkscape:label="logo" inkscape:groupmode="layer">
	<rect id="rect3802_1_" x="63.101" y="60.36" fill="#F2F2F2" width="65.799" height="63.057"/>
	<path id="path3835" sodipodi:rx="3" sodipodi:type="arc" sodipodi:cy="29" sodipodi:cx="9" sodipodi:ry="3" fill="#F2F2F2" d="
		M41.805,88.414c0,4.542-3.683,8.225-8.225,8.225s-8.225-3.682-8.225-8.225l0,0c0-4.542,3.683-8.225,8.225-8.225
		S41.805,83.871,41.805,88.414z"/>
	<path fill="#F2F2F2" d="M178.134,46.404c-4.803-5.153-159.464-5.153-164.267,0c-1.606,0.684-2.857,1.68-2.857,2.989v84.99
		c0,5.482,8.25,10.354,13.708,10.967c48.739,5.477,93.216,5.482,142.564,0c5.451-0.605,13.708-5.484,13.708-10.967v-84.99
		C180.99,48.084,179.739,47.088,178.134,46.404z M165.911,52.135c2.271,0,4.113,1.841,4.113,4.113c0,2.271-1.843,4.112-4.113,4.112
		s-4.112-1.841-4.112-4.112C161.799,53.976,163.641,52.135,165.911,52.135z M41.151,60.36h0.032c1.506,0,2.726,1.228,2.726,2.741
		c0,1.514-1.22,2.742-2.726,2.742h-0.032c-1.506,0-2.726-1.228-2.726-2.742C38.426,61.588,39.646,60.36,41.151,60.36z M21.96,60.36
		h5.516c1.506,0,2.726,1.228,2.726,2.741c0,1.514-1.22,2.742-2.726,2.742H21.96c-1.506,0-2.726-1.228-2.726-2.742
		C19.234,61.588,20.454,60.36,21.96,60.36z M33.58,102.759c-7.922,0-14.346-6.423-14.346-14.345c0-7.923,6.423-14.346,14.346-14.346
		s14.345,6.423,14.345,14.346C47.925,96.335,41.502,102.759,33.58,102.759z M139.865,131.642c0,2.742-87.731,2.742-87.731,0V49.394
		c0-1.52,1.216-2.741,2.726-2.741h82.281c1.51,0,2.725,1.222,2.725,2.741V131.642z M152.203,96.001
		c-3.785,0-6.854-3.069-6.854-6.854c0-3.786,3.068-6.854,6.854-6.854s6.854,3.068,6.854,6.854
		C159.057,92.933,155.988,96.001,152.203,96.001z M165.911,85.035c-3.786,0-6.854-3.068-6.854-6.854
		c0-3.786,3.068-6.854,6.854-6.854c3.785,0,6.854,3.068,6.854,6.854C172.766,81.966,169.696,85.035,165.911,85.035z"/>
</g>
</svg>
