<?xml version="1.0" encoding="utf-8"?>
<!-- Generator: Adobe Illustrator 16.0.0, SVG Export Plug-In . SVG Version: 6.00 Build 0)  -->
<!DOCTYPE svg PUBLIC "-//W3C//DTD SVG 1.1//EN" "http://www.w3.org/Graphics/SVG/1.1/DTD/svg11.dtd">
<svg version="1.1" id="Calque_1" xmlns="http://www.w3.org/2000/svg" xmlns:xlink="http://www.w3.org/1999/xlink" x="0px" y="0px"
	 width="192px" height="192px" viewBox="0 0 192 192" enable-background="new 0 0 192 192" xml:space="preserve">
<g id="layer3_2_" inkscape:label="logo" inkscape:groupmode="layer">
	<path fill="#F2F2F2" d="M171.289,68.878c-28.762-31.538-120.804-31.538-149.566,0c-28.763,31.536,5.848,82.331,34.515,77.409
		c28.667-4.921,58.91-6.068,80.537,0S200.054,100.414,171.289,68.878z M94.628,61.693c2.274,0,4.117,1.843,4.117,4.117
		c0,2.274-1.843,4.116-4.117,4.116s-4.117-1.842-4.117-4.116C90.511,63.536,92.354,61.693,94.628,61.693z M54.832,105.606
		c-9.094,0-16.468-7.374-16.468-16.468c0-9.094,7.374-16.467,16.468-16.467c9.094,0,16.467,7.373,16.467,16.467
		C71.299,98.232,63.925,105.606,54.832,105.606z M94.628,102.861c-5.306,0-9.606-4.299-9.606-9.606c0-5.306,4.3-9.606,9.606-9.606
		c5.307,0,9.606,4.3,9.606,9.606C104.234,98.562,99.935,102.861,94.628,102.861z M113.84,89.139c-5.308,0-9.605-4.3-9.605-9.606
		s4.298-9.606,9.605-9.606c5.307,0,9.605,4.301,9.605,9.606S119.146,89.139,113.84,89.139z M119.329,64.438
		c-2.273,0-4.116-1.843-4.116-4.117c0-2.274,1.843-4.117,4.116-4.117c2.272,0,4.116,1.843,4.116,4.117
		C123.445,62.595,121.602,64.438,119.329,64.438z M137.169,86.394c-5.307,0-9.606-4.3-9.606-9.605c0-5.306,4.3-9.606,9.606-9.606
		c5.308,0,9.606,4.3,9.606,9.606C146.775,82.094,142.477,86.394,137.169,86.394z M160.498,89.139c-5.307,0-9.605-4.3-9.605-9.606
		s4.299-9.606,9.605-9.606c5.308,0,9.605,4.301,9.605,9.606S165.806,89.139,160.498,89.139z"/>
	
		<path id="path3893-2-6" sodipodi:rx="4" sodipodi:type="arc" sodipodi:cy="31" sodipodi:cx="14" sodipodi:ry="4" fill="#F2F2F2" d="
		M65.81,89.139c0,6.062-4.915,10.979-10.979,10.979c-6.062,0-10.979-4.916-10.979-10.979c0-6.063,4.916-10.978,10.979-10.978
		C60.895,78.161,65.81,83.076,65.81,89.139z"/>
</g>
</svg>
