<?xml version="1.0" encoding="utf-8"?>
<!-- Generator: Adobe Illustrator 16.0.0, SVG Export Plug-In . SVG Version: 6.00 Build 0)  -->
<!DOCTYPE svg PUBLIC "-//W3C//DTD SVG 1.1//EN" "http://www.w3.org/Graphics/SVG/1.1/DTD/svg11.dtd">
<svg version="1.1" id="Calque_1" xmlns="http://www.w3.org/2000/svg" xmlns:xlink="http://www.w3.org/1999/xlink" x="0px" y="0px"
	 width="192px" height="192px" viewBox="0 0 192 192" enable-background="new 0 0 192 192" xml:space="preserve">
<g id="layer2_3_" inkscape:label="logo" inkscape:groupmode="layer">
	<path fill="#F2F2F2" d="M178.257,58.984H13.741c-1.515,0-2.741,1.228-2.741,2.741v68.549c0,1.516,1.227,2.741,2.741,2.741h164.516
		c1.517,0,2.743-1.226,2.743-2.741V61.726C181,60.212,179.773,58.984,178.257,58.984z M60.354,105.597
		c0,1.516-1.227,2.742-2.742,2.742h-5.483v5.483c0,1.516-1.226,2.742-2.741,2.742h-8.227c-1.516,0-2.742-1.227-2.742-2.742v-5.483
		h-5.483c-1.516,0-2.741-1.227-2.741-2.742v-8.226c0-1.515,1.226-2.741,2.741-2.741h5.483v-5.484c0-1.515,1.227-2.742,2.742-2.742
		h8.227c1.516,0,2.741,1.228,2.741,2.742v5.484h5.483c1.516,0,2.742,1.227,2.742,2.741V105.597z M142.612,113.822
		c0,1.516-1.227,2.742-2.742,2.742h-10.967c-1.516,0-2.742-1.227-2.742-2.742v-10.968c0-1.516,1.227-2.741,2.742-2.741h10.967
		c1.516,0,2.742,1.226,2.742,2.741V113.822z M164.548,113.822c0,1.516-1.227,2.742-2.742,2.742h-10.967
		c-1.516,0-2.742-1.227-2.742-2.742v-10.968c0-1.516,1.227-2.741,2.742-2.741h10.967c1.516,0,2.742,1.226,2.742,2.741V113.822z"/>
	<path id="path4111" sodipodi:rx="2" sodipodi:type="arc" sodipodi:cy="24" sodipodi:cx="45" sodipodi:ry="2" fill="#F2F2F2" d="
		M139.87,108.339c0,3.028-2.455,5.483-5.482,5.483c-3.029,0-5.484-2.455-5.484-5.483s2.455-5.484,5.484-5.484
		C137.415,102.854,139.87,105.311,139.87,108.339z"/>
	<path id="path4111-7" sodipodi:rx="2" sodipodi:type="arc" sodipodi:cy="24" sodipodi:cx="45" sodipodi:ry="2" fill="#F2F2F2" d="
		M161.806,108.339c0,3.028-2.455,5.483-5.484,5.483c-3.027,0-5.482-2.455-5.482-5.483s2.455-5.484,5.482-5.484
		C159.351,102.854,161.806,105.311,161.806,108.339z"/>
</g>
</svg>
