<?xml version="1.0" encoding="utf-8"?>
<!-- Generator: Adobe Illustrator 16.0.0, SVG Export Plug-In . SVG Version: 6.00 Build 0)  -->
<!DOCTYPE svg PUBLIC "-//W3C//DTD SVG 1.1//EN" "http://www.w3.org/Graphics/SVG/1.1/DTD/svg11.dtd">
<svg version="1.1" id="Calque_1" xmlns="http://www.w3.org/2000/svg" xmlns:xlink="http://www.w3.org/1999/xlink" x="0px" y="0px"
	 width="192px" height="192px" viewBox="0 0 192 192" enable-background="new 0 0 192 192" xml:space="preserve">
<g id="layer2_2_" inkscape:label="logo" inkscape:groupmode="layer">
	<path fill="#F2F2F2" d="M115.193,86.403H74.064c-1.515,0-2.742,1.228-2.742,2.741v5.484c0,1.516,1.228,2.742,2.742,2.742h41.129
		c1.516,0,2.742-1.227,2.742-2.742v-5.484C117.936,87.631,116.709,86.403,115.193,86.403z"/>
	<path fill="#F2F2F2" d="M115.193,72.693H74.064c-1.515,0-2.742,1.228-2.742,2.742v5.483c0,1.515,1.228,2.742,2.742,2.742h41.129
		c1.516,0,2.742-1.228,2.742-2.742v-5.483C117.936,73.921,116.709,72.693,115.193,72.693z"/>
	<path fill="#F2F2F2" d="M178.259,58.983H13.742c-1.514,0-2.742,1.228-2.742,2.742v68.549c0,1.516,1.228,2.742,2.742,2.742h164.517
		c1.515,0,2.741-1.227,2.741-2.742V61.726C181,60.211,179.773,58.983,178.259,58.983z M175.517,124.79
		c0,1.516-1.227,2.742-2.742,2.742h-54.839v-5.484c0-1.516-1.227-2.741-2.742-2.741H74.064c-1.515,0-2.742,1.226-2.742,2.741v5.484
		H19.226c-1.514,0-2.742-1.227-2.742-2.742V67.209c0-1.514,1.228-2.741,2.742-2.741h52.097v2.741c0,1.515,1.228,2.742,2.742,2.742
		h41.129c1.516,0,2.742-1.228,2.742-2.742v-2.741h54.839c1.516,0,2.742,1.228,2.742,2.741V124.79z"/>
	<path fill="#F2F2F2" d="M59.857,91.887h-4.986v-4.985c0-1.789-1.452-3.24-3.24-3.24H38.917c-1.789,0-3.24,1.451-3.24,3.24v4.985
		h-4.986c-1.789,0-3.24,1.451-3.24,3.24v12.714c0,1.788,1.452,3.24,3.24,3.24h4.986v4.985c0,1.789,1.451,3.24,3.24,3.24h12.713
		c1.789,0,3.24-1.451,3.24-3.24v-4.985h4.986c1.789,0,3.24-1.452,3.24-3.24V95.127C63.097,93.338,61.646,91.887,59.857,91.887z
		 M60.355,105.597c0,1.516-1.228,2.742-2.742,2.742h-5.484v5.483c0,1.516-1.228,2.742-2.742,2.742h-8.226
		c-1.514,0-2.742-1.227-2.742-2.742v-5.483h-5.484c-1.514,0-2.742-1.227-2.742-2.742v-8.226c0-1.515,1.228-2.742,2.742-2.742h5.484
		v-5.484c0-1.514,1.228-2.741,2.742-2.741h8.226c1.514,0,2.742,1.228,2.742,2.741v5.484h5.484c1.514,0,2.742,1.228,2.742,2.742
		V105.597z"/>
	<path fill="#F2F2F2" d="M115.193,100.112H74.064c-1.515,0-2.742,1.227-2.742,2.742v10.968c0,1.516,1.228,2.742,2.742,2.742h41.129
		c1.516,0,2.742-1.227,2.742-2.742v-10.968C117.936,101.339,116.709,100.112,115.193,100.112z M90.517,108.711
		c0,1.31-1.062,2.37-2.37,2.37h-8.97c-1.309,0-2.37-1.061-2.37-2.37v-0.745c0-1.309,1.062-2.369,2.37-2.369h8.97
		c1.308,0,2.37,1.061,2.37,2.369V108.711z M112.451,108.711c0,1.31-1.06,2.37-2.37,2.37h-8.97c-1.309,0-2.37-1.061-2.37-2.37v-0.745
		c0-1.309,1.062-2.369,2.37-2.369h8.97c1.311,0,2.37,1.061,2.37,2.369V108.711z"/>
	<path fill="#F2F2F2" d="M139.871,100.112h-10.968c-1.516,0-2.742,1.227-2.742,2.742v10.968c0,1.516,1.227,2.742,2.742,2.742h10.968
		c1.516,0,2.741-1.227,2.741-2.742v-10.968C142.612,101.339,141.387,100.112,139.871,100.112z M134.388,113.822
		c-3.029,0-5.484-2.455-5.484-5.483c0-3.029,2.455-5.484,5.484-5.484c3.027,0,5.483,2.455,5.483,5.484
		C139.871,111.367,137.415,113.822,134.388,113.822z"/>
	<path fill="#F2F2F2" d="M161.807,100.112h-10.968c-1.516,0-2.742,1.227-2.742,2.742v10.968c0,1.516,1.227,2.742,2.742,2.742h10.968
		c1.515,0,2.742-1.227,2.742-2.742v-10.968C164.549,101.339,163.321,100.112,161.807,100.112z M156.322,113.822
		c-3.028,0-5.483-2.455-5.483-5.483c0-3.029,2.455-5.484,5.483-5.484s5.484,2.455,5.484,5.484
		C161.807,111.367,159.351,113.822,156.322,113.822z"/>
</g>
</svg>
