<?xml version="1.0" encoding="utf-8"?>
<!-- Generator: Adobe Illustrator 16.0.0, SVG Export Plug-In . SVG Version: 6.00 Build 0)  -->
<!DOCTYPE svg PUBLIC "-//W3C//DTD SVG 1.1 Tiny//EN" "http://www.w3.org/Graphics/SVG/1.1/DTD/svg11-tiny.dtd">
<svg version="1.1" baseProfile="tiny" id="Calque_1"
	 xmlns="http://www.w3.org/2000/svg" xmlns:xlink="http://www.w3.org/1999/xlink" x="0px" y="0px" width="192px" height="192px"
	 viewBox="0 0 192 192" xml:space="preserve">
<g id="layer2_2_" inkscape:groupmode="layer" inkscape:label="logo">
	<path fill="#F2F2F2" d="M115.193,86.403H74.064c-1.514,0-2.742,1.228-2.742,2.742v5.484c0,1.516,1.228,2.742,2.742,2.742h41.129
		c1.516,0,2.742-1.226,2.742-2.742v-5.484C117.936,87.631,116.709,86.403,115.193,86.403z"/>
	<path fill="#F2F2F2" d="M115.193,72.693H74.064c-1.514,0-2.742,1.228-2.742,2.742v5.484c0,1.514,1.228,2.742,2.742,2.742h41.129
		c1.516,0,2.742-1.228,2.742-2.742v-5.484C117.936,73.921,116.709,72.693,115.193,72.693z"/>
	<path fill="#F2F2F2" d="M178.259,58.984H13.742c-1.514,0-2.742,1.228-2.742,2.742v68.548c0,1.516,1.228,2.742,2.742,2.742h164.517
		c1.515,0,2.741-1.227,2.741-2.742V61.726C181,60.211,179.773,58.984,178.259,58.984z M175.517,124.791
		c0,1.514-1.227,2.74-2.742,2.74h-54.839v-5.482c0-1.516-1.227-2.742-2.742-2.742H74.064c-1.514,0-2.742,1.227-2.742,2.742v5.482
		H19.226c-1.514,0-2.742-1.227-2.742-2.74V67.209c0-1.514,1.228-2.742,2.742-2.742h52.097v2.742c0,1.514,1.228,2.742,2.742,2.742
		h41.129c1.516,0,2.742-1.228,2.742-2.742v-2.742h54.839c1.516,0,2.742,1.228,2.742,2.742V124.791z"/>
	<path fill="#F2F2F2" d="M59.857,91.887h-4.986v-4.986c0-1.789-1.452-3.24-3.24-3.24H38.917c-1.789,0-3.24,1.452-3.24,3.24v4.986
		h-4.986c-1.789,0-3.24,1.451-3.24,3.24v12.712c0,1.789,1.452,3.24,3.24,3.24h4.986v4.986c0,1.789,1.451,3.24,3.24,3.24h12.713
		c1.789,0,3.24-1.451,3.24-3.24v-4.986h4.986c1.789,0,3.24-1.451,3.24-3.24V95.127C63.097,93.338,61.646,91.887,59.857,91.887z
		 M60.355,105.596c0,1.516-1.228,2.742-2.742,2.742h-5.484v5.484c0,1.516-1.228,2.742-2.742,2.742h-8.226
		c-1.514,0-2.742-1.227-2.742-2.742v-5.484h-5.484c-1.514,0-2.742-1.227-2.742-2.742v-8.225c0-1.515,1.228-2.742,2.742-2.742h5.484
		v-5.484c0-1.514,1.228-2.742,2.742-2.742h8.226c1.514,0,2.742,1.228,2.742,2.742v5.484h5.484c1.514,0,2.742,1.227,2.742,2.742
		V105.596z"/>
	<path fill="#F2F2F2" d="M115.193,100.113H74.064c-1.514,0-2.742,1.227-2.742,2.74v10.969c0,1.516,1.228,2.742,2.742,2.742h41.129
		c1.516,0,2.742-1.227,2.742-2.742v-10.969C117.936,101.34,116.709,100.113,115.193,100.113z M90.516,108.711
		c0,1.309-1.062,2.369-2.37,2.369h-8.97c-1.308,0-2.37-1.061-2.37-2.369v-0.744c0-1.311,1.062-2.371,2.37-2.371h8.97
		c1.308,0,2.37,1.061,2.37,2.371V108.711z M112.451,108.711c0,1.309-1.06,2.369-2.37,2.369h-8.97c-1.309,0-2.37-1.061-2.37-2.369
		v-0.744c0-1.311,1.062-2.371,2.37-2.371h8.97c1.311,0,2.37,1.061,2.37,2.371V108.711z"/>
	<path fill="#F2F2F2" d="M139.871,100.113h-10.968c-1.516,0-2.742,1.227-2.742,2.74v10.969c0,1.516,1.227,2.742,2.742,2.742h10.968
		c1.516,0,2.741-1.227,2.741-2.742v-10.969C142.612,101.34,141.387,100.113,139.871,100.113z M134.388,113.822
		c-3.029,0-5.484-2.455-5.484-5.484c0-3.027,2.455-5.484,5.484-5.484c3.027,0,5.483,2.457,5.483,5.484
		C139.871,111.367,137.415,113.822,134.388,113.822z"/>
	<path fill="#F2F2F2" d="M161.807,100.113h-10.968c-1.516,0-2.742,1.227-2.742,2.74v10.969c0,1.516,1.227,2.742,2.742,2.742h10.968
		c1.515,0,2.742-1.227,2.742-2.742v-10.969C164.549,101.34,163.321,100.113,161.807,100.113z M156.322,113.822
		c-3.028,0-5.483-2.455-5.483-5.484c0-3.027,2.455-5.484,5.483-5.484s5.484,2.457,5.484,5.484
		C161.807,111.367,159.351,113.822,156.322,113.822z"/>
</g>
</svg>
