<?xml version="1.0" encoding="utf-8"?>
<!-- Generator: Adobe Illustrator 16.0.0, SVG Export Plug-In . SVG Version: 6.00 Build 0)  -->
<!DOCTYPE svg PUBLIC "-//W3C//DTD SVG 1.1//EN" "http://www.w3.org/Graphics/SVG/1.1/DTD/svg11.dtd">
<svg version="1.1" id="Calque_1" xmlns="http://www.w3.org/2000/svg" xmlns:xlink="http://www.w3.org/1999/xlink" x="0px" y="0px"
	 width="192px" height="192px" viewBox="0 0 192 192" enable-background="new 0 0 192 192" xml:space="preserve">
<path fill="#F2F2F2" d="M146.736,14.775H45.264c-3.023,0-5.474,2.45-5.474,5.473v159.053c0,3.024,2.45,5.475,5.474,5.475h101.473
	c3.023,0,5.474-2.45,5.474-5.475V20.248C152.21,17.225,149.76,14.775,146.736,14.775z M111.081,182.033H80.919v-5.484L96,171.065
	l15.081,5.483V182.033z M146.726,168.322H45.274V83.323h101.451V168.322z M146.726,75.098c0,3.028-2.455,5.483-5.483,5.483H50.758
	c-3.028,0-5.483-2.455-5.483-5.483V25.743c0-3.028,2.455-5.484,5.483-5.484h90.484c3.028,0,5.483,2.456,5.483,5.484V75.098z"/>
</svg>
