<?xml version="1.0" encoding="utf-8"?>
<!-- Generator: Adobe Illustrator 16.0.0, SVG Export Plug-In . SVG Version: 6.00 Build 0)  -->
<!DOCTYPE svg PUBLIC "-//W3C//DTD SVG 1.1//EN" "http://www.w3.org/Graphics/SVG/1.1/DTD/svg11.dtd">
<svg version="1.1" id="Calque_1" xmlns="http://www.w3.org/2000/svg" xmlns:xlink="http://www.w3.org/1999/xlink" x="0px" y="0px"
	 width="192px" height="192px" viewBox="0 0 192 192" enable-background="new 0 0 192 192" xml:space="preserve">
<path fill="#F2F2F2" d="M175.542,68.572l-54.856-8.229c0-1.52-1.221-2.743-2.742-2.743h-6.516H80.572h-6.515
	c-1.521,0-2.743,1.224-2.743,2.743l-54.856,8.229c-2.711,0.407-5.485,2.742-5.485,5.485v54.855c0,3.038,2.447,5.486,5.485,5.486
	h159.084c3.038,0,5.485-2.448,5.485-5.486V74.058C181.027,71.314,178.252,68.979,175.542,68.572z M51.43,113.828
	c0,0.759-0.645,1.372-1.439,1.372h-8.847v8.844c0,0.798-0.613,1.441-1.371,1.441h-5.486c-0.757,0-1.371-0.644-1.371-1.441V115.2
	h-8.846c-0.795,0-1.439-0.613-1.439-1.372v-5.485c0-0.758,0.645-1.371,1.439-1.371h8.846v-8.845c0-0.797,0.614-1.441,1.371-1.441
	h5.486c0.758,0,1.371,0.645,1.371,1.441v8.845h8.847c0.795,0,1.439,0.613,1.439,1.371V113.828z M137.828,124.114
	c-4.543,0-8.229-3.686-8.229-8.229s3.686-8.229,8.229-8.229s8.229,3.686,8.229,8.229S142.371,124.114,137.828,124.114z
	 M158.399,124.114c-4.543,0-8.229-3.686-8.229-8.229s3.686-8.229,8.229-8.229c4.542,0,8.228,3.686,8.228,8.229
	S162.941,124.114,158.399,124.114z"/>
</svg>
