<?xml version="1.0" encoding="utf-8"?>
<!-- Generator: Adobe Illustrator 16.0.0, SVG Export Plug-In . SVG Version: 6.00 Build 0)  -->
<!DOCTYPE svg PUBLIC "-//W3C//DTD SVG 1.1//EN" "http://www.w3.org/Graphics/SVG/1.1/DTD/svg11.dtd">
<svg version="1.1" id="Calque_1" xmlns="http://www.w3.org/2000/svg" xmlns:xlink="http://www.w3.org/1999/xlink" x="0px" y="0px"
	 width="192px" height="192px" viewBox="0 0 192 192" enable-background="new 0 0 192 192" xml:space="preserve">
<g>
	<path fill="#F2F2F2" d="M89.145,113.138H82.29c-1.894,0-3.427,1.381-3.427,3.084s1.533,3.085,3.427,3.085h6.854
		c1.895,0,3.428-1.382,3.428-3.085S91.039,113.138,89.145,113.138z"/>
	<path fill="#F2F2F2" d="M175.516,68.581l-54.838-8.227c0-1.52-1.222-2.742-2.742-2.742h-6.512H80.576h-6.512
		c-1.52,0-2.742,1.223-2.742,2.742l-54.838,8.227C13.773,68.987,11,71.323,11,74.064v54.839c0,3.037,2.446,5.484,5.484,5.484
		h159.032c3.037,0,5.484-2.447,5.484-5.484V74.064C181,71.323,178.227,68.987,175.516,68.581z M41.161,124.035
		c0,0.798-0.612,1.44-1.371,1.44h-5.483c-0.758,0-1.371-0.643-1.371-1.44v-8.842h-8.843c-0.795,0-1.439-0.613-1.439-1.37v-5.484
		c0-0.758,0.644-1.371,1.439-1.371h8.843v-8.842c0-0.797,0.613-1.44,1.371-1.44h5.483c0.759,0,1.371,0.644,1.371,1.44v8.842h8.843
		c0.796,0,1.439,0.613,1.439,1.371v5.484c0,0.757-0.644,1.37-1.439,1.37h-8.843V124.035z M171.403,116.564
		c0,6.836-5.503,12.339-12.339,12.339h-2.742h-19.193h-1.371h-4.113h-5.483h-2.741h-7.455h-39.93H67.21h-1.371H46.646
		c0.036-0.033,0.068-0.063,0.104-0.096c-0.451-0.003-0.891-0.235-1.136-0.653c-0.37-0.631-0.159-1.442,0.472-1.812
		c0.437-0.257,0.835-0.512,1.217-0.78c3.889-2.727,6.48-6.799,7.301-11.473c0.119-0.678,0.193-1.357,0.234-2.035
		c0.012-0.303,0.022-0.61,0.031-0.929c0.029-3.666-1.072-7.243-3.222-10.305c-5.628-8.017-16.734-9.962-24.759-4.339
		c-0.598,0.42-1.425,0.275-1.844-0.324c-0.181-0.258-0.251-0.556-0.231-0.847c-0.034,0.032-0.069,0.058-0.104,0.09V76.807
		c0-3.038,2.446-5.483,5.483-5.483h30.161c3.038,0,5.484,2.445,5.484,5.483c0,16.657,13.503,30.161,30.161,30.161
		s30.161-13.504,30.161-30.161c0-3.038,2.447-5.483,5.483-5.483h30.162c3.036,0,5.483,2.445,5.483,5.483v29.219
		c2.522,2.255,4.113,5.505,4.113,9.168V116.564z"/>
	<path fill="#F2F2F2" d="M109.71,113.138h-6.855c-1.894,0-3.427,1.381-3.427,3.084s1.533,3.085,3.427,3.085h6.855
		c1.894,0,3.427-1.382,3.427-3.085S111.604,113.138,109.71,113.138z"/>
	<path fill="#F2F2F2" d="M158.636,105.597h-21.078c-5.538,0-10.025,4.488-10.025,10.025v0.514c0,5.537,4.487,10.025,10.025,10.025
		h21.078c5.538,0,10.025-4.488,10.025-10.025v-0.514C168.661,110.085,164.174,105.597,158.636,105.597z M137.814,123.419
		c-4.164,0-7.54-3.376-7.54-7.539c0-4.164,3.376-7.541,7.54-7.541s7.54,3.377,7.54,7.541
		C145.354,120.043,141.979,123.419,137.814,123.419z M158.379,123.419c-4.164,0-7.54-3.376-7.54-7.539
		c0-4.164,3.376-7.541,7.54-7.541s7.541,3.377,7.541,7.541C165.92,120.043,162.543,123.419,158.379,123.419z"/>
</g>
</svg>
