<?xml version="1.0" encoding="utf-8"?>
<!-- Generator: Adobe Illustrator 16.0.0, SVG Export Plug-In . SVG Version: 6.00 Build 0)  -->
<!DOCTYPE svg PUBLIC "-//W3C//DTD SVG 1.1//EN" "http://www.w3.org/Graphics/SVG/1.1/DTD/svg11.dtd">
<svg version="1.1" id="Calque_1" xmlns="http://www.w3.org/2000/svg" xmlns:xlink="http://www.w3.org/1999/xlink" x="0px" y="0px"
	 width="192px" height="192px" viewBox="0 0 192 192" enable-background="new 0 0 192 192" xml:space="preserve">
<g>
	<path fill="#F2F2F2" d="M95.999,108.772c-7.041,0-12.77-5.729-12.77-12.771s5.729-12.772,12.77-12.772
		c7.043,0,12.773,5.73,12.773,12.772S103.042,108.772,95.999,108.772z M95.999,86.067c-5.477,0-9.932,4.456-9.932,9.934
		c0,5.477,4.455,9.932,9.932,9.932c5.479,0,9.934-4.455,9.934-9.932C105.933,90.523,101.478,86.067,95.999,86.067z"/>
	<path fill="#F2F2F2" d="M95.999,10.86c-47.02,0-85.139,38.119-85.139,85.141c0,47.021,38.119,85.139,85.139,85.139
		c47.021,0,85.141-38.118,85.141-85.139C181.14,48.979,143.021,10.86,95.999,10.86z M95.999,128.638
		c-17.994,0-32.635-14.641-32.635-32.637c0-17.997,14.641-32.638,32.635-32.638c17.998,0,32.639,14.641,32.639,32.638
		C128.638,113.997,113.997,128.638,95.999,128.638z"/>
</g>
</svg>
