<?xml version="1.0" encoding="utf-8"?>
<!-- Generator: Adobe Illustrator 16.0.0, SVG Export Plug-In . SVG Version: 6.00 Build 0)  -->
<!DOCTYPE svg PUBLIC "-//W3C//DTD SVG 1.1//EN" "http://www.w3.org/Graphics/SVG/1.1/DTD/svg11.dtd">
<svg version="1.1" id="Calque_1" xmlns="http://www.w3.org/2000/svg" xmlns:xlink="http://www.w3.org/1999/xlink" x="0px" y="0px"
	 width="192px" height="192px" viewBox="0 0 192 192" enable-background="new 0 0 192 192" xml:space="preserve">
<path fill="#F2F2F2" d="M170.746,72.355c-8.305-19.379-141.187-19.379-149.492,0c-19.38,47.062-13.844,66.442,44.293,60.905
	c2.77-11.073,58.136-11.073,60.904,0C184.588,138.797,190.125,119.417,170.746,72.355z M57.093,105.977
	c-0.217,0.667-0.924,1.04-1.598,0.844c-0.998-0.292-2.115-0.824-3.193-1.339c-1.24-0.592-2.521-1.201-3.463-1.375
	c-0.891,0.029-1.34,0.479-1.371,1.371c0.174,0.939,0.783,2.221,1.375,3.461c0.516,1.08,1.047,2.196,1.34,3.193
	c0.197,0.674-0.178,1.381-0.844,1.598c-2.098,0.684-4.039,1.016-5.938,1.016c-1.898,0-3.84-0.332-5.939-1.016
	c-0.666-0.217-1.039-0.924-0.842-1.598c0.292-0.997,0.824-2.113,1.338-3.192c0.592-1.24,1.203-2.522,1.376-3.462
	c-0.03-0.892-0.479-1.342-1.371-1.371c-0.94,0.174-2.222,0.783-3.462,1.375c-1.079,0.515-2.195,1.047-3.193,1.339
	c-0.672,0.196-1.381-0.177-1.598-0.843c-1.354-4.162-1.354-7.715,0-11.877c0.217-0.666,0.925-1.039,1.598-0.843
	c0.998,0.292,2.114,0.824,3.193,1.339c1.24,0.592,2.521,1.201,3.462,1.375c0.892-0.03,1.341-0.48,1.371-1.371
	c-0.173-0.94-0.784-2.222-1.376-3.461c-0.514-1.08-1.046-2.196-1.338-3.194c-0.196-0.669,0.172-1.374,0.834-1.594
	c2.292-0.764,4.127-1.104,5.947-1.104c1.821,0,3.655,0.34,5.946,1.104c0.662,0.221,1.031,0.925,0.836,1.594
	c-0.293,0.998-0.824,2.114-1.34,3.194c-0.592,1.241-1.201,2.521-1.375,3.461c0.031,0.891,0.48,1.341,1.371,1.371
	c0.941-0.174,2.223-0.783,3.463-1.375c1.078-0.516,2.195-1.047,3.193-1.339c0.674-0.197,1.379,0.177,1.598,0.843
	C58.446,98.263,58.446,101.815,57.093,105.977z M158.979,79.276c3.057,0,5.537,2.479,5.537,5.537s-2.48,5.537-5.537,5.537
	c-3.059,0-5.537-2.479-5.537-5.537S155.92,79.276,158.979,79.276z M125.068,95.886c0-3.057,2.479-5.536,5.537-5.536
	c3.057,0,5.535,2.479,5.535,5.536c0,3.059-2.479,5.537-5.535,5.537C127.547,101.423,125.068,98.944,125.068,95.886z
	 M136.141,116.649c-3.057,0-5.535-2.479-5.535-5.537c0-3.057,2.479-5.537,5.535-5.537c3.059,0,5.537,2.48,5.537,5.537
	C141.678,114.171,139.199,116.649,136.141,116.649z M138.91,88.965c0-3.057,2.479-5.536,5.535-5.536
	c3.059,0,5.537,2.479,5.537,5.536c0,3.059-2.479,5.537-5.537,5.537C141.389,94.502,138.91,92.023,138.91,88.965z M149.982,109.729
	c-3.057,0-5.537-2.479-5.537-5.537s2.48-5.536,5.537-5.536c3.059,0,5.537,2.479,5.537,5.536S153.041,109.729,149.982,109.729z
	 M164.516,105.575c-3.059,0-5.537-2.479-5.537-5.536s2.479-5.537,5.537-5.537c3.057,0,5.535,2.479,5.535,5.537
	S167.572,105.575,164.516,105.575z"/>
</svg>
