<?xml version="1.0" encoding="utf-8"?>
<!-- Generator: Adobe Illustrator 16.0.0, SVG Export Plug-In . SVG Version: 6.00 Build 0)  -->
<!DOCTYPE svg PUBLIC "-//W3C//DTD SVG 1.1 Tiny//EN" "http://www.w3.org/Graphics/SVG/1.1/DTD/svg11-tiny.dtd">
<svg version="1.1" baseProfile="tiny" id="Calque_1"
	 xmlns="http://www.w3.org/2000/svg" xmlns:xlink="http://www.w3.org/1999/xlink" x="0px" y="0px" width="192px" height="192px"
	 viewBox="0 0 192 192" xml:space="preserve">
<g>
	<path fill="#F2F2F2" d="M98.942,61.042l-2.943,2.677v38.105l11.506,9.244l11.514-9.315V63.816l-3.715-2.774H98.942z
		 M111.749,96.479l-8.41,5.331V68.272h8.41V96.479z"/>
	<polygon fill="#F2F2F2" points="152.606,61.042 143.132,61.042 138.905,75.791 134.472,61.042 125.269,61.042 125.419,103.853 
		125.167,104.046 131.202,108.705 131.388,87.93 131.521,73.423 134.655,87.588 139.167,107.982 142.665,94.994 145.634,83.983 
		145.909,95.382 146.489,118.688 146.505,119.325 146.089,119.806 145.851,120.079 152.677,125.438 152.606,61.406 	"/>
	<path fill="#F2F2F2" d="M71.14,61.042l-3.333,2.789v39.715l10.216,8.18l12.443-9.906V63.849l-3.465-2.807H71.14z M83.558,101.978
		l-8.555-5.629V68.383h8.555V101.978z"/>
	<path fill="#F2F2F2" d="M61.509,64.351l-3.812-3.309H39.133l0.194,0.198l-0.215,62.162l22.47-17.872l-0.285-0.352L61.509,64.351z
		 M54.102,96.396l-8.338,6.728V68.272h8.338V96.396z"/>
	<path fill="#F2F2F2" d="M95.999,10.999c-70.563,0-85,14.334-85,85.001s14.207,85.001,85,85.001
		c70.801,0,85.002-14.305,85.002-85.001S166.567,10.999,95.999,10.999z M154.329,124.958l0.863,4.559l-4.316,3.092l-11.506-9.276
		l-0.359-8.417l-5.252,3.597l-1.295-5.611h-0.861l-2.445,2.231l-10.43-7.841h-0.934l-13.164,10.07l-10.643-8.487l-1.295,0.287
		L81.4,118.082l-11.218-8.921h-1.082l-28.193,22.658l-4.747-3.955l1.294-3.201l0.217-62.756l-2.447-2.516h23.087l7.051,5.548
		l0.79-0.029V63.06l4.389-3.668h17.047l4.529,3.668l2.229-0.071l3.957-3.597h17.549l3.195,2.381l2.199-2.381h14.457l1.094,3.641
		l0.92,0.027l4.172-3.668h14.889l-2.518,2.015L154.329,124.958z"/>
</g>
</svg>
