<?xml version="1.0" encoding="utf-8"?>
<!-- Generator: Adobe Illustrator 16.0.0, SVG Export Plug-In . SVG Version: 6.00 Build 0)  -->
<!DOCTYPE svg PUBLIC "-//W3C//DTD SVG 1.1 Tiny//EN" "http://www.w3.org/Graphics/SVG/1.1/DTD/svg11-tiny.dtd">
<svg version="1.1" baseProfile="tiny" id="Calque_1"
	 xmlns="http://www.w3.org/2000/svg" xmlns:xlink="http://www.w3.org/1999/xlink" x="0px" y="0px" width="192px" height="192px"
	 viewBox="0 0 192 192" xml:space="preserve">
<g>
	<path fill="#F2F2F2" d="M99.561,53.681l-3.563,3.238v46.133l13.93,11.189l13.938-11.272V57.037l-4.498-3.356H99.561z
		 M115.066,96.577l-10.182,6.454V62.437h10.182V96.577z"/>
	<path fill="#F2F2F2" d="M54.247,57.684l-4.618-4.003H27.156l0.232,0.239l-0.259,75.256l27.205-21.637l-0.347-0.425L54.247,57.684z
		 M45.278,96.478l-10.095,8.147V62.437h10.095V96.478z"/>
	<path fill="#F2F2F2" d="M176.143,11H15.857c-4.471,0-8.095,3.625-8.095,8.095v153.81c0,4.471,3.624,8.095,8.095,8.095h160.286
		c4.471,0,8.096-3.624,8.096-8.095V19.095C184.238,14.625,180.613,11,176.143,11z M166.613,131.057l1.047,5.519l-5.225,3.744
		l-13.932-11.232l-0.436-10.188l-6.355,4.354l-1.568-6.791H139.1l-2.959,2.699l-12.627-9.491h-1.131l-15.934,12.19l-12.887-10.274
		l-1.567,0.348l-13.67,10.797l-13.583-10.797h-1.307l-34.132,27.428l-5.747-4.788l1.567-3.876l0.262-75.969l-2.961-3.048h27.95
		l8.533,6.718l0.958-0.035v-2.242l5.312-4.44h20.636l5.485,4.44l2.699-0.087l4.79-4.354h21.244l3.865,2.885h0.002l2.664-2.885
		h17.502l1.324,4.409l1.113,0.031l5.049-4.44h18.023l-3.047,2.438L166.613,131.057z"/>
	<path fill="#F2F2F2" d="M65.903,53.681l-4.037,3.375v48.083l12.37,9.896l15.062-11.988V57.075l-4.193-3.395H65.903z
		 M80.934,103.235l-10.356-6.81V62.567h10.356V103.235z"/>
	<polygon fill="#F2F2F2" points="164.527,53.681 153.059,53.681 147.939,71.538 142.576,53.681 131.434,53.681 131.613,105.508 
		131.309,105.744 138.617,111.378 138.842,86.23 139,68.668 142.795,85.816 148.26,110.504 152.494,94.783 156.084,81.456 
		156.424,95.254 157.121,123.465 157.141,124.237 156.635,124.821 156.35,125.151 164.613,131.64 164.527,54.121 	"/>
</g>
</svg>
