<?xml version="1.0" encoding="utf-8"?>
<!-- Generator: Adobe Illustrator 16.0.0, SVG Export Plug-In . SVG Version: 6.00 Build 0)  -->
<!DOCTYPE svg PUBLIC "-//W3C//DTD SVG 1.1//EN" "http://www.w3.org/Graphics/SVG/1.1/DTD/svg11.dtd">
<svg version="1.1" id="Calque_1" xmlns="http://www.w3.org/2000/svg" xmlns:xlink="http://www.w3.org/1999/xlink" x="0px" y="0px"
	 width="192px" height="192px" viewBox="0 0 192 192" enable-background="new 0 0 192 192" xml:space="preserve">
<path fill="#F2F2F2" d="M178.018,73.416h-0.141c-0.984-10.833-7.318-20.129-16.364-25.278l-2.448-9.79
	c-9.479-3.723-18.566-3.197-27.419,0l-2.399,9.598c-4.275,2.368-7.958,5.656-10.782,9.596H73.537
	c-2.824-3.939-6.507-7.229-10.782-9.596l-2.399-9.598c-9.48-3.723-18.566-3.197-27.42,0l-2.447,9.79
	c-9.045,5.149-15.379,14.445-16.363,25.278h-0.142L11,135.542c0,11.439,9.347,20.709,20.879,20.709
	c10.312,0,18.857-7.425,20.551-17.177l12.055-29.133c1.308-0.914,2.537-1.933,3.674-3.046h55.686
	c1.137,1.113,2.365,2.132,3.674,3.046l12.052,29.127c1.69,9.755,10.237,17.183,20.554,17.183c11.532,0,20.877-9.27,20.877-20.709
	L178.018,73.416z M41.162,59.864c0-1.283,1.04-2.323,2.322-2.323h6.322c1.283,0,2.322,1.04,2.322,2.323v8.206
	c0,0.077-0.015,0.149-0.021,0.224c0.062,0.651-0.146,1.323-0.645,1.821l-3.212,3.212c-0.886,0.886-2.324,0.886-3.21,0l-3.213-3.212
	c-0.497-0.498-0.705-1.168-0.644-1.818c-0.008-0.076-0.022-0.148-0.022-0.226V59.864z M38.205,82.196
	c-0.075,0.007-0.147,0.022-0.225,0.022h-8.205c-1.283,0-2.323-1.04-2.323-2.323v-6.322c0-1.283,1.04-2.323,2.323-2.323h8.205
	c0.077,0,0.149,0.015,0.225,0.022c0.65-0.062,1.322,0.146,1.82,0.645l3.211,3.211c0.887,0.887,0.887,2.324,0,3.211l-3.211,3.211
	C39.527,82.05,38.855,82.258,38.205,82.196z M52.129,93.605c0,1.284-1.039,2.323-2.322,2.323h-6.322
	c-1.282,0-2.322-1.039-2.322-2.323V85.4c0-0.078,0.015-0.15,0.022-0.226c-0.062-0.65,0.146-1.321,0.644-1.818l3.213-3.212
	c0.886-0.886,2.324-0.886,3.21,0l3.212,3.212c0.498,0.498,0.706,1.17,0.645,1.821c0.007,0.075,0.021,0.147,0.021,0.224V93.605z
	 M65.84,79.896c0,1.283-1.041,2.323-2.324,2.323h-8.205c-0.076,0-0.149-0.015-0.225-0.022c-0.65,0.062-1.322-0.146-1.82-0.645
	l-3.211-3.211c-0.887-0.887-0.887-2.324,0-3.211l3.211-3.211c0.498-0.499,1.17-0.706,1.82-0.645
	c0.075-0.007,0.148-0.022,0.225-0.022h8.205c1.283,0,2.324,1.04,2.324,2.323V79.896z M145.355,52.058
	c4.541,0,8.226,3.683,8.226,8.226c0,4.543-3.685,8.226-8.226,8.226s-8.227-3.683-8.227-8.226
	C137.129,55.741,140.814,52.058,145.355,52.058z M128.904,84.96c-4.542,0-8.227-3.683-8.227-8.226s3.685-8.226,8.227-8.226
	c4.541,0,8.225,3.683,8.225,8.226S133.445,84.96,128.904,84.96z M145.355,101.412c-4.541,0-8.227-3.685-8.227-8.226
	c0-4.543,3.686-8.226,8.227-8.226s8.226,3.683,8.226,8.226C153.581,97.728,149.896,101.412,145.355,101.412z M161.807,84.96
	c-4.541,0-8.226-3.683-8.226-8.226s3.685-8.226,8.226-8.226s8.227,3.683,8.227,8.226S166.348,84.96,161.807,84.96z"/>
</svg>
