<?xml version="1.0" encoding="utf-8"?>
<!-- Generator: Adobe Illustrator 16.0.0, SVG Export Plug-In . SVG Version: 6.00 Build 0)  -->
<!DOCTYPE svg PUBLIC "-//W3C//DTD SVG 1.1//EN" "http://www.w3.org/Graphics/SVG/1.1/DTD/svg11.dtd">
<svg version="1.1" id="Calque_1" xmlns="http://www.w3.org/2000/svg" xmlns:xlink="http://www.w3.org/1999/xlink" x="0px" y="0px"
	 width="192px" height="192px" viewBox="0 0 192 192" enable-background="new 0 0 192 192" xml:space="preserve">
<g id="settings">
	<path fill="#F2F2F2" d="M137.568,95.998c0-3.384-0.416-6.671-1.18-9.821l8.191-5.719c-2.25-7.04-5.98-13.417-10.836-18.756
		l-9.053,4.235c-4.74-4.525-10.545-7.938-17.004-9.828l-0.857-9.946C103.338,45.408,99.719,45,96,45
		c-3.718,0-7.338,0.408-10.831,1.163l-0.857,9.946c-6.459,1.89-12.263,5.303-17.003,9.828l-9.054-4.235
		C53.4,67.041,49.67,73.418,47.42,80.458l8.189,5.719c-0.763,3.15-1.178,6.438-1.178,9.821c0,3.387,0.416,6.674,1.178,9.824
		l-8.189,5.719c2.25,7.04,5.979,13.416,10.835,18.756l9.054-4.236c4.74,4.525,10.544,7.938,17.003,9.828l0.857,9.947
		C88.662,146.591,92.282,147,96,147c3.719,0,7.338-0.409,10.83-1.164l0.857-9.947c6.459-1.89,12.264-5.303,17.004-9.828l9.053,4.236
		c4.855-5.34,8.586-11.716,10.836-18.756l-8.191-5.719C137.152,102.672,137.568,99.385,137.568,95.998z M96,119.001
		c-12.719,0-23.029-10.31-23.029-23.028S83.281,72.944,96,72.944c12.719,0,23.029,10.31,23.029,23.028S108.719,119.001,96,119.001z"
		/>
</g>
</svg>
