<?xml version="1.0" encoding="utf-8"?>
<!-- Generator: Adobe Illustrator 16.0.0, SVG Export Plug-In . SVG Version: 6.00 Build 0)  -->
<!DOCTYPE svg PUBLIC "-//W3C//DTD SVG 1.1 Tiny//EN" "http://www.w3.org/Graphics/SVG/1.1/DTD/svg11-tiny.dtd">
<svg version="1.1" baseProfile="tiny" id="Calque_1"
	 xmlns="http://www.w3.org/2000/svg" xmlns:xlink="http://www.w3.org/1999/xlink" x="0px" y="0px" width="192px" height="192px"
	 viewBox="0 0 192 192" xml:space="preserve">
<g>
	<path fill="#F2F2F2" d="M124.663,109.802c-8.698,0.957-14.972,8.785-14.012,17.483c0.959,8.698,8.788,14.972,17.486,14.015
		c8.698-0.963,14.972-8.791,14.011-17.486C141.189,115.112,133.361,108.839,124.663,109.802z"/>
	<path fill="#F2F2F2" d="M79.412,56.476c-13.95,0-25.254,11.304-25.254,25.254c0,13.948,11.304,25.254,25.254,25.254
		c13.945,0,25.254-11.306,25.254-25.254C104.666,67.779,93.357,56.476,79.412,56.476z"/>
	<path fill="#F2F2F2" d="M96,10.999c-70.565,0-85.002,14.333-85.002,85.001c0,70.667,14.207,85.001,85.002,85.001
		c70.8,0,85.002-14.305,85.002-85.001C181.002,25.303,166.568,10.999,96,10.999z M88.786,113.704l-0.688,7.979
		c-2.801,0.605-5.704,0.935-8.686,0.935c-2.983,0-5.89-0.329-8.688-0.935l-0.688-7.979c-5.182-1.515-9.838-4.252-13.64-7.883
		l-7.26,3.398c-3.897-4.283-6.889-9.397-8.693-15.046l6.571-4.586c-0.615-2.53-0.945-5.165-0.945-7.88
		c0-2.718,0.33-5.353,0.945-7.88l-6.571-4.589c1.805-5.646,4.796-10.761,8.693-15.044l7.26,3.396
		c3.802-3.629,8.458-6.368,13.64-7.882l0.688-7.98c2.799-0.605,5.705-0.933,8.688-0.933c2.981,0,5.885,0.327,8.686,0.933l0.688,7.98
		c5.182,1.514,9.836,4.253,13.639,7.882l7.265-3.396c3.892,4.283,6.883,9.398,8.688,15.044l-6.568,4.589
		c0.615,2.527,0.945,5.162,0.945,7.88c0,2.715-0.33,5.35-0.945,7.88l6.568,4.586c-1.805,5.648-4.796,10.763-8.688,15.046
		l-7.265-3.398C98.622,109.452,93.968,112.189,88.786,113.704z M147.172,140.608l-4.764-1.617c-2.119,2.523-4.835,4.553-7.961,5.854
		l0.119,5.023c-1.703,0.57-3.494,0.975-5.352,1.18c-1.861,0.205-3.695,0.199-5.482,0.014l-0.977-4.928
		c-3.339-0.588-6.43-1.975-9.05-3.978l-4.296,2.618c-2.725-2.403-4.939-5.387-6.456-8.783l3.782-3.312
		c-0.557-1.533-0.944-3.156-1.13-4.85c-0.188-1.691-0.164-3.359,0.046-4.979l-4.415-2.408c0.74-3.647,2.252-7.041,4.386-9.982
		l4.765,1.619c2.122-2.521,4.835-4.551,7.963-5.853l-0.122-5.022c1.707-0.571,3.494-0.975,5.355-1.18
		c1.86-0.205,3.694-0.2,5.481-0.017l0.979,4.929c3.336,0.59,6.424,1.974,9.047,3.979l4.293-2.617
		c2.725,2.402,4.942,5.387,6.456,8.783l-3.78,3.311c0.557,1.533,0.945,3.155,1.131,4.85c0.186,1.695,0.161,3.36-0.047,4.979
		l4.413,2.408C150.82,134.274,149.307,137.671,147.172,140.608z"/>
</g>
</svg>
