<?xml version="1.0" encoding="utf-8"?>
<!-- Generator: Adobe Illustrator 16.0.0, SVG Export Plug-In . SVG Version: 6.00 Build 0)  -->
<!DOCTYPE svg PUBLIC "-//W3C//DTD SVG 1.1//EN" "http://www.w3.org/Graphics/SVG/1.1/DTD/svg11.dtd">
<svg version="1.1" id="Calque_1" xmlns="http://www.w3.org/2000/svg" xmlns:xlink="http://www.w3.org/1999/xlink" x="0px" y="0px"
	 width="192px" height="192px" viewBox="0 0 192 192" enable-background="new 0 0 192 192" xml:space="preserve">
<g>
	<g id="settings_1_">
		<path fill="#F2F2F2" d="M110.791,145.013c0.287,2.607,0.886,5.104,1.742,7.466l-5.822,5.101c2.33,5.23,5.746,9.826,9.939,13.525
			l6.613-4.032c4.035,3.083,8.796,5.22,13.932,6.126l1.506,7.588c2.754,0.285,5.577,0.292,8.441-0.023
			c2.863-0.316,5.618-0.938,8.243-1.816l-0.185-7.734c4.814-2.005,8.994-5.127,12.262-9.016l7.332,2.494
			c3.287-4.525,5.617-9.756,6.752-15.368l-6.793-3.708c0.32-2.492,0.359-5.06,0.072-7.667c-0.287-2.608-0.887-5.104-1.742-7.466
			l5.822-5.102c-2.332-5.23-5.746-9.825-9.939-13.526l-6.613,4.032c-4.037-3.082-8.796-5.218-13.932-6.125l-1.506-7.588
			c-2.754-0.285-5.578-0.292-8.441,0.023c-2.864,0.316-5.619,0.939-8.244,1.816l0.186,7.734c-4.814,2.006-8.996,5.127-12.262,9.016
			l-7.334-2.494c-3.285,4.525-5.617,9.755-6.752,15.368l6.795,3.709C110.543,139.837,110.503,142.404,110.791,145.013z
			 M140.135,117.25c13.394-1.478,25.448,8.182,26.926,21.575c1.478,13.393-8.182,25.447-21.574,26.925
			c-13.394,1.478-25.448-8.182-26.926-21.574C117.083,130.782,126.742,118.728,140.135,117.25z"/>
	</g>
	<g id="settings_4_">
		<path fill="#F2F2F2" d="M19.114,73.993c0,4.182,0.512,8.24,1.455,12.133l-10.116,7.063c2.779,8.695,7.386,16.572,13.384,23.167
			l11.182-5.232c5.854,5.589,13.023,9.806,21.002,12.14l1.059,12.285c4.312,0.934,8.785,1.438,13.378,1.438
			c4.592,0,9.064-0.504,13.377-1.438l1.059-12.285c7.979-2.334,15.147-6.551,21.002-12.14l11.183,5.232
			c5.997-6.595,10.604-14.472,13.384-23.167l-10.117-7.063c0.943-3.893,1.455-7.951,1.455-12.133s-0.512-8.242-1.455-12.134
			l10.117-7.063c-2.779-8.694-7.387-16.57-13.384-23.166l-11.183,5.232c-5.854-5.59-13.023-9.805-21.002-12.14l-1.059-12.286
			C79.521,11.504,75.049,11,70.457,11c-4.593,0-9.065,0.504-13.378,1.436l-1.059,12.286c-7.979,2.335-15.147,6.55-21.002,12.14
			l-11.182-5.232c-5.998,6.596-10.604,14.472-13.384,23.166l10.116,7.063C19.626,65.75,19.114,69.811,19.114,73.993z M70.457,35.139
			c21.477,0,38.887,17.41,38.887,38.887s-17.41,38.887-38.887,38.887S31.57,95.502,31.57,74.026S48.98,35.139,70.457,35.139z"/>
	</g>
</g>
</svg>
