<?xml version="1.0" encoding="utf-8"?>
<!-- Generator: Adobe Illustrator 16.0.0, SVG Export Plug-In . SVG Version: 6.00 Build 0)  -->
<!DOCTYPE svg PUBLIC "-//W3C//DTD SVG 1.1//EN" "http://www.w3.org/Graphics/SVG/1.1/DTD/svg11.dtd">
<svg version="1.1" id="Calque_1" xmlns="http://www.w3.org/2000/svg" xmlns:xlink="http://www.w3.org/1999/xlink" x="0px" y="0px"
	 width="192px" height="192px" viewBox="0 0 192 192" enable-background="new 0 0 192 192" xml:space="preserve">
<path fill="#F2F2F2" d="M155.878,62.318c-0.028-0.01-0.058-0.02-0.085-0.028c-0.658-0.222-1.324-0.426-1.998-0.611
	c-0.014-0.004-0.027-0.008-0.041-0.012c-1.841-0.502-3.736-0.868-5.68-1.082c0.006-0.077,0.022-0.151,0.022-0.229
	c0-1.516-1.226-2.742-2.741-2.742h-19.193c-1.516,0-2.742,1.227-2.742,2.742H68.581c0-1.515-1.228-2.742-2.741-2.742H46.646
	c-1.515,0-2.742,1.228-2.742,2.742c0,0.078,0.017,0.152,0.023,0.229c-1.943,0.214-3.839,0.58-5.679,1.082
	c-0.014,0.004-0.029,0.008-0.043,0.012c-0.673,0.185-1.337,0.39-1.994,0.61c-0.03,0.01-0.061,0.021-0.09,0.03
	C21.516,67.274,11,81.09,11,97.371c0,20.443,16.572,37.016,37.017,37.016c7.11,0,13.75-2.008,19.39-5.483h57.188
	c5.641,3.476,12.279,5.483,19.391,5.483c20.443,0,37.016-16.572,37.016-37.016C181,81.089,170.484,67.273,155.878,62.318z
	 M61.726,101.664c0,0.656-0.534,1.191-1.191,1.191H53.5v7.033c0,0.657-0.534,1.191-1.191,1.191h-8.584
	c-0.658,0-1.191-0.534-1.191-1.191v-7.033h-7.035c-0.657,0-1.191-0.535-1.191-1.191v-8.585c0-0.658,0.534-1.191,1.191-1.191h7.035
	v-7.035c0-0.657,0.533-1.191,1.191-1.191h8.584c0.657,0,1.191,0.534,1.191,1.191v7.035h7.034c0.657,0,1.191,0.533,1.191,1.191
	V101.664z M127.538,104.227c0,0-0.003,0-0.006,0c-3.786,0.002-6.854-3.066-6.856-6.85c-0.004-3.787,3.065-6.858,6.852-6.86
	c0,0,0.003,0,0.005,0c3.786-0.002,6.855,3.065,6.86,6.851C134.393,101.152,131.324,104.227,127.538,104.227z M150.839,111.08
	c0.003,3.787-3.065,6.855-6.849,6.861c-3.787,0-6.858-3.068-6.86-6.855c0,0,0-0.003,0-0.006c0-3.785,3.065-6.854,6.85-6.856
	c3.786-0.003,6.859,3.065,6.859,6.852C150.839,111.075,150.839,111.078,150.839,111.08z M150.839,83.661
	c0.003,3.786-3.065,6.856-6.849,6.859c-3.787,0.001-6.858-3.066-6.86-6.853c0-0.002,0-0.004,0-0.007c0-3.786,3.065-6.855,6.85-6.857
	c3.786-0.003,6.859,3.064,6.859,6.851C150.839,83.657,150.839,83.658,150.839,83.661z M160.441,104.227c0,0-0.003,0-0.006,0
	c-3.785,0.002-6.855-3.066-6.857-6.85c-0.002-3.787,3.066-6.858,6.853-6.86c0,0,0.003,0,0.005,0c3.787-0.002,6.855,3.065,6.86,6.851
	C167.296,101.152,164.227,104.227,160.441,104.227z"/>
</svg>
