<?xml version="1.0" encoding="utf-8"?>
<!-- Generator: Adobe Illustrator 16.0.0, SVG Export Plug-In . SVG Version: 6.00 Build 0)  -->
<!DOCTYPE svg PUBLIC "-//W3C//DTD SVG 1.1//EN" "http://www.w3.org/Graphics/SVG/1.1/DTD/svg11.dtd">
<svg version="1.1" id="Calque_1" xmlns="http://www.w3.org/2000/svg" xmlns:xlink="http://www.w3.org/1999/xlink" x="0px" y="0px"
	 width="192px" height="192px" viewBox="0 0 192 192" enable-background="new 0 0 192 192" xml:space="preserve">
<path fill="#F2F2F2" d="M178.258,38.419h-4.199h-21.764c-0.805,0-1.457,0.651-1.457,1.457c0-0.806-0.65-1.457-1.456-1.457H42.618
	c-0.806,0-1.456,0.651-1.456,1.457c0-0.806-0.652-1.457-1.457-1.457H19.226h-5.483c-1.516,0-2.742,1.226-2.742,2.742v0.856v1.886
	v1.885c0,0.469,0.389,0.857,0.857,0.857h0.514c0.75,0,1.371,0.621,1.371,1.371s-0.621,1.371-1.371,1.371h-0.344
	c-0.57,0-1.027,0.457-1.027,1.027v0.686c0,0.57,0.457,1.028,1.027,1.028h0.344c0.75,0,1.371,0.622,1.371,1.371
	c0,0.75-0.621,1.371-1.371,1.371h-0.344c-0.572,0-1.027,0.455-1.027,1.028v0.685c0,0.573,0.455,1.029,1.027,1.029h0.344
	c0.75,0,1.371,0.621,1.371,1.371c0,0.749-0.621,1.37-1.371,1.37h-0.344c-0.572,0-1.027,0.455-1.027,1.028v0.686
	c0,0.573,0.455,1.028,1.027,1.028h0.344c0.75,0,1.371,0.621,1.371,1.371s-0.621,1.371-1.371,1.371h-0.344
	c-0.572,0-1.027,0.455-1.027,1.028v0.686c0,0.573,0.455,1.028,1.027,1.028h0.344c0.75,0,1.371,0.621,1.371,1.37
	c0,0.75-0.621,1.371-1.371,1.371h0.172c-0.854,0-1.543,0.688-1.543,1.543v72.488v3.943v1.541c0,1.521,1.221,2.742,2.742,2.742h4.199
	h1.284h20.479c0.805,0,1.457-0.65,1.457-1.457c0,0.807,0.65,1.457,1.456,1.457h106.764c0.806,0,1.456-0.65,1.456-1.457
	c0,0.807,0.652,1.457,1.457,1.457h21.764h4.199c1.521,0,2.742-1.221,2.742-2.742v-1.541V72.865c0-0.854-0.688-1.543-1.543-1.543
	h0.172c-0.75,0-1.371-0.621-1.371-1.371c0-0.749,0.621-1.37,1.371-1.37h0.344c0.572,0,1.027-0.455,1.027-1.028v-0.686
	c0-0.573-0.455-1.028-1.027-1.028h-0.344c-0.75,0-1.371-0.621-1.371-1.371s0.621-1.371,1.371-1.371h0.344
	c0.572,0,1.027-0.455,1.027-1.028v-0.686c0-0.573-0.455-1.028-1.027-1.028h-0.344c-0.75,0-1.371-0.621-1.371-1.37
	c0-0.75,0.621-1.371,1.371-1.371h0.344c0.57,0,1.027-0.458,1.027-1.029v-0.685c0-0.57-0.457-1.028-1.027-1.028h-0.344
	c-0.75,0-1.371-0.621-1.371-1.371c0-0.749,0.621-1.371,1.371-1.371h0.344c0.57,0,1.027-0.458,1.027-1.028v-0.686
	c0-0.57-0.457-1.027-1.027-1.027h-0.344c-0.75,0-1.371-0.621-1.371-1.371s0.621-1.371,1.371-1.371h0.514
	c0.469,0,0.857-0.389,0.857-0.857v-1.885v-2.742C181,39.642,179.779,38.419,178.258,38.419z M24.71,148.096
	c-1.516,0-2.742-1.227-2.742-2.742s1.227-2.742,2.742-2.742c1.515,0,2.741,1.227,2.741,2.742S26.225,148.096,24.71,148.096z
	 M138.5,117.936h-26.049H79.549H53.5c-2.271,0-4.113-1.844-4.113-4.113c0-2.271,1.842-4.113,4.113-4.113h26.049h32.902H138.5
	c2.271,0,4.113,1.842,4.113,4.113C142.613,116.092,140.771,117.936,138.5,117.936z M156.322,93.258H35.678
	c-4.541,0-8.227-3.684-8.227-8.226V52.129c0-4.542,3.686-8.226,8.227-8.226h120.645c4.541,0,8.227,3.684,8.227,8.226v32.903
	C164.549,89.574,160.863,93.258,156.322,93.258z M167.29,148.096c-1.515,0-2.741-1.227-2.741-2.742s1.227-2.742,2.741-2.742
	c1.516,0,2.742,1.227,2.742,2.742S168.806,148.096,167.29,148.096z"/>
</svg>
