<?xml version="1.0" encoding="utf-8"?>
<!-- Generator: Adobe Illustrator 16.0.0, SVG Export Plug-In . SVG Version: 6.00 Build 0)  -->
<!DOCTYPE svg PUBLIC "-//W3C//DTD SVG 1.1//EN" "http://www.w3.org/Graphics/SVG/1.1/DTD/svg11.dtd">
<svg version="1.1" id="Calque_1" xmlns="http://www.w3.org/2000/svg" xmlns:xlink="http://www.w3.org/1999/xlink" x="0px" y="0px"
	 width="192px" height="192px" viewBox="0 0 192 192" enable-background="new 0 0 192 192" xml:space="preserve">
<g id="layer1_2_" transform="translate(0,-988.3622)" inkscape:label="Calque 1" inkscape:groupmode="layer">
	
		<path id="path3949_1_" sodipodi:rx="54.191292" sodipodi:type="arc" sodipodi:cy="398.20993" sodipodi:cx="1280.9564" sodipodi:ry="54.976673" fill="#F2F2F2" d="
		M150.885,1072.014c0,3.789-3.068,6.861-6.855,6.864c-3.789,0.001-6.865-3.068-6.865-6.858c0-0.001,0-0.004,0-0.006
		c0-3.79,3.068-6.862,6.855-6.865c3.789-0.001,6.865,3.068,6.865,6.858C150.885,1072.009,150.885,1072.011,150.885,1072.014z"/>
	
		<path id="path3949-3_1_" sodipodi:rx="54.191292" sodipodi:type="arc" sodipodi:cy="398.20993" sodipodi:cx="1280.9564" sodipodi:ry="54.976673" fill="#F2F2F2" d="
		M150.885,1099.456c0,3.789-3.068,6.86-6.855,6.866c-3.789,0-6.865-3.071-6.865-6.86c0,0,0-0.003,0-0.006
		c0-3.789,3.068-6.86,6.855-6.866c3.789,0,6.865,3.071,6.865,6.86C150.885,1099.45,150.885,1099.454,150.885,1099.456z"/>
	
		<path id="path3949-9_1_" sodipodi:rx="54.191292" sodipodi:type="arc" sodipodi:cy="398.20993" sodipodi:cx="1280.9564" sodipodi:ry="54.976673" fill="#F2F2F2" d="
		M160.49,1092.596c-3.789,0.003-6.861-3.069-6.865-6.855c0-3.791,3.07-6.864,6.859-6.866c0,0,0.004,0,0.006,0
		c3.789-0.001,6.861,3.068,6.865,6.857c0,3.787-3.07,6.864-6.859,6.864C160.496,1092.596,160.492,1092.596,160.49,1092.596z"/>
	
		<path id="path3949-3-0_1_" sodipodi:rx="54.191292" sodipodi:type="arc" sodipodi:cy="398.20993" sodipodi:cx="1280.9564" sodipodi:ry="54.976673" fill="#F2F2F2" d="
		M127.559,1092.596c-3.789,0.003-6.861-3.069-6.865-6.855c0-3.791,3.07-6.864,6.861-6.866c0,0,0.002,0,0.004,0
		c3.789-0.001,6.861,3.068,6.867,6.857c0,3.787-3.072,6.864-6.861,6.864C127.564,1092.596,127.562,1092.596,127.559,1092.596z"/>
	<path fill="#F2F2F2" d="M164.188,1054.66c0.018-0.03,0.039-0.058,0.057-0.09c0.729-1.329,0.242-2.997-1.086-3.726
		c-5.264-2.887-11.195-4.546-17.191-4.841c-0.184-0.039-0.375-0.061-0.57-0.061h-19.209c-1.518,0-2.744,1.228-2.744,2.744H68.557
		c0-1.515-1.228-2.744-2.744-2.744H46.602c-0.195,0-0.385,0.022-0.569,0.061c-5.996,0.295-11.928,1.955-17.19,4.841
		c-1.33,0.729-1.815,2.397-1.087,3.726c0.018,0.032,0.039,0.059,0.058,0.09c-10.161,6.606-16.886,18.051-16.886,31.074
		c0,20.462,16.586,37.048,37.048,37.048c7.117,0,13.762-2.01,19.406-5.488h57.238c5.645,3.479,12.289,5.488,19.406,5.488
		c20.461,0,37.047-16.586,37.047-37.048C181.072,1072.711,174.348,1061.266,164.188,1054.66z M61.697,1090.03
		c0,0.657-0.536,1.193-1.192,1.193h-7.04v7.04c0,0.656-0.537,1.192-1.193,1.192h-8.592c-0.657,0-1.193-0.536-1.193-1.192v-7.04
		h-7.04c-0.656,0-1.192-0.536-1.192-1.193v-8.592c0-0.658,0.536-1.192,1.192-1.192h7.04v-7.04c0-0.658,0.536-1.192,1.193-1.192
		h8.592c0.656,0,1.193,0.534,1.193,1.192v7.04h7.04c0.656,0,1.192,0.534,1.192,1.192V1090.03z M89.29,1092.134l-8.233,5.489
		c-0.468,0.312-0.997,0.461-1.521,0.461c-0.887,0-1.756-0.429-2.285-1.222c-0.841-1.262-0.5-2.965,0.761-3.806l8.233-5.489
		c1.26-0.84,2.964-0.5,3.806,0.762C90.89,1089.59,90.549,1091.294,89.29,1092.134z M105.754,1092.134l-8.232,5.489
		c-0.467,0.312-0.997,0.461-1.52,0.461c-0.887,0-1.756-0.429-2.285-1.222c-0.841-1.262-0.5-2.965,0.761-3.806l8.232-5.489
		c1.262-0.84,2.965-0.5,3.807,0.762C107.355,1089.59,107.016,1091.294,105.754,1092.134z M127.564,1094.722L127.564,1094.722
		c-4.953,0-8.984-4.027-8.986-8.979c-0.002-2.203,0.779-4.277,2.215-5.916l-0.053-0.065l0.541-0.487l18.355-15.27l0.094,0.121
		c1.316-0.719,2.783-1.096,4.289-1.097c4.955,0,8.984,4.026,8.986,8.977c0.002,2.241-0.805,4.34-2.285,5.99l0.049,0.062l-0.555,0.49
		l-15.992,13.198C132.52,1093.634,130.096,1094.719,127.564,1094.722z M165.574,1093.139l-15.381,12.837
		c-1.643,1.576-3.846,2.465-6.162,2.467h-0.002c-4.951,0-8.982-4.027-8.986-8.978c-0.002-2.031,0.682-3.981,1.936-5.567l-0.08-0.09
		l0.57-0.516l18.406-15.392l0.072,0.086c1.375-0.811,2.93-1.236,4.537-1.237c4.957,0,8.984,4.027,8.986,8.976
		C169.473,1088.69,168.016,1091.458,165.574,1093.139z"/>
</g>
</svg>
