<?xml version="1.0" encoding="utf-8"?>
<!-- Generator: Adobe Illustrator 16.0.0, SVG Export Plug-In . SVG Version: 6.00 Build 0)  -->
<!DOCTYPE svg PUBLIC "-//W3C//DTD SVG 1.1//EN" "http://www.w3.org/Graphics/SVG/1.1/DTD/svg11.dtd">
<svg version="1.1" id="Calque_1" xmlns="http://www.w3.org/2000/svg" xmlns:xlink="http://www.w3.org/1999/xlink" x="0px" y="0px"
	 width="192px" height="192px" viewBox="0 0 192 192" enable-background="new 0 0 192 192" xml:space="preserve">
<g>
	<circle fill="#F2F2F2" cx="53.502" cy="94.628" r="4.113"/>
	<path fill="#F2F2F2" d="M178.252,63.099h-67.173h-16.45H13.748c-1.515,0-2.742,1.228-2.742,2.742v60.318
		c0,1.516,1.227,2.742,2.742,2.742h164.504c1.516,0,2.742-1.227,2.742-2.742V65.841C180.994,64.326,179.768,63.099,178.252,63.099z
		 M175.512,115.192c0,1.516-1.227,2.741-2.742,2.741H19.231c-1.515,0-2.742-1.226-2.742-2.741V74.065
		c0-1.514,1.228-2.741,2.742-2.741h75.398v3.989h0.008c-0.002,0.041-0.008,0.081-0.008,0.123c0,3.786,3.684,6.854,8.227,6.854
		c4.539,0,8.224-3.068,8.224-6.854c0-0.042-0.007-0.082-0.007-0.123h0.007v-3.989h61.69c1.516,0,2.742,1.228,2.742,2.741V115.192z"
		/>
	<path fill="#F2F2F2" d="M157.689,85.033c-4.836,0-8.832,3.574-9.496,8.225h-2.94c-0.665-4.65-4.661-8.225-9.497-8.225
		s-8.832,3.574-9.498,8.225h-2.939c-0.665-4.65-4.661-8.225-9.497-8.225c-4.835,0-8.832,3.574-9.497,8.225h-2.939
		c-0.666-4.65-4.663-8.225-9.498-8.225c-4.834,0-8.831,3.574-9.497,8.225H71.267c-0.702-9.201-8.384-16.45-17.765-16.45
		c-9.843,0-17.822,7.979-17.822,17.821s7.979,17.821,17.822,17.821c9.381,0,17.063-7.25,17.765-16.451H82.39
		c0.665,4.652,4.663,8.226,9.497,8.226c4.834,0,8.832-3.573,9.498-8.226h2.939c0.665,4.652,4.662,8.226,9.497,8.226
		c4.836,0,8.832-3.573,9.497-8.226h2.939c0.666,4.652,4.662,8.226,9.498,8.226s8.832-3.573,9.497-8.226h2.938
		c0.666,4.652,4.662,8.226,9.498,8.226c5.302,0,9.596-4.294,9.596-9.596C167.285,89.329,162.991,85.033,157.689,85.033z
		 M53.502,109.708c-8.328,0-15.08-6.752-15.08-15.079c0-8.328,6.751-15.08,15.08-15.08s15.08,6.752,15.08,15.08
		C68.583,102.956,61.831,109.708,53.502,109.708z M91.887,101.483c-3.786,0-6.854-3.068-6.854-6.854
		c0-3.785,3.068-6.854,6.854-6.854c3.787,0,6.855,3.069,6.855,6.854C98.742,98.415,95.674,101.483,91.887,101.483z M113.821,101.483
		c-3.786,0-6.854-3.068-6.854-6.854c0-3.785,3.068-6.854,6.854-6.854s6.854,3.069,6.854,6.854
		C120.676,98.415,117.607,101.483,113.821,101.483z M135.756,101.483c-3.787,0-6.855-3.068-6.855-6.854
		c0-3.785,3.068-6.854,6.855-6.854c3.785,0,6.854,3.069,6.854,6.854C142.609,98.415,139.541,101.483,135.756,101.483z
		 M157.689,101.483c-3.786,0-6.855-3.068-6.855-6.854c0-3.785,3.069-6.854,6.855-6.854s6.854,3.069,6.854,6.854
		C164.543,98.415,161.476,101.483,157.689,101.483z"/>
</g>
</svg>
