<?xml version="1.0" encoding="utf-8"?>
<!-- Generator: Adobe Illustrator 16.0.0, SVG Export Plug-In . SVG Version: 6.00 Build 0)  -->
<!DOCTYPE svg PUBLIC "-//W3C//DTD SVG 1.1//EN" "http://www.w3.org/Graphics/SVG/1.1/DTD/svg11.dtd">
<svg version="1.1" id="Calque_1" xmlns="http://www.w3.org/2000/svg" xmlns:xlink="http://www.w3.org/1999/xlink" x="0px" y="0px"
	 width="192px" height="192px" viewBox="0 0 192 192" enable-background="new 0 0 192 192" xml:space="preserve">
<path fill="#F2F2F2" d="M170.533,86.686c-3.411-5.763-4.974-11.599-2.127-19.859c13.948-14.877-3.021-53.633-37.41-31.576
	l-11.533,7.191H72.279L60.746,35.25C26.28,13.146,9.311,52.121,23.426,66.925c2.864,7.971,1.554,13.231-2.217,19.761
	c-13.983,24.887-10.116,46.996-8.296,66.366c2.6,13.776,23.178,13.776,24.888,0c2.02-31.523,2.765-30.418,5.53-55.305
	c1.875-8.675,8.296-13.827,13.826-13.827h8.296v24.999c0,1.467,1.188,2.654,2.654,2.654h55.526c1.467,0,2.654-1.188,2.654-2.654
	V83.92h8.296c5.531,0,11.858,3.494,13.827,13.827c4.107,24.609,3.556,25.162,5.529,55.305c1.756,14.053,21.781,13.5,24.889,0
	C182.213,133.544,183.042,110.348,170.533,86.686z M53.009,51.953c0,0.856-0.693,1.55-1.55,1.55h-5.363v5.364
	c0,0.855-0.694,1.549-1.55,1.549h-5.195c-0.856,0-1.55-0.694-1.55-1.549v-5.364h-5.363c-0.856,0-1.55-0.694-1.55-1.55v-5.195
	c0-0.856,0.694-1.55,1.55-1.55h5.363v-5.363c0-0.856,0.693-1.549,1.55-1.549h5.195c0.856,0,1.55,0.693,1.55,1.549v5.363h5.363
	c0.856,0,1.55,0.694,1.55,1.55V51.953z M61.996,63.181c-2.672,0-4.839-2.167-4.839-4.839c0-2.672,2.167-4.839,4.839-4.839
	c2.673,0,4.84,2.167,4.84,4.839C66.836,61.014,64.669,63.181,61.996,63.181z M74.63,68.711c-2.567,0-4.647-2.167-4.647-4.839
	c0-2.672,2.08-4.839,4.647-4.839s4.649,2.167,4.649,4.839C79.279,66.545,77.197,68.711,74.63,68.711z M102.168,49.123l-4.147,2.765
	c-0.227,0.151-0.494,0.232-0.768,0.232h-5.529c-0.273,0-0.54-0.081-0.767-0.232l-4.148-2.765c-0.508-0.338-0.733-0.968-0.557-1.551
	c0.177-0.583,0.714-0.982,1.323-0.982h13.827c0.609,0,1.146,0.398,1.322,0.982C102.901,48.155,102.675,48.785,102.168,49.123z
	 M117.112,68.711c-2.567,0-4.65-2.167-4.65-4.839c0-2.672,2.083-4.839,4.65-4.839c2.565,0,4.648,2.167,4.648,4.839
	C121.761,66.545,119.678,68.711,117.112,68.711z M129.745,63.181c-2.673,0-4.839-2.167-4.839-4.839c0-2.672,2.166-4.839,4.839-4.839
	s4.839,2.167,4.839,4.839C134.584,61.014,132.418,63.181,129.745,63.181z M160.854,51.953c0,0.856-0.694,1.55-1.551,1.55h-5.363
	v5.364c0,0.855-0.693,1.549-1.549,1.549h-5.196c-0.856,0-1.55-0.694-1.55-1.549v-5.364h-5.363c-0.855,0-1.55-0.694-1.55-1.55v-5.195
	c0-0.856,0.694-1.55,1.55-1.55h5.363v-5.363c0-0.856,0.693-1.549,1.55-1.549h5.196c0.855,0,1.549,0.693,1.549,1.549v5.363h5.363
	c0.856,0,1.551,0.694,1.551,1.55V51.953z"/>
</svg>
