<?xml version="1.0" encoding="utf-8"?>
<!-- Generator: Adobe Illustrator 16.0.0, SVG Export Plug-In . SVG Version: 6.00 Build 0)  -->
<!DOCTYPE svg PUBLIC "-//W3C//DTD SVG 1.1//EN" "http://www.w3.org/Graphics/SVG/1.1/DTD/svg11.dtd">
<svg version="1.1" id="Calque_1" xmlns="http://www.w3.org/2000/svg" xmlns:xlink="http://www.w3.org/1999/xlink" x="0px" y="0px"
	 width="192px" height="192px" viewBox="0 0 192 192" enable-background="new 0 0 192 192" xml:space="preserve">
<path fill="#F2F2F2" d="M183.857,131.427V43.569c0-1.564-1.268-2.834-2.834-2.834H10.977c-1.564,0-2.834,1.27-2.834,2.834v76.52
	c0,1.568,1.27,2.836,2.834,2.836v8.502c0,1.566,1.27,2.834,2.835,2.834v6.305c-1.664,0.568-2.835,1.631-2.835,3.613
	c0,2.65,1.444,4.947,3.588,6.164c0.518,0.563,1.255,0.922,2.081,0.922h161.543c0.826,0,1.563-0.359,2.082-0.924
	c2.143-1.215,3.586-3.512,3.586-6.162c0-1.982-1.172-3.045-2.834-3.613v-6.305C182.59,134.261,183.857,132.993,183.857,131.427z
	 M63.408,46.404h65.184c2.348,0,4.252,1.902,4.252,4.251c0,2.348-1.904,4.251-4.252,4.251H63.408c-2.348,0-4.251-1.903-4.251-4.251
	C59.157,48.307,61.06,46.404,63.408,46.404z M178.189,131.427h-2.834c0,4.682,0,11.973,0,17.004c-2.834,0,0,0-2.834,0
	c0-5.35,0-11.857,0-17.004h-2.834c0,3.902,0,9.977,0,14.17c-2.834,0,0,0-2.834,0c0-4.459,0-9.881,0-14.17h-2.836
	c0,3.902,0,9.977,0,14.17c-2.834,0,0,0-2.834,0c0-4.459,0-9.881,0-14.17h-2.834c0,3.902,0,9.977,0,14.17c-2.834,0,0,0-2.834,0
	c0-4.459,0-9.881,0-14.17h-2.834c0,3.902,0,9.977,0,14.17c-2.834,0,0,0-2.834,0c0-4.459,0-9.881,0-14.17h-2.834
	c0,3.902,0,9.977,0,14.17c-2.834,0,0,0-2.834,0c0-4.459,0-9.881,0-14.17h-2.834c0,3.902,0,9.977,0,14.17c-2.834,0,0,0-2.834,0
	c0-4.459,0-9.881,0-14.17h-2.834c0,3.902,0,9.977,0,14.17c-2.834,0,0,0-2.834,0c0-4.459,0-9.881,0-14.17h-2.834
	c0,3.902,0,9.977,0,14.17c-2.834,0,0,0-2.834,0c0-4.459,0-9.881,0-14.17h-2.834c0,3.902,0,9.977,0,14.17c-2.834,0,0,0-2.834,0
	c0-4.459,0-9.881,0-14.17h-2.834c0,3.902,0,9.977,0,14.17c-2.834,0,0,0-2.834,0c0-4.459,0-9.881,0-14.17h-2.836
	c0,3.902,0,9.977,0,14.17c-2.834,0,0,0-2.834,0c0-4.459,0-9.881,0-14.17h-2.834c0,3.902,0,9.977,0,14.17c-2.834,0,0,0-2.834,0
	c0-4.459,0-9.881,0-14.17h-2.834c0,4.682,0,11.973,0,17.004c-2.834,0,0,0-2.834,0c0-5.35,0-11.857,0-17.004H96
	c0,4.682,0,11.973,0,17.004c-2.833,0,0,0-2.833,0c0-5.35,0-11.857,0-17.004h-2.834c0,3.902,0,9.977,0,14.17c-2.835,0,0,0-2.835,0
	c0-4.459,0-9.881,0-14.17h-2.834c0,3.902,0,9.977,0,14.17c-2.834,0,0,0-2.834,0c0-4.459,0-9.881,0-14.17h-2.834
	c0,3.902,0,9.977,0,14.17c-2.834,0,0,0-2.834,0c0-4.459,0-9.881,0-14.17h-2.834c0,3.902,0,9.977,0,14.17c-2.834,0,0,0-2.834,0
	c0-4.459,0-9.881,0-14.17H67.66c0,3.902,0,9.977,0,14.17c-2.834,0,0,0-2.834,0c0-4.459,0-9.881,0-14.17h-2.835
	c0,3.902,0,9.977,0,14.17c-2.834,0,0,0-2.834,0c0-4.459,0-9.881,0-14.17h-2.834c0,3.902,0,9.977,0,14.17c-2.834,0,0,0-2.834,0
	c0-4.459,0-9.881,0-14.17h-2.834c0,3.902,0,9.977,0,14.17c-2.834,0,0,0-2.834,0c0-4.459,0-9.881,0-14.17h-2.834
	c0,3.902,0,9.977,0,14.17c-2.834,0,0,0-2.834,0c0-4.459,0-9.881,0-14.17h-2.834c0,3.902,0,9.977,0,14.17c-2.835,0,0,0-2.835,0
	c0-4.459,0-9.881,0-14.17H33.65c0,3.902,0,9.977,0,14.17c-2.834,0,0,0-2.834,0c0-4.459,0-9.881,0-14.17h-2.834
	c0,3.902,0,9.977,0,14.17c-2.834,0,0,0-2.834,0c0-4.459,0-9.881,0-14.17h-2.834c0,4.682,0,11.973,0,17.004c-2.834,0,0,0-2.834,0
	c0-5.35,0-11.857,0-17.004h-2.834v-5.668h161.543V131.427z M178.189,113.005c0,3.914-3.172,7.084-7.086,7.084H20.897
	c-3.914,0-7.085-3.17-7.085-7.084v-48.18c0-3.913,3.171-7.085,7.085-7.085h150.207c3.914,0,7.086,3.172,7.086,7.085V113.005z"/>
</svg>
