<?xml version="1.0" encoding="utf-8"?>
<!-- Generator: Adobe Illustrator 16.0.0, SVG Export Plug-In . SVG Version: 6.00 Build 0)  -->
<!DOCTYPE svg PUBLIC "-//W3C//DTD SVG 1.1//EN" "http://www.w3.org/Graphics/SVG/1.1/DTD/svg11.dtd">
<svg version="1.1" id="Calque_1" xmlns="http://www.w3.org/2000/svg" xmlns:xlink="http://www.w3.org/1999/xlink" x="0px" y="0px"
	 width="192px" height="192px" viewBox="0 0 192 192" enable-background="new 0 0 192 192" xml:space="preserve">
<path fill="#F2F2F2" d="M158.322,45.592c-31.286-5.214-39.717,2.837-59.576,2.837c-19.858,0-34.043-8.511-56.739-2.837
	c-9.878,1.832-19.859-1.241-28.371,8.512c-8.809,10.094-5.673,70.924,0,82.272c3.548,7.1,7.976,11.422,14.186,11.35
	c28.369,0,34.043,1.424,42.554,0c34.044-5.676,48.229,5.674,93.622-2.838c15.299-2.867,19.426-7.934,19.859-14.186V73.963h-0.708
	h-14.896h-0.713c-0.391,0-0.707-0.316-0.707-0.707V73.25c0-0.391,0.316-0.706,0.707-0.706h0.713h14.896h0.708v-1.419h-0.708h-14.896
	h-2.131c-0.392,0-0.706-0.315-0.706-0.706v-0.005c0-0.391,0.314-0.707,0.706-0.707h2.131h14.896h0.708V68.29h-0.555h-15.049h-3.701
	c-0.306,0-0.555-0.249-0.555-0.555v-0.311c0-0.306,0.249-0.554,0.555-0.554h3.701h15.049h0.555v-1.419h-0.666h-14.938h-5.01
	c-0.365,0-0.665-0.298-0.665-0.665v-0.089c0-0.366,0.3-0.664,0.665-0.664h5.01h14.938h0.666v-1.418h-0.708h-14.896h-6.388
	c-0.391,0-0.705-0.316-0.705-0.707v-0.006c0-0.391,0.314-0.706,0.705-0.706h6.388h14.896h0.708v-1.419
	C183.529,47.83,175.346,48.429,158.322,45.592z M24.4,60.617c0.882-1.969,3.916-2.866,6.361-2.866c2.613,0,4.803,0.952,6.009,2.612
	c0.39,0.536,0.356,1.269-0.08,1.768l-4.964,5.674c-0.269,0.308-0.658,0.484-1.067,0.484s-0.798-0.177-1.067-0.484l-4.965-5.674
	C24.263,61.714,24.174,61.123,24.4,60.617z M36.771,81.89c-1.206,1.66-3.396,2.611-6.009,2.611l0,0c-2.446,0-5.48-0.897-6.361-2.866
	c-0.227-0.505-0.138-1.097,0.227-1.514l4.965-5.675c0.269-0.308,0.658-0.484,1.067-0.484s0.798,0.177,1.067,0.484l4.964,5.675
	C37.127,80.621,37.16,81.354,36.771,81.89z M36.69,113.197l-4.964,5.674c-0.269,0.308-0.658,0.484-1.067,0.484
	s-0.798-0.177-1.067-0.484l-4.965-5.674c-0.364-0.417-0.453-1.009-0.227-1.514c0.882-1.97,3.916-2.867,6.362-2.867
	c2.612,0,4.803,0.952,6.008,2.613C37.16,111.966,37.126,112.698,36.69,113.197z M19.895,65.014c0.536-0.389,1.269-0.355,1.768,0.08
	l5.674,4.964c0.308,0.27,0.484,0.659,0.484,1.068s-0.177,0.798-0.484,1.067l-5.674,4.965c-0.264,0.231-0.597,0.351-0.934,0.351
	c-0.196,0-0.394-0.041-0.58-0.124c-1.75-0.784-2.598-3.22-2.808-5.239C17.022,69.073,17.977,66.407,19.895,65.014z M20.729,128.575
	c-0.197,0-0.395-0.041-0.581-0.125c-1.75-0.785-2.598-3.222-2.807-5.24c-0.318-3.072,0.636-5.736,2.554-7.131
	c0.536-0.389,1.27-0.356,1.768,0.08l5.674,4.965c0.308,0.27,0.484,0.658,0.484,1.068c0,0.408-0.177,0.798-0.484,1.066l-5.674,4.965
	C21.399,128.455,21.065,128.575,20.729,128.575z M36.771,132.954c-1.206,1.66-3.396,2.613-6.008,2.613c0,0,0,0,0,0
	c-2.446,0-5.48-0.898-6.362-2.867c-0.227-0.506-0.138-1.097,0.227-1.514l4.964-5.673c0.27-0.308,0.658-0.484,1.067-0.484
	s0.798,0.177,1.067,0.484l4.964,5.673C37.126,131.685,37.16,132.419,36.771,132.954z M41.422,128.304
	c-0.249,0.182-0.542,0.271-0.833,0.271c-0.335,0-0.668-0.118-0.935-0.352l-5.674-4.965c-0.308-0.269-0.484-0.658-0.484-1.066
	c0-0.41,0.177-0.799,0.484-1.068l5.674-4.965c0.417-0.365,1.009-0.455,1.515-0.227c1.751,0.786,2.598,3.224,2.807,5.243
	C44.294,124.246,43.34,126.911,41.422,128.304z M41.422,77.238c-0.249,0.181-0.542,0.271-0.833,0.271
	c-0.335,0-0.668-0.118-0.935-0.351l-5.674-4.965c-0.308-0.269-0.484-0.658-0.484-1.067s0.177-0.798,0.484-1.067l5.674-4.964
	c0.417-0.365,1.008-0.453,1.514-0.228c1.75,0.783,2.598,3.219,2.808,5.237C44.295,73.177,43.341,75.844,41.422,77.238z
	 M72.504,139.214h-5.673c-1.175,0-2.127-0.953-2.127-2.127c0-1.176,0.952-2.129,2.127-2.129h5.673c1.175,0,2.128,0.953,2.128,2.129
	C74.632,138.261,73.679,139.214,72.504,139.214z M88.108,139.214h-5.675c-1.173,0-2.127-0.953-2.127-2.127
	c0-1.176,0.954-2.129,2.127-2.129h5.675c1.174,0,2.127,0.953,2.127,2.129C90.235,138.261,89.283,139.214,88.108,139.214z
	 M101.584,140.632c-3.135,0-5.675-1.586-5.675-3.545s2.54-3.547,5.675-3.547c3.133,0,5.673,1.588,5.673,3.547
	S104.717,140.632,101.584,140.632z M141.301,120.774H61.865V69.708h79.436V120.774z M144.138,120.774h-1.417V69.708h1.417V120.774z
	 M167.32,118.288l5.672-4.965c0.418-0.365,1.009-0.455,1.516-0.227c1.752,0.786,2.599,3.227,2.807,5.248
	c0.317,3.068-0.638,5.732-2.555,7.123c-0.249,0.182-0.541,0.271-0.833,0.271c-0.335,0-0.668-0.118-0.935-0.351l-5.672-4.965
	c-0.309-0.27-0.484-0.658-0.484-1.068C166.836,118.946,167.012,118.558,167.32,118.288z M162.931,122.677
	c0.27-0.309,0.658-0.484,1.067-0.484s0.799,0.177,1.067,0.484l4.964,5.674c0.436,0.498,0.469,1.232,0.08,1.768
	c-1.205,1.66-3.395,2.612-6.007,2.612c-0.001,0-0.001,0-0.001,0c-2.445-0.001-5.479-0.897-6.363-2.864
	c-0.228-0.506-0.139-1.098,0.227-1.516L162.931,122.677z"/>
</svg>
