<?xml version="1.0" encoding="utf-8"?>
<!-- Generator: Adobe Illustrator 16.0.0, SVG Export Plug-In . SVG Version: 6.00 Build 0)  -->
<!DOCTYPE svg PUBLIC "-//W3C//DTD SVG 1.1 Tiny//EN" "http://www.w3.org/Graphics/SVG/1.1/DTD/svg11-tiny.dtd">
<svg version="1.1" baseProfile="tiny" id="Calque_1"
	 xmlns="http://www.w3.org/2000/svg" xmlns:xlink="http://www.w3.org/1999/xlink" x="0px" y="0px" width="64px" height="64px"
	 viewBox="0 0 64 64" xml:space="preserve">
<path fill="#F2F2F2" d="M52,8h-1v1h-2V8H15v1h-2V8h-1c-0.419,0-1,0.581-1,1v37c0,0.419,0.581,1,1,1h2v8c0,0.42,0.581,1,1,1h34
	c0.419,0,1-0.58,1-1v-8h2c0.42,0,1-0.581,1-1V9C53,8.581,52.42,8,52,8z M32,48l-3-5h6L32,48z M47,38c0,0.76-1.24,2-2,2H30
	c-0.759,0-2-1.24-2-2V12c0-0.76,1.241-2,2-2h15c0.76,0,2,1.24,2,2V38z"/>
</svg>
