<?xml version="1.0" encoding="utf-8"?>
<!-- Generator: Adobe Illustrator 16.0.0, SVG Export Plug-In . SVG Version: 6.00 Build 0)  -->
<!DOCTYPE svg PUBLIC "-//W3C//DTD SVG 1.1//EN" "http://www.w3.org/Graphics/SVG/1.1/DTD/svg11.dtd">
<svg version="1.1" id="Calque_1" xmlns="http://www.w3.org/2000/svg" xmlns:xlink="http://www.w3.org/1999/xlink" x="0px" y="0px"
	 width="64px" height="64px" viewBox="0 0 64 64" enable-background="new 0 0 64 64" xml:space="preserve">
<path id="Arrow" fill="#F2F2F2" d="M14.294,25.708L20.586,32l-6.293,6.293l0,0C14.112,38.475,14,38.724,14,39c0,0.553,0.447,1,1,1
	c0.276,0,0.526-0.112,0.707-0.293l7-7C22.888,32.526,23,32.276,23,32s-0.112-0.525-0.293-0.707l0,0l-7-7l0,0
	C15.525,24.112,15.275,24,15,24c-0.553,0.001-1,0.448-1,1C14,25.277,14.112,25.527,14.294,25.708z"/>
</svg>
