<?xml version="1.0" encoding="utf-8"?>
<!-- Generator: Adobe Illustrator 16.0.0, SVG Export Plug-In . SVG Version: 6.00 Build 0)  -->
<!DOCTYPE svg PUBLIC "-//W3C//DTD SVG 1.1//EN" "http://www.w3.org/Graphics/SVG/1.1/DTD/svg11.dtd">
<svg version="1.1" id="Calque_1" xmlns="http://www.w3.org/2000/svg" xmlns:xlink="http://www.w3.org/1999/xlink" x="0px" y="0px"
	 width="64px" height="64px" viewBox="0 0 64 64" enable-background="new 0 0 64 64" xml:space="preserve">
<path id="clock" fill="#F2F2F2" d="M36,30h-2V16c0-1.104-0.896-2-2-2s-2,0.896-2,2v14H20c-1.104,0-2,0.896-2,2s0.896,2,2,2h10v2
	c0,1.104,0.896,2,2,2s2-0.896,2-2v-2h2c1.104,0,2-0.896,2-2S37.104,30,36,30z M32,6C17.641,6,6,17.641,6,32s11.641,26,26,26
	s26-11.641,26-26S46.359,6,32,6z M32,54c-12.15,0-22-9.85-22-22s9.85-22,22-22s22,9.85,22,22S44.15,54,32,54z"/>
</svg>
