<?xml version="1.0" encoding="utf-8"?>
<!-- Generator: Adobe Illustrator 16.0.0, SVG Export Plug-In . SVG Version: 6.00 Build 0)  -->
<!DOCTYPE svg PUBLIC "-//W3C//DTD SVG 1.1//EN" "http://www.w3.org/Graphics/SVG/1.1/DTD/svg11.dtd">
<svg version="1.1" id="Calque_1" xmlns="http://www.w3.org/2000/svg" xmlns:xlink="http://www.w3.org/1999/xlink" x="0px" y="0px"
	 width="64px" height="64px" viewBox="0 0 64 64" enable-background="new 0 0 64 64" xml:space="preserve">
<path id="off" fill="#F2F2F2" d="M43,23H21c-4.971,0-9,4.029-9,9s4.029,9,9,9h22c4.971,0,9-4.029,9-9S47.971,23,43,23z M43,39
	c-0.424,0-0.836-0.044-1.238-0.115V39H22.238v-0.115C21.836,38.956,21.424,39,21,39c-3.867,0-7-3.133-7-7s3.133-7,7-7
	c0.424,0,0.836,0.044,1.238,0.115V25h19.523v0.115C42.164,25.044,42.576,25,43,25c3.867,0,7,3.133,7,7S46.867,39,43,39z M45,29v-1
	h-3h-1v1v2v1v4h1v-4h2v-1h-2v-2H45z M21,27c-2.762,0-5,2.238-5,5s2.238,5,5,5s5-2.238,5-5S23.762,27,21,27z M34,28h-4v1h-1v6h1
	l0.004,1H34v-1h1v-6h-1V28z M34,34h-1v1h-2v-1h-1v-4h1v-1h2v1h1V34z M36,28v1v2v1v4h1v-4h2v-1h-2v-2h3v-1h-3H36z"/>
</svg>
