<?xml version="1.0" encoding="utf-8"?>
<!-- Generator: Adobe Illustrator 16.0.0, SVG Export Plug-In . SVG Version: 6.00 Build 0)  -->
<!DOCTYPE svg PUBLIC "-//W3C//DTD SVG 1.1//EN" "http://www.w3.org/Graphics/SVG/1.1/DTD/svg11.dtd">
<svg version="1.1" id="Calque_1" xmlns="http://www.w3.org/2000/svg" xmlns:xlink="http://www.w3.org/1999/xlink" x="0px" y="0px"
	 width="64px" height="64px" viewBox="0 0 64 64" enable-background="new 0 0 64 64" xml:space="preserve">
<path id="zip" fill="#F2F2F2" d="M38,23H26c-0.553,0-1,0.447-1,1v16c0,0.553,0.447,1,1,1h12c0.553,0,1-0.447,1-1V24
	C39,23.447,38.553,23,38,23z M37,39H27v-6h10V39z M37,31H27v-6h10V31z M28,26v4h8v-4H28z M33,28h-2v-1h2V28z M28,34v4h8v-4H28z
	 M33,36h-2v-1h2V36z"/>
</svg>
