<?xml version="1.0" encoding="utf-8"?>
<!-- Generator: Adobe Illustrator 16.0.0, SVG Export Plug-In . SVG Version: 6.00 Build 0)  -->
<!DOCTYPE svg PUBLIC "-//W3C//DTD SVG 1.1//EN" "http://www.w3.org/Graphics/SVG/1.1/DTD/svg11.dtd">
<svg version="1.1" id="Calque_1" xmlns="http://www.w3.org/2000/svg" xmlns:xlink="http://www.w3.org/1999/xlink" x="0px" y="0px"
	 width="192px" height="192px" viewBox="0 0 192 192" enable-background="new 0 0 192 192" xml:space="preserve">
<g>
	<path fill="#F2F2F2" d="M165.821,11H26.179c-1.677,0-3.036,1.359-3.036,3.035v163.928c0,1.679,1.359,3.037,3.036,3.037h139.643
		c1.679,0,3.036-1.358,3.036-3.037V14.035C168.857,12.359,167.5,11,165.821,11z M162.785,171.893c0,1.678-1.357,3.035-3.035,3.035
		H32.25c-1.677,0-3.036-1.357-3.036-3.035V26.178c0-1.676,1.359-3.035,3.036-3.035h127.5c1.678,0,3.035,1.359,3.035,3.035V171.893z"
		/>
	<path id="rect3770_1_" fill="#F2F2F2" d="M53.5,59.57h85c3.354,0,6.071,2.719,6.071,6.072v85c0,3.352-2.718,6.07-6.071,6.07h-85
		c-3.354,0-6.071-2.719-6.071-6.07v-85C47.429,62.289,50.146,59.57,53.5,59.57z"/>
</g>
</svg>
