<?xml version="1.0" encoding="utf-8"?>
<!-- Generator: Adobe Illustrator 16.0.0, SVG Export Plug-In . SVG Version: 6.00 Build 0)  -->
<!DOCTYPE svg PUBLIC "-//W3C//DTD SVG 1.1 Tiny//EN" "http://www.w3.org/Graphics/SVG/1.1/DTD/svg11-tiny.dtd">
<svg version="1.1" baseProfile="tiny" id="Calque_1"
	 xmlns="http://www.w3.org/2000/svg" xmlns:xlink="http://www.w3.org/1999/xlink" x="0px" y="0px" width="192px" height="192px"
	 viewBox="0 0 192 192" xml:space="preserve">
<g>
	<path fill="#F2F2F2" d="M160.489,11.015H31.511c-7.124,0-12.898,5.774-12.898,12.897v144.176c0,7.124,5.774,12.897,12.898,12.897
		h128.978c7.123,0,12.897-5.773,12.897-12.897V23.912C173.387,16.789,167.612,11.015,160.489,11.015z M96,165.702
		c-33.966,0-61.502-27.535-61.502-61.502c0-2.873,0.202-5.697,0.583-8.465l-0.003,0.008c0,0,0.002-0.014,0.008-0.036
		c0.477-3.453,1.239-6.816,2.265-10.062c0.598-2.652,1.219-5.414,1.739-7.724c1.552-6.895,2.257-10.318,0-14.026L32.14,53.077
		c-0.356-0.505-0.691-1.025-1.003-1.562l-0.071-0.11l0.008,0.002c-1.818-3.16-2.863-6.82-2.863-10.728
		c0-11.902,9.648-21.551,21.55-21.551c6.92,0,13.073,3.266,17.016,8.335l-0.001-0.01c0,0,4.76,6.187,7.943,10.323
		c3.183,4.137,5.32,4.837,11.93,4.921l6.092,0.086c1.079-0.056,2.166-0.086,3.259-0.086c1.681,0,3.346,0.07,4.993,0.203h0.021v0.001
		c31.62,2.553,56.487,29.021,56.487,61.298C157.502,138.167,129.966,165.702,96,165.702z"/>
	<path fill="#F2F2F2" d="M96,53.359c-28.079,0-50.842,22.762-50.842,50.841S67.921,155.042,96,155.042s50.842-22.763,50.842-50.842
		S124.079,53.359,96,53.359z M96,146.361c-23.285,0-42.161-18.876-42.161-42.161S72.715,62.04,96,62.04
		c23.284,0,42.161,18.875,42.161,42.16S119.284,146.361,96,146.361z"/>
	<circle fill="#F2F2F2" cx="49.761" cy="40.68" r="14.617"/>
	<path fill="#F2F2F2" d="M112.038,94.896c-1.102-1.899-13.871-9.237-16.078-9.237c-2.201,0.006-14.941,7.398-16.037,9.306
		c-1.097,1.906-1.065,16.637,0.039,18.541c1.104,1.9,13.871,9.238,16.073,9.238c0.002,0,0.005,0,0.006,0
		c2.204-0.008,14.942-7.402,16.035-9.307C113.174,111.53,113.143,96.8,112.038,94.896z"/>
</g>
</svg>
