<?xml version="1.0" encoding="utf-8"?>
<!-- Generator: Adobe Illustrator 16.0.0, SVG Export Plug-In . SVG Version: 6.00 Build 0)  -->
<!DOCTYPE svg PUBLIC "-//W3C//DTD SVG 1.1//EN" "http://www.w3.org/Graphics/SVG/1.1/DTD/svg11.dtd">
<svg version="1.1" id="Calque_1" xmlns="http://www.w3.org/2000/svg" xmlns:xlink="http://www.w3.org/1999/xlink" x="0px" y="0px"
	 width="192px" height="192px" viewBox="0 0 192 192" enable-background="new 0 0 192 192" xml:space="preserve">
<path fill="#F2F2F2" d="M175.609,55.791H16.391c-2.978,0-5.391,2.414-5.391,5.392v69.634c0,2.979,2.413,5.393,5.391,5.393h159.218
	c2.977,0,5.391-2.414,5.391-5.393V61.183C181,58.205,178.586,55.791,175.609,55.791z M130.502,65.495
	c0-0.894,0.725-1.617,1.619-1.617h7.188c0.893,0,1.617,0.724,1.617,1.617v7.009c0,0.893-0.725,1.617-1.617,1.617h-7.188
	c-0.895,0-1.619-0.725-1.619-1.617V65.495z M128.75,79.242v7.009c0,0.894-0.723,1.617-1.617,1.617h-7.188
	c-0.893,0-1.617-0.724-1.617-1.617v-7.009c0-0.893,0.725-1.617,1.617-1.617h7.188C128.027,77.625,128.75,78.35,128.75,79.242z
	 M118.643,92.99v7.008c0,0.893-0.725,1.617-1.617,1.617h-7.188c-0.893,0-1.617-0.725-1.617-1.617V92.99
	c0-0.894,0.725-1.617,1.617-1.617h7.188C117.918,91.373,118.643,92.097,118.643,92.99z M116.576,65.495
	c0-0.894,0.725-1.617,1.617-1.617h7.188c0.893,0,1.617,0.724,1.617,1.617v7.009c0,0.893-0.725,1.617-1.617,1.617h-7.188
	c-0.893,0-1.617-0.725-1.617-1.617V65.495z M114.824,79.242v7.009c0,0.894-0.725,1.617-1.617,1.617h-7.188
	c-0.895,0-1.619-0.724-1.619-1.617v-7.009c0-0.893,0.725-1.617,1.619-1.617h7.188C114.1,77.625,114.824,78.35,114.824,79.242z
	 M104.717,92.99v7.008c0,0.893-0.725,1.617-1.617,1.617h-7.19c-0.893,0-1.617-0.725-1.617-1.617V92.99
	c0-0.894,0.725-1.617,1.617-1.617h7.19C103.992,91.373,104.717,92.097,104.717,92.99z M102.648,65.495
	c0-0.894,0.725-1.617,1.617-1.617h7.189c0.893,0,1.617,0.724,1.617,1.617v7.009c0,0.893-0.725,1.617-1.617,1.617h-7.189
	c-0.893,0-1.617-0.725-1.617-1.617V65.495z M100.896,79.242v7.009c0,0.894-0.725,1.617-1.617,1.617h-7.188
	c-0.894,0-1.617-0.724-1.617-1.617v-7.009c0-0.893,0.724-1.617,1.617-1.617h7.188C100.172,77.625,100.896,78.35,100.896,79.242z
	 M60.868,106.736c0-0.893,0.724-1.617,1.617-1.617h7.188c0.893,0,1.618,0.725,1.618,1.617v7.01c0,0.893-0.725,1.617-1.618,1.617
	h-7.188c-0.893,0-1.617-0.725-1.617-1.617V106.736z M54.129,101.615c-0.893,0-1.618-0.725-1.618-1.617V92.99
	c0-0.894,0.725-1.617,1.618-1.617h7.188c0.893,0,1.617,0.724,1.617,1.617v7.008c0,0.893-0.724,1.617-1.617,1.617H54.129z
	 M68.056,101.615c-0.893,0-1.617-0.725-1.617-1.617V92.99c0-0.894,0.724-1.617,1.617-1.617h7.188c0.893,0,1.618,0.724,1.618,1.617
	v7.008c0,0.893-0.725,1.617-1.618,1.617H68.056z M74.794,106.736c0-0.893,0.725-1.617,1.618-1.617H83.6
	c0.894,0,1.618,0.725,1.618,1.617v7.01c0,0.893-0.725,1.617-1.618,1.617h-7.188c-0.893,0-1.618-0.725-1.618-1.617V106.736z
	 M81.984,101.615c-0.894,0-1.618-0.725-1.618-1.617V92.99c0-0.894,0.725-1.617,1.618-1.617h7.188c0.893,0,1.617,0.724,1.617,1.617
	v7.008c0,0.893-0.725,1.617-1.617,1.617H81.984z M88.722,65.495c0-0.894,0.725-1.617,1.617-1.617h7.188
	c0.893,0,1.617,0.724,1.617,1.617v7.009c0,0.893-0.725,1.617-1.617,1.617h-7.188c-0.893,0-1.617-0.725-1.617-1.617V65.495z
	 M86.969,79.242v7.009c0,0.894-0.724,1.617-1.616,1.617h-7.189c-0.894,0-1.617-0.724-1.617-1.617v-7.009
	c0-0.893,0.724-1.617,1.617-1.617h7.189C86.246,77.625,86.969,78.35,86.969,79.242z M74.794,65.495c0-0.894,0.725-1.617,1.618-1.617
	H83.6c0.894,0,1.618,0.724,1.618,1.617v7.009c0,0.893-0.725,1.617-1.618,1.617h-7.188c-0.893,0-1.618-0.725-1.618-1.617V65.495z
	 M73.043,79.242v7.009c0,0.894-0.725,1.617-1.618,1.617h-7.188c-0.894,0-1.617-0.724-1.617-1.617v-7.009
	c0-0.893,0.724-1.617,1.617-1.617h7.188C72.318,77.625,73.043,78.35,73.043,79.242z M60.868,65.495c0-0.894,0.724-1.617,1.617-1.617
	h7.188c0.893,0,1.618,0.724,1.618,1.617v7.009c0,0.893-0.725,1.617-1.618,1.617h-7.188c-0.893,0-1.617-0.725-1.617-1.617V65.495z
	 M59.116,79.242v7.009c0,0.894-0.724,1.617-1.617,1.617h-7.188c-0.894,0-1.618-0.724-1.618-1.617v-7.009
	c0-0.893,0.724-1.617,1.618-1.617h7.188C58.392,77.625,59.116,78.35,59.116,79.242z M49.008,92.99v7.008
	c0,0.893-0.725,1.617-1.617,1.617h-7.188c-0.893,0-1.617-0.725-1.617-1.617V92.99c0-0.894,0.725-1.617,1.617-1.617h7.188
	C48.283,91.373,49.008,92.097,49.008,92.99z M46.94,65.495c0-0.894,0.725-1.617,1.618-1.617h7.188c0.893,0,1.617,0.724,1.617,1.617
	v7.009c0,0.893-0.724,1.617-1.617,1.617h-7.188c-0.893,0-1.618-0.725-1.618-1.617V65.495z M45.189,79.242v7.009
	c0,0.894-0.725,1.617-1.618,1.617h-7.188c-0.894,0-1.618-0.724-1.618-1.617v-7.009c0-0.893,0.724-1.617,1.618-1.617h7.188
	C44.464,77.625,45.189,78.35,45.189,79.242z M33.014,65.495c0-0.894,0.725-1.617,1.617-1.617h7.188c0.893,0,1.617,0.724,1.617,1.617
	v7.009c0,0.893-0.725,1.617-1.617,1.617h-7.188c-0.893,0-1.617-0.725-1.617-1.617V65.495z M19.086,65.495
	c0-0.894,0.725-1.617,1.618-1.617h7.188c0.893,0,1.618,0.724,1.618,1.617v7.009c0,0.893-0.725,1.617-1.618,1.617h-7.188
	c-0.893,0-1.618-0.725-1.618-1.617V65.495z M19.086,79.242c0-0.893,0.725-1.617,1.618-1.617h8.94c0.893,0,1.617,0.725,1.617,1.617
	v7.009c0,0.894-0.725,1.617-1.617,1.617h-8.94c-0.893,0-1.618-0.724-1.618-1.617V79.242z M19.086,92.99
	c0-0.894,0.725-1.617,1.618-1.617h12.759c0.893,0,1.618,0.724,1.618,1.617v7.008c0,0.893-0.725,1.617-1.618,1.617H20.704
	c-0.893,0-1.618-0.725-1.618-1.617V92.99z M29.51,127.492c0,0.895-0.725,1.617-1.618,1.617h-7.188c-0.893,0-1.618-0.723-1.618-1.617
	v-7.008c0-0.893,0.725-1.617,1.618-1.617h7.188c0.893,0,1.618,0.725,1.618,1.617V127.492z M29.51,113.746
	c0,0.893-0.725,1.617-1.618,1.617h-7.188c-0.893,0-1.618-0.725-1.618-1.617v-7.01c0-0.893,0.725-1.617,1.618-1.617h7.188
	c0.893,0,1.618,0.725,1.618,1.617V113.746z M43.437,127.492c0,0.895-0.725,1.617-1.617,1.617h-7.188
	c-0.893,0-1.617-0.723-1.617-1.617v-7.008c0-0.893,0.725-1.617,1.617-1.617h7.188c0.893,0,1.617,0.725,1.617,1.617V127.492z
	 M43.437,113.746c0,0.893-0.725,1.617-1.617,1.617h-7.188c-0.893,0-1.617-0.725-1.617-1.617v-7.01c0-0.893,0.725-1.617,1.617-1.617
	h7.188c0.893,0,1.617,0.725,1.617,1.617V113.746z M57.363,127.492c0,0.895-0.724,1.617-1.617,1.617h-7.188
	c-0.893,0-1.618-0.723-1.618-1.617v-7.008c0-0.893,0.725-1.617,1.618-1.617h7.188c0.893,0,1.617,0.725,1.617,1.617V127.492z
	 M57.363,113.746c0,0.893-0.724,1.617-1.617,1.617h-7.188c-0.893,0-1.618-0.725-1.618-1.617v-7.01c0-0.893,0.725-1.617,1.618-1.617
	h7.188c0.893,0,1.617,0.725,1.617,1.617V113.746z M99.145,127.492c0,0.895-0.725,1.617-1.617,1.617H62.485
	c-0.893,0-1.617-0.723-1.617-1.617v-7.008c0-0.893,0.724-1.617,1.617-1.617h35.042c0.893,0,1.617,0.725,1.617,1.617V127.492z
	 M99.145,113.746c0,0.893-0.725,1.617-1.617,1.617h-7.188c-0.893,0-1.617-0.725-1.617-1.617v-7.01c0-0.893,0.725-1.617,1.617-1.617
	h7.188c0.893,0,1.617,0.725,1.617,1.617V113.746z M113.072,127.492c0,0.895-0.725,1.617-1.617,1.617h-7.189
	c-0.893,0-1.617-0.723-1.617-1.617v-7.008c0-0.893,0.725-1.617,1.617-1.617h7.189c0.893,0,1.617,0.725,1.617,1.617V127.492z
	 M113.072,113.746c0,0.893-0.725,1.617-1.617,1.617h-7.189c-0.893,0-1.617-0.725-1.617-1.617v-7.01c0-0.893,0.725-1.617,1.617-1.617
	h7.189c0.893,0,1.617,0.725,1.617,1.617V113.746z M126.998,127.492c0,0.895-0.725,1.617-1.617,1.617h-7.188
	c-0.893,0-1.617-0.723-1.617-1.617v-7.008c0-0.893,0.725-1.617,1.617-1.617h7.188c0.893,0,1.617,0.725,1.617,1.617V127.492z
	 M126.998,113.746c0,0.893-0.725,1.617-1.617,1.617h-7.188c-0.893,0-1.617-0.725-1.617-1.617v-7.01c0-0.893,0.725-1.617,1.617-1.617
	h7.188c0.893,0,1.617,0.725,1.617,1.617V113.746z M132.57,99.998c0,0.893-0.725,1.617-1.617,1.617h-7.189
	c-0.893,0-1.617-0.725-1.617-1.617V92.99c0-0.894,0.725-1.617,1.617-1.617h7.189c0.893,0,1.617,0.724,1.617,1.617V99.998z
	 M132.256,86.251v-7.009c0-0.893,0.723-1.617,1.617-1.617h18.285c0.893,0,1.617,0.725,1.617,1.617v7.009
	c0,0.894-0.725,1.617-1.617,1.617h-18.285C132.979,87.868,132.256,87.145,132.256,86.251z M145.061,127.492
	c0,0.895-0.725,1.617-1.619,1.617h-7.188c-0.893,0-1.617-0.723-1.617-1.617v-7.008c0-0.893,0.725-1.617,1.617-1.617h7.188
	c0.895,0,1.619,0.725,1.619,1.617V127.492z M158.986,127.492c0,0.895-0.725,1.617-1.617,1.617h-7.188
	c-0.893,0-1.617-0.723-1.617-1.617v-7.008c0-0.893,0.725-1.617,1.617-1.617h7.188c0.893,0,1.617,0.725,1.617,1.617V127.492z
	 M158.986,113.746c0,0.893-0.725,1.617-1.617,1.617h-7.188c-0.893,0-1.617-0.725-1.617-1.617v-7.01c0-0.893,0.725-1.617,1.617-1.617
	h7.188c0.893,0,1.617,0.725,1.617,1.617V113.746z M158.986,99.998c0,0.893-0.725,1.617-1.617,1.617h-19.678
	c-0.893,0-1.617-0.725-1.617-1.617V92.99c0-0.894,0.725-1.617,1.617-1.617h19.678c0.893,0,1.617,0.724,1.617,1.617V99.998z
	 M172.914,127.492c0,0.895-0.725,1.617-1.617,1.617h-7.189c-0.893,0-1.617-0.723-1.617-1.617v-7.008
	c0-0.893,0.725-1.617,1.617-1.617h7.189c0.893,0,1.617,0.725,1.617,1.617V127.492z M172.914,99.998c0,0.893-0.725,1.617-1.617,1.617
	h-7.189c-0.893,0-1.617-0.725-1.617-1.617V89.486c0-0.894-0.723-1.618-1.617-1.618h-1.887c-0.893,0-1.617-0.724-1.617-1.617v-7.009
	c0-0.893,0.725-1.617,1.617-1.617h12.311c0.893,0,1.617,0.725,1.617,1.617V99.998z M172.914,72.504c0,0.893-0.725,1.617-1.617,1.617
	h-7.189c-0.893,0-1.617-0.725-1.617-1.617v-7.009c0-0.894,0.725-1.617,1.617-1.617h7.189c0.893,0,1.617,0.724,1.617,1.617V72.504z"
	/>
</svg>
