<?xml version="1.0" encoding="utf-8"?>
<!-- Generator: Adobe Illustrator 16.0.0, SVG Export Plug-In . SVG Version: 6.00 Build 0)  -->
<!DOCTYPE svg PUBLIC "-//W3C//DTD SVG 1.1//EN" "http://www.w3.org/Graphics/SVG/1.1/DTD/svg11.dtd">
<svg version="1.1" id="Calque_1" xmlns="http://www.w3.org/2000/svg" xmlns:xlink="http://www.w3.org/1999/xlink" x="0px" y="0px"
	 width="192px" height="192px" viewBox="0 0 192 192" enable-background="new 0 0 192 192" xml:space="preserve">
<path fill="#F2F2F2" d="M169.924,20.452c0-0.615-0.498-1.113-1.113-1.113h-0.256h-12.32v-4.885c0-1.838-1.492-3.329-3.328-3.329
	H24.896c-1.557,0-2.819,1.262-2.819,2.819v83.628h2.738v2.666v80.637h142.371V94.319h2.738V20.452z M105.846,168.816l-8.215,8.213
	c-0.432,0.434-1.019,0.676-1.631,0.676c-0.611,0-1.197-0.242-1.631-0.676l-8.213-8.213c-0.66-0.66-0.857-1.652-0.5-2.514
	s1.198-1.424,2.131-1.424h16.428c0.932,0,1.773,0.562,2.131,1.424C106.701,167.164,106.504,168.156,105.846,168.816z
	 M153.496,37.135c0,8.316-6.742,15.058-15.059,15.058H53.562c-8.316,0-15.059-6.742-15.059-15.058
	c0-8.317,6.742-15.059,15.059-15.059h84.875C146.754,22.077,153.496,28.818,153.496,37.135z M153.496,158.971
	c0,1.514-1.225,2.738-2.738,2.738H41.242c-1.512,0-2.738-1.225-2.738-2.738V60.407c0-1.512,1.226-2.738,2.738-2.738h109.516
	c1.512,0,2.738,1.226,2.738,2.738V158.971z"/>
</svg>
