<?xml version="1.0" encoding="utf-8"?>
<!-- Generator: Adobe Illustrator 16.0.0, SVG Export Plug-In . SVG Version: 6.00 Build 0)  -->
<!DOCTYPE svg PUBLIC "-//W3C//DTD SVG 1.1//EN" "http://www.w3.org/Graphics/SVG/1.1/DTD/svg11.dtd">
<svg version="1.1" id="Calque_1" xmlns="http://www.w3.org/2000/svg" xmlns:xlink="http://www.w3.org/1999/xlink" x="0px" y="0px"
	 width="192px" height="192px" viewBox="0 0 192 192" enable-background="new 0 0 192 192" xml:space="preserve">
<g id="layer2_8_" inkscape:label="logo" inkscape:groupmode="layer">
	<path fill="#F2F2F2" d="M142.887,11H49.115c-2.878,0-5.212,2.334-5.212,5.212v159.577c0,2.877,2.334,5.211,5.212,5.211h68.82
		c16.658,0,30.162-13.504,30.162-30.16V16.212C148.098,13.334,145.762,11,142.887,11z M76.807,129.766
		c0,1.039-0.774,1.881-1.729,1.881h-6.497v6.549c0,0.926-0.705,1.676-1.572,1.676h-5.082c-0.868,0-1.572-0.75-1.572-1.676v-6.549
		h-6.498c-0.955,0-1.729-0.842-1.729-1.881V125.3c0-1.039,0.774-1.88,1.729-1.88h6.498v-6.55c0-0.926,0.704-1.677,1.572-1.677h5.082
		c0.867,0,1.572,0.751,1.572,1.677v6.55h6.497c0.955,0,1.729,0.841,1.729,1.88V129.766z M87.104,150.689l-8.398,5.428
		c-0.623,0.401-1.402,0.195-1.741-0.463c-0.339-0.66-0.11-1.521,0.513-1.924l8.397-5.43c0.623-0.402,1.401-0.193,1.742,0.466
		C87.956,149.426,87.726,150.285,87.104,150.689z M139.871,24.71v49.355c0,9.085-7.367,16.451-16.451,16.451H54.738
		c-1.44,0-2.609-1.169-2.609-2.609V24.71c0-1.515,1.228-2.742,2.742-2.742h82.258 M123.42,127.533c0,3.785-3.068,6.854-6.855,6.854
		c-3.785,0-6.855-3.068-6.855-6.854c0-3.787,3.07-6.855,6.855-6.855C120.352,120.678,123.42,123.746,123.42,127.533z
		 M106.299,150.689l-8.398,5.428c-0.623,0.404-1.402,0.195-1.742-0.463c-0.34-0.66-0.11-1.521,0.511-1.924l8.397-5.428
		c0.625-0.4,1.404-0.195,1.744,0.464S106.92,150.287,106.299,150.689z M135.758,126.162c-3.785,0-6.855-3.069-6.855-6.855
		s3.07-6.854,6.855-6.854c3.787,0,6.855,3.068,6.855,6.854S139.545,126.162,135.758,126.162z"/>
</g>
</svg>
