<?xml version="1.0" encoding="utf-8"?>
<!-- Generator: Adobe Illustrator 16.0.0, SVG Export Plug-In . SVG Version: 6.00 Build 0)  -->
<!DOCTYPE svg PUBLIC "-//W3C//DTD SVG 1.1//EN" "http://www.w3.org/Graphics/SVG/1.1/DTD/svg11.dtd">
<svg version="1.1" id="Calque_1" xmlns="http://www.w3.org/2000/svg" xmlns:xlink="http://www.w3.org/1999/xlink" x="0px" y="0px"
	 width="192px" height="192px" viewBox="0 0 192 192" enable-background="new 0 0 192 192" xml:space="preserve">
<path fill="#F2F2F2" d="M165.581,52.129c-0.57,0-1.033-0.464-1.033-1.035v-0.672c0-0.571,0.463-1.035,1.033-1.035h4.451v-2.742
	h-4.451c-0.57,0-1.033-0.463-1.033-1.035v-0.671c0-0.572,0.463-1.035,1.033-1.035h4.451v-2.742h-4.451
	c-0.57,0-1.033-0.464-1.033-1.035v-0.672c0-0.572,0.463-1.035,1.033-1.035h4.451v-2.741h-4.451c-0.57,0-1.033-0.464-1.033-1.035
	V33.97c0-0.571,0.463-1.034,1.033-1.034h4.451v-2.742h-4.451c-0.57,0-1.033-0.463-1.033-1.035v-0.672
	c0-0.572,0.463-1.035,1.033-1.035h4.451v-5.484c0-6.057-4.911-10.967-10.969-10.967H32.935c-6.057,0-10.967,4.91-10.967,10.967
	v5.484h4.449c0.57,0,1.034,0.463,1.034,1.035v0.672c0,0.572-0.464,1.035-1.034,1.035h-4.449v2.742h4.449
	c0.57,0,1.034,0.463,1.034,1.034v0.673c0,0.571-0.464,1.035-1.034,1.035h-4.449v2.741h4.449c0.57,0,1.034,0.463,1.034,1.035v0.672
	c0,0.571-0.464,1.035-1.034,1.035h-4.449v2.742h4.449c0.57,0,1.034,0.463,1.034,1.035v0.671c0,0.572-0.464,1.035-1.034,1.035h-4.449
	v2.742h4.449c0.57,0,1.034,0.464,1.034,1.035v0.672c0,0.571-0.464,1.035-1.034,1.035h-4.449v68.549v49.354V181h10.967h126.129
	h10.969v-10.968v-49.354V52.129H165.581z M153.581,159.064c0,3.028-2.456,5.483-5.484,5.483H43.903
	c-3.029,0-5.484-2.455-5.484-5.483V68.581c0-3.029,2.455-5.484,5.484-5.484h104.193c3.028,0,5.484,2.455,5.484,5.484V159.064z"/>
</svg>
