<?xml version="1.0" encoding="utf-8"?>
<!-- Generator: Adobe Illustrator 16.0.0, SVG Export Plug-In . SVG Version: 6.00 Build 0)  -->
<!DOCTYPE svg PUBLIC "-//W3C//DTD SVG 1.1//EN" "http://www.w3.org/Graphics/SVG/1.1/DTD/svg11.dtd">
<svg version="1.1" id="Calque_1" xmlns="http://www.w3.org/2000/svg" xmlns:xlink="http://www.w3.org/1999/xlink" x="0px" y="0px"
	 width="192px" height="192px" viewBox="0 0 192 192" enable-background="new 0 0 192 192" xml:space="preserve">
<path fill="#F2F2F2" d="M177.738,46.545H14.262c-1.896,0-3.434,1.384-3.434,3.09v16.142h2.747v76.585
	c0,1.707,1.537,3.092,3.435,3.092h157.98c1.897,0,3.435-1.385,3.435-3.092V65.778h2.747V49.636
	C181.172,47.93,179.635,46.545,177.738,46.545z M159.192,131.717c0,1.52-1.229,2.748-2.747,2.748H35.555
	c-1.517,0-2.747-1.229-2.747-2.748V74.02c0-1.517,1.23-2.748,2.747-2.748h120.891c1.518,0,2.747,1.23,2.747,2.748V131.717z"/>
</svg>
