<?xml version="1.0" encoding="utf-8"?>
<!-- Generator: Adobe Illustrator 16.0.0, SVG Export Plug-In . SVG Version: 6.00 Build 0)  -->
<!DOCTYPE svg PUBLIC "-//W3C//DTD SVG 1.1//EN" "http://www.w3.org/Graphics/SVG/1.1/DTD/svg11.dtd">
<svg version="1.1" id="Calque_1" xmlns="http://www.w3.org/2000/svg" xmlns:xlink="http://www.w3.org/1999/xlink" x="0px" y="0px"
	 width="192px" height="192px" viewBox="0 0 192 192" enable-background="new 0 0 192 192" xml:space="preserve">
<g>
	<path fill="#F2F2F2" d="M48.947,152.153h94.107V45.291c-31.04-7.26-63.068-7.26-94.107,0V152.153z M62.607,51.975
		c21.25-3.036,45.536-3.036,66.786,0c3.329,0.476,6.071,2.708,6.071,6.072v78.928c0,3.362-2.709,6.071-6.071,6.071H62.607
		c-3.363,0-6.071-2.709-6.071-6.071V58.047C56.536,54.684,59.278,52.451,62.607,51.975z"/>
	<path fill="#F2F2F2" d="M45.911,46.027C34.083,48.98,22.408,52.977,11,58.047v94.106h34.911V46.027z"/>
	<path fill="#F2F2F2" d="M146.089,46.027v106.126H181V58.047C169.592,52.977,157.917,48.98,146.089,46.027z"/>
</g>
</svg>
