<?xml version="1.0" encoding="utf-8"?>
<!-- Generator: Adobe Illustrator 16.0.0, SVG Export Plug-In . SVG Version: 6.00 Build 0)  -->
<!DOCTYPE svg PUBLIC "-//W3C//DTD SVG 1.1//EN" "http://www.w3.org/Graphics/SVG/1.1/DTD/svg11.dtd">
<svg version="1.1" id="Calque_1" xmlns="http://www.w3.org/2000/svg" xmlns:xlink="http://www.w3.org/1999/xlink" x="0px" y="0px"
	 width="192px" height="192px" viewBox="0 0 192 192" enable-background="new 0 0 192 192" xml:space="preserve">
<g id="layer1_2_" transform="translate(0,-988.36218)" inkscape:label="Calque 1" inkscape:groupmode="layer">
	<path id="path3770" sodipodi:rx="3" sodipodi:type="arc" sodipodi:cy="35" sodipodi:cx="33" sodipodi:ry="3" fill="#F2F2F2" d="
		M104.905,1091.041c0,4.916-3.989,8.904-8.905,8.904c-4.917,0-8.905-3.988-8.905-8.904s3.987-8.905,8.905-8.905
		C100.916,1082.136,104.905,1086.125,104.905,1091.041z"/>
	<path fill="#F2F2F2" d="M176.145,1048.001l-0.034,0.034c-0.438-10.067-5.883-17.544-13.805-22.696
		c0.102-0.093,0.195-0.196,0.27-0.32c0.422-0.703,0.195-1.614-0.508-2.037c-5.414-3.256-12.077-5.046-16.619-6.11
		c-4.26-0.998-9.158-1.827-14.479-2.489l-2.318-5.565l-0.034,0.194c-0.218-1.364-1.54-2.01-2.935-2.568
		c-14.841-5.937-44.524-5.937-59.366,0c-1.343,0.537-2.847,1.176-2.989,2.423l-2.298,5.516c-5.319,0.663-10.217,1.492-14.478,2.489
		c-0.036,0.009-0.072,0.018-0.107,0.029c-1.014,0.274-11.796,3.228-16.516,6.083c-0.701,0.425-0.926,1.337-0.501,2.038
		c0.074,0.122,0.164,0.228,0.263,0.319c-7.919,5.152-13.362,12.627-13.8,22.693l-0.035-0.034
		c-8.905,26.714-5.937,80.144,11.874,80.144c9.23,0,16.666-28.699,19.519-41.478l13.132,2.89c17.81,0,11.873,77.176,35.62,77.176
		c23.747,0,17.81-77.176,35.62-77.176l13.133-2.889c2.853,12.777,10.288,41.477,19.519,41.477
		C182.081,1128.144,185.05,1074.715,176.145,1048.001z M57.412,1052.453c0,0.82-0.664,1.484-1.484,1.484h-7.421v7.42
		c0,0.82-0.664,1.484-1.484,1.484h-5.937c-0.82,0-1.484-0.664-1.484-1.484v-7.42h-7.421c-0.82,0-1.484-0.664-1.484-1.484v-5.937
		c0-0.82,0.664-1.484,1.484-1.484h7.421v-7.42c0-0.821,0.664-1.484,1.484-1.484h5.937c0.821,0,1.484,0.664,1.484,1.484v7.42h7.421
		c0.82,0,1.484,0.664,1.484,1.484V1052.453z M153.882,1030.19c3.279,0,5.938,2.659,5.938,5.937c0,3.279-2.658,5.937-5.938,5.937
		c-3.278,0-5.936-2.658-5.936-5.937C147.946,1032.849,150.604,1030.19,153.882,1030.19z M143.493,1040.58
		c3.278,0,5.937,2.658,5.937,5.937s-2.658,5.937-5.937,5.937s-5.937-2.658-5.937-5.937S140.215,1040.58,143.493,1040.58z
		 M96,1049.484c3.278,0,5.937,2.659,5.937,5.937c0,3.279-2.658,5.937-5.937,5.937s-5.937-2.658-5.937-5.937
		C90.063,1052.143,92.722,1049.484,96,1049.484z M104.905,1099.945l-8.905,3.69l-8.905-3.69l-3.689-8.904l3.689-8.903l8.905-3.688
		l8.905,3.688l3.688,8.903L104.905,1099.945z M130.136,1062.842c-4.099,0-7.421-3.322-7.421-7.42c0-4.099,3.322-7.42,7.421-7.42
		c4.1,0,7.421,3.321,7.421,7.42C137.557,1059.52,134.235,1062.842,130.136,1062.842z M142.009,1074.715
		c-4.099,0-7.42-3.321-7.42-7.42c0-4.099,3.321-7.421,7.42-7.421c4.1,0,7.421,3.322,7.421,7.421
		C149.43,1071.393,146.108,1074.715,142.009,1074.715z M153.882,1062.842c-3.278,0-5.936-2.658-5.936-5.936
		c0-3.279,2.657-5.937,5.936-5.937c3.279,0,5.938,2.658,5.938,5.937C159.819,1060.183,157.161,1062.842,153.882,1062.842z
		 M164.271,1052.453c-3.278,0-5.937-2.658-5.937-5.937s2.658-5.937,5.937-5.937s5.937,2.658,5.937,5.937
		S167.55,1052.453,164.271,1052.453z"/>
</g>
</svg>
