<?xml version="1.0" encoding="utf-8"?>
<!-- Generator: Adobe Illustrator 16.0.0, SVG Export Plug-In . SVG Version: 6.00 Build 0)  -->
<!DOCTYPE svg PUBLIC "-//W3C//DTD SVG 1.1//EN" "http://www.w3.org/Graphics/SVG/1.1/DTD/svg11.dtd">
<svg version="1.1" id="Calque_1" xmlns="http://www.w3.org/2000/svg" xmlns:xlink="http://www.w3.org/1999/xlink" x="0px" y="0px"
	 width="192px" height="192px" viewBox="0 0 192 192" enable-background="new 0 0 192 192" xml:space="preserve">
<path fill="#F2F2F2" d="M171.144,11H20.856c-2.415,0-4.373,1.957-4.373,4.372v146.434c0,10.601,8.593,19.194,19.194,19.194h134.354
	c3.028,0,5.484-2.456,5.484-5.484v-23.879V15.372C175.517,12.957,173.559,11,171.144,11z M159.064,156.322
	c0,3.037-2.447,5.483-5.483,5.483H40.99L30.193,151.01V27.451c0-3.038,2.446-5.483,5.484-5.483h117.903
	c3.036,0,5.483,2.445,5.483,5.483V156.322z"/>
</svg>
