<?xml version="1.0" encoding="utf-8"?>
<!-- Generator: Adobe Illustrator 16.0.0, SVG Export Plug-In . SVG Version: 6.00 Build 0)  -->
<!DOCTYPE svg PUBLIC "-//W3C//DTD SVG 1.1//EN" "http://www.w3.org/Graphics/SVG/1.1/DTD/svg11.dtd">
<svg version="1.1" id="Calque_1" xmlns="http://www.w3.org/2000/svg" xmlns:xlink="http://www.w3.org/1999/xlink" x="0px" y="0px"
	 width="192px" height="192px" viewBox="0 0 192 192" enable-background="new 0 0 192 192" xml:space="preserve">
<g>
	<path fill="#F2F2F2" d="M96,108.772c-7.042,0-12.771-5.729-12.771-12.771S88.958,83.229,96,83.229s12.772,5.73,12.772,12.772
		S103.042,108.772,96,108.772z M96,86.067c-5.477,0-9.933,4.456-9.933,9.934c0,5.477,4.456,9.932,9.933,9.932
		c5.478,0,9.933-4.455,9.933-9.932C105.933,90.523,101.478,86.067,96,86.067z"/>
	<path fill="#F2F2F2" d="M96,10.86c-47.021,0-85.14,38.119-85.14,85.141c0,47.021,38.119,85.139,85.14,85.139
		s85.14-38.118,85.14-85.139C181.14,48.979,143.021,10.86,96,10.86z M96,128.638c-17.995,0-32.636-14.641-32.636-32.637
		c0-17.997,14.641-32.638,32.636-32.638c17.997,0,32.638,14.641,32.638,32.638C128.638,113.997,113.997,128.638,96,128.638z"/>
</g>
</svg>
