<?xml version="1.0" encoding="utf-8"?>
<!-- Generator: Adobe Illustrator 16.0.0, SVG Export Plug-In . SVG Version: 6.00 Build 0)  -->
<!DOCTYPE svg PUBLIC "-//W3C//DTD SVG 1.1//EN" "http://www.w3.org/Graphics/SVG/1.1/DTD/svg11.dtd">
<svg version="1.1" id="Calque_1" xmlns="http://www.w3.org/2000/svg" xmlns:xlink="http://www.w3.org/1999/xlink" x="0px" y="0px"
	 width="192px" height="192px" viewBox="0 0 192 192" enable-background="new 0 0 192 192" xml:space="preserve">
<path fill="#F2F2F2" d="M167.29,11h-2.742v2.431c0,0.172-0.312,0.311-0.701,0.311h-6.822c-0.389,0-0.701-0.139-0.701-0.311V11
	H35.677v2.431c0,0.172-0.312,0.311-0.699,0.311h-6.826c-0.387,0-0.699-0.139-0.699-0.311V11H24.71c-1.514,0-2.742,1.228-2.742,2.741
	v134.354c0,1.516,1.229,2.742,2.742,2.742h5.484v27.42c0,1.515,1.228,2.742,2.741,2.742h126.129c1.516,0,2.741-1.228,2.741-2.742
	v-27.42h5.484c1.516,0,2.742-1.227,2.742-2.742V13.741C170.032,12.228,168.806,11,167.29,11z M96,150.838l-8.226-13.709h16.451
	L96,150.838z M150.839,121.192c0,2.743-2.225,4.968-4.969,4.968H87.259c-2.744,0-4.969-2.225-4.969-4.968V18.71
	c0-2.744,2.225-4.969,4.969-4.969h58.611c2.744,0,4.969,2.225,4.969,4.969V121.192z"/>
</svg>
