<?xml version="1.0" encoding="utf-8"?>
<!-- Generator: Adobe Illustrator 16.0.0, SVG Export Plug-In . SVG Version: 6.00 Build 0)  -->
<!DOCTYPE svg PUBLIC "-//W3C//DTD SVG 1.1//EN" "http://www.w3.org/Graphics/SVG/1.1/DTD/svg11.dtd">
<svg version="1.1" id="Calque_1" xmlns="http://www.w3.org/2000/svg" xmlns:xlink="http://www.w3.org/1999/xlink" x="0px" y="0px"
	 width="192px" height="192px" viewBox="0 0 192 192" enable-background="new 0 0 192 192" xml:space="preserve">
<path fill="#F2F2F2" d="M171.141,72.231c-8.349-19.481-141.932-19.481-150.281,0c-19.48,47.311-13.915,66.791,44.528,61.225
	c2.783-11.131,58.443-11.131,61.225,0C185.056,139.022,190.621,119.542,171.141,72.231z M57.254,106.03
	c-0.218,0.671-0.932,1.046-1.606,0.848c-1-0.293-2.12-0.827-3.202-1.344c-1.25-0.596-2.54-1.212-3.487-1.385
	c-0.896,0.029-1.349,0.482-1.379,1.379c0.173,0.947,0.789,2.237,1.385,3.486c0.517,1.083,1.051,2.203,1.344,3.203
	c0.198,0.676-0.177,1.387-0.847,1.605c-2.107,0.688-4.06,1.021-5.97,1.021s-3.862-0.333-5.97-1.021
	c-0.67-0.219-1.045-0.93-0.847-1.605c0.293-1,0.827-2.121,1.344-3.203c0.596-1.25,1.211-2.539,1.385-3.486
	c-0.03-0.896-0.482-1.35-1.379-1.379c-0.947,0.173-2.238,0.789-3.487,1.385c-1.083,0.517-2.203,1.051-3.202,1.344
	c-0.675,0.197-1.389-0.178-1.606-0.848c-1.362-4.184-1.362-7.755,0-11.938c0.218-0.671,0.93-1.044,1.606-0.848
	c1,0.293,2.121,0.827,3.204,1.344c1.249,0.595,2.539,1.21,3.485,1.384c0.896-0.031,1.349-0.482,1.379-1.379
	c-0.173-0.946-0.789-2.235-1.384-3.484c-0.517-1.084-1.052-2.205-1.345-3.206c-0.197-0.673,0.173-1.381,0.839-1.603
	c4.607-1.536,7.347-1.536,11.956,0c0.666,0.222,1.036,0.93,0.839,1.604c-0.293,1-0.828,2.121-1.345,3.205
	c-0.596,1.249-1.211,2.539-1.384,3.485c0.03,0.896,0.482,1.348,1.379,1.379c0.946-0.174,2.236-0.789,3.485-1.384
	c1.083-0.517,2.204-1.051,3.204-1.344c0.676-0.197,1.387,0.177,1.606,0.848C58.616,98.275,58.616,101.847,57.254,106.03z
	 M159.678,79.188c3.074,0,5.566,2.492,5.566,5.566c0,3.073-2.492,5.565-5.566,5.565c-3.073,0-5.565-2.492-5.565-5.565
	C154.112,81.681,156.604,79.188,159.678,79.188z M93.585,88.929h5.566c0.769,0,1.392,0.623,1.392,1.392
	c0,0.77-0.623,1.392-1.392,1.392h-5.566c-0.769,0-1.392-0.622-1.392-1.392C92.193,89.551,92.816,88.929,93.585,88.929z
	 M91.498,118.15h-5.566c-1.152,0-2.087-0.935-2.087-2.087s0.935-2.088,2.087-2.088h5.566c1.152,0,2.087,0.936,2.087,2.088
	S92.65,118.15,91.498,118.15z M93.585,104.235c-0.769,0-1.392-0.622-1.392-1.392c0-0.769,0.623-1.392,1.392-1.392h5.566
	c0.769,0,1.392,0.623,1.392,1.392c0,0.77-0.623,1.392-1.392,1.392H93.585z M106.805,118.15h-5.566c-1.152,0-2.087-0.935-2.087-2.087
	s0.935-2.088,2.087-2.088h5.566c1.152,0,2.087,0.936,2.087,2.088S107.957,118.15,106.805,118.15z M125.59,95.887
	c0-3.074,2.492-5.566,5.565-5.566c3.074,0,5.566,2.492,5.566,5.566c0,3.073-2.492,5.565-5.566,5.565
	C128.082,101.452,125.59,98.96,125.59,95.887z M136.722,116.759c-3.074,0-5.566-2.492-5.566-5.566c0-3.073,2.492-5.565,5.566-5.565
	c3.073,0,5.565,2.492,5.565,5.565C142.287,114.267,139.795,116.759,136.722,116.759z M139.504,88.929
	c0-3.073,2.492-5.565,5.566-5.565s5.566,2.492,5.566,5.565c0,3.074-2.492,5.566-5.566,5.566S139.504,92.003,139.504,88.929z
	 M150.637,109.802c-3.074,0-5.566-2.492-5.566-5.566s2.492-5.566,5.566-5.566c3.073,0,5.565,2.492,5.565,5.566
	S153.71,109.802,150.637,109.802z M165.244,105.627c-3.074,0-5.566-2.492-5.566-5.566c0-3.073,2.492-5.565,5.566-5.565
	s5.566,2.492,5.566,5.565C170.811,103.135,168.318,105.627,165.244,105.627z"/>
</svg>
