<?xml version="1.0" encoding="utf-8"?>
<!-- Generator: Adobe Illustrator 16.0.0, SVG Export Plug-In . SVG Version: 6.00 Build 0)  -->
<!DOCTYPE svg PUBLIC "-//W3C//DTD SVG 1.1 Tiny//EN" "http://www.w3.org/Graphics/SVG/1.1/DTD/svg11-tiny.dtd">
<svg version="1.1" baseProfile="tiny" id="Calque_1"
	 xmlns="http://www.w3.org/2000/svg" xmlns:xlink="http://www.w3.org/1999/xlink" x="0px" y="0px" width="192px" height="192px"
	 viewBox="0 0 192 192" xml:space="preserve">
<g>
	<polygon fill="#F2F2F2" points="95.995,62.001 95.999,11 61.464,11.001 61.997,62 	"/>
	<path fill="#F2F2F2" d="M180.998,27.601L165.459,11l-18.465,0.001l0.004,67.996L44.998,79l-0.001-67.997L15.915,11l-0.003,0.138
		c-0.229-0.042-0.418-0.138-0.663-0.136C12.894,11,10.998,12.896,11,15.252l0,161.498c0,2.354,1.894,4.248,4.25,4.25l161.498-0.002
		c2.354,0,4.25-1.895,4.25-4.248c0.003-0.092,0.007-0.178,0.003-0.268L180.998,27.601z M146.996,176.748h-102l0.001-76.498
		c0-2.354,1.896-4.25,4.25-4.25l93.499-0.004c2.357,0.004,4.252,1.9,4.252,4.253L146.996,176.748z"/>
</g>
</svg>
