<?xml version="1.0" encoding="utf-8"?>
<!-- Generator: Adobe Illustrator 16.0.0, SVG Export Plug-In . SVG Version: 6.00 Build 0)  -->
<!DOCTYPE svg PUBLIC "-//W3C//DTD SVG 1.1//EN" "http://www.w3.org/Graphics/SVG/1.1/DTD/svg11.dtd">
<svg version="1.1" id="Calque_1" xmlns="http://www.w3.org/2000/svg" xmlns:xlink="http://www.w3.org/1999/xlink" x="0px" y="0px"
	 width="192px" height="192px" viewBox="0 0 192 192" enable-background="new 0 0 192 192" xml:space="preserve">
<path fill="#F2F2F2" d="M166.066,55.434c-1.265-4.247-2.88-8.343-4.812-12.254h0.003c-3.678-1.335-7.647-2.064-11.787-2.064
	c-4.139,0-8.107,0.729-11.786,2.064h0.003c-1.934,3.911-3.549,8.007-4.812,12.254c-1.591,0.993-3.09,2.119-4.473,3.372H63.597
	c-1.383-1.253-2.882-2.379-4.473-3.372c-1.263-4.248-2.878-8.344-4.812-12.254h0.003c-3.678-1.335-7.646-2.064-11.786-2.064
	s-8.108,0.729-11.786,2.064h0.003c-1.933,3.911-3.548,8.007-4.812,12.254c-8.885,5.545-14.802,15.405-14.802,26.65
	c0,0.773,0.037,1.537,0.093,2.295l1.93,47.869c0,10.293,8.343,18.637,18.636,18.637c6.844,0,12.82-3.691,16.062-9.189l0.001,0.002
	c0,0,0.008-0.018,0.011-0.021c0.321-0.547,0.615-1.111,0.88-1.691c2.574-4.947,9.983-19.191,11.849-22.777
	c3.967-7.625,4.296-8.674,15.047-8.674h40.722c10.752,0,11.08,1.049,15.047,8.674c1.864,3.584,9.266,17.811,11.845,22.768
	c0.269,0.588,0.564,1.16,0.891,1.713c0.001,0,0.005,0.01,0.005,0.01v-0.002c3.24,5.498,9.219,9.189,16.062,9.189
	c10.292,0,18.636-8.344,18.636-18.637l1.931-47.868c0.056-0.759,0.093-1.523,0.093-2.296
	C180.868,70.838,174.952,60.979,166.066,55.434z M36.914,68.513c0-0.84,0.683-1.522,1.522-1.522h8.186
	c0.841,0,1.522,0.682,1.522,1.522c0,0,0,3.334,0,4.072s-0.285,1.231-0.921,1.949c-1.987,2.247-3.618,4.092-3.618,4.092
	c-0.296,0.297-0.687,0.446-1.076,0.446s-0.779-0.149-1.077-0.446c0,0-1.631-1.845-3.617-4.092c-0.635-0.718-0.921-1.212-0.921-1.949
	S36.914,68.513,36.914,68.513z M33.03,87.699c-0.737,0-4.071,0-4.071,0c-0.842,0-1.523-0.682-1.523-1.522v-8.185
	c0-0.841,0.682-1.522,1.523-1.522c0,0,3.334,0,4.071,0s1.231,0.285,1.949,0.92c2.247,1.987,4.091,3.618,4.091,3.618
	c0.298,0.297,0.446,0.687,0.446,1.077c0,0.39-0.148,0.779-0.446,1.077c0,0-1.844,1.631-4.091,3.618
	C34.262,87.414,33.768,87.699,33.03,87.699z M48.145,95.656c0,0.841-0.682,1.522-1.522,1.522h-8.186
	c-0.84,0-1.522-0.681-1.522-1.522c0,0,0-3.335,0-4.072s0.285-1.23,0.921-1.949c1.986-2.247,3.617-4.092,3.617-4.092
	c0.298-0.297,0.688-0.446,1.077-0.446s0.779,0.148,1.076,0.446c0,0,1.631,1.845,3.618,4.092c0.635,0.719,0.921,1.212,0.921,1.949
	S48.145,95.656,48.145,95.656z M57.622,86.177c0,0.84-0.681,1.522-1.522,1.522c0,0-3.333,0-4.071,0c-0.737,0-1.23-0.286-1.948-0.92
	c-2.249-1.987-4.093-3.618-4.093-3.618c-0.297-0.297-0.446-0.687-0.446-1.077c0-0.39,0.149-0.779,0.446-1.077
	c0,0,1.844-1.631,4.093-3.618c0.718-0.635,1.211-0.92,1.948-0.92c0.738,0,4.071,0,4.071,0c0.842,0,1.522,0.682,1.522,1.522V86.177z
	 M88.452,98.572c0,0.842-0.683,1.523-1.522,1.523h-6.09c-0.841,0-1.522-0.682-1.522-1.523v-2.791c0-0.84,0.682-1.522,1.522-1.522
	h6.09c0.84,0,1.522,0.682,1.522,1.522V98.572z M112.682,97.178c0,0.309-0.11,0.574-1.522,1.082
	c-1.464,0.525-4.512,1.836-6.089,1.836c-0.766,0-1.522-0.682-1.522-1.523v-2.791c0-0.84,0.757-1.522,1.522-1.522
	c1.577,0,4.625,1.309,6.089,1.835C112.571,96.603,112.682,96.868,112.682,97.178L112.682,97.178z M134.658,88.799
	c-3.897,0-7.057-3.159-7.057-7.056s3.159-7.057,7.057-7.057c3.896,0,7.056,3.159,7.056,7.057S138.555,88.799,134.658,88.799z
	 M149.183,103.992c-3.896,0-7.057-3.16-7.057-7.056c0-3.897,3.16-7.057,7.057-7.057c3.898,0,7.057,3.159,7.057,7.057
	C156.239,100.832,153.081,103.992,149.183,103.992z M149.183,74.289c-3.896,0-7.057-3.159-7.057-7.056
	c0-3.897,3.16-7.057,7.057-7.057c3.898,0,7.057,3.16,7.057,7.057C156.239,71.13,153.081,74.289,149.183,74.289z M164.283,88.799
	c-3.897,0-7.057-3.159-7.057-7.056s3.159-7.057,7.057-7.057c3.896,0,7.057,3.159,7.057,7.057S168.18,88.799,164.283,88.799z"/>
</svg>
