<?xml version="1.0" encoding="utf-8"?>
<!-- Generator: Adobe Illustrator 16.0.0, SVG Export Plug-In . SVG Version: 6.00 Build 0)  -->
<!DOCTYPE svg PUBLIC "-//W3C//DTD SVG 1.1//EN" "http://www.w3.org/Graphics/SVG/1.1/DTD/svg11.dtd">
<svg version="1.1" id="Calque_1" xmlns="http://www.w3.org/2000/svg" xmlns:xlink="http://www.w3.org/1999/xlink" x="0px" y="0px"
	 width="192px" height="192px" viewBox="0 0 192 192" enable-background="new 0 0 192 192" xml:space="preserve">
<g id="settings_10_">
	<path fill="#F2F2F2" d="M54.864,96c0,3.35,0.41,6.604,1.166,9.721l-8.105,5.66c2.227,6.965,5.917,13.277,10.723,18.561l8.96-4.191
		c4.69,4.478,10.434,7.855,16.827,9.727l0.847,9.844c3.456,0.746,7.04,1.15,10.719,1.15c3.68,0,7.264-0.404,10.719-1.15l0.848-9.844
		c6.393-1.871,12.137-5.249,16.826-9.727l8.961,4.191c4.805-5.283,8.496-11.596,10.723-18.561l-8.105-5.66
		c0.756-3.117,1.166-6.371,1.166-9.721c0-3.351-0.41-6.604-1.166-9.721l8.105-5.66c-2.227-6.966-5.918-13.277-10.723-18.561
		l-8.961,4.192c-4.689-4.478-10.434-7.855-16.826-9.726l-0.848-9.844c-3.455-0.747-7.039-1.151-10.719-1.151
		c-3.679,0-7.263,0.404-10.719,1.151l-0.847,9.844c-6.394,1.87-12.137,5.248-16.827,9.726l-8.96-4.192
		c-4.805,5.284-8.496,11.595-10.723,18.561l8.105,5.66C55.274,89.396,54.864,92.649,54.864,96z M96,64.87
		c17.207,0,31.156,13.949,31.156,31.157c0,17.207-13.949,31.156-31.156,31.156c-17.208,0-31.156-13.949-31.156-31.156
		C64.844,78.819,78.792,64.87,96,64.87z"/>
</g>
</svg>
