<?xml version="1.0" encoding="utf-8"?>
<!-- Generator: Adobe Illustrator 16.0.0, SVG Export Plug-In . SVG Version: 6.00 Build 0)  -->
<!DOCTYPE svg PUBLIC "-//W3C//DTD SVG 1.1//EN" "http://www.w3.org/Graphics/SVG/1.1/DTD/svg11.dtd">
<svg version="1.1" id="Calque_1" xmlns="http://www.w3.org/2000/svg" xmlns:xlink="http://www.w3.org/1999/xlink" x="0px" y="0px"
	 width="192px" height="192px" viewBox="0 0 192 192" enable-background="new 0 0 192 192" xml:space="preserve">
<path fill="#F2F2F2" d="M164.188,66.298c0.018-0.03,0.039-0.058,0.057-0.09c0.729-1.329,0.242-2.997-1.086-3.726
	c-5.264-2.887-11.195-4.546-17.191-4.841c-0.184-0.039-0.375-0.061-0.57-0.061h-19.209c-1.518,0-2.744,1.228-2.744,2.744H68.557
	c0-1.515-1.228-2.744-2.744-2.744H46.602c-0.195,0-0.385,0.022-0.569,0.061c-5.996,0.295-11.928,1.955-17.19,4.841
	c-1.33,0.729-1.815,2.397-1.087,3.726c0.018,0.032,0.039,0.059,0.058,0.09c-10.161,6.606-16.886,18.051-16.886,31.074
	c0,20.462,16.586,37.048,37.048,37.048c7.117,0,13.762-2.01,19.406-5.488h57.238c5.645,3.479,12.289,5.488,19.406,5.488
	c20.461,0,37.047-16.586,37.047-37.048C181.072,84.349,174.348,72.904,164.188,66.298z M61.697,101.668
	c0,0.657-0.536,1.193-1.192,1.193h-7.04v7.04c0,0.656-0.537,1.192-1.193,1.192h-8.592c-0.657,0-1.193-0.536-1.193-1.192v-7.04h-7.04
	c-0.656,0-1.192-0.536-1.192-1.193v-8.592c0-0.658,0.536-1.192,1.192-1.192h7.04v-7.04c0-0.658,0.536-1.192,1.193-1.192h8.592
	c0.656,0,1.193,0.534,1.193,1.192v7.04h7.04c0.656,0,1.192,0.534,1.192,1.192V101.668z M89.29,103.771l-8.233,5.489
	c-0.468,0.312-0.997,0.461-1.521,0.461c-0.887,0-1.756-0.429-2.285-1.222c-0.841-1.262-0.5-2.965,0.761-3.806l8.233-5.489
	c1.26-0.84,2.964-0.5,3.806,0.762C90.89,101.228,90.549,102.932,89.29,103.771z M105.754,103.771l-8.232,5.489
	c-0.467,0.312-0.997,0.461-1.52,0.461c-0.887,0-1.756-0.429-2.285-1.222c-0.841-1.262-0.5-2.965,0.761-3.806l8.232-5.489
	c1.262-0.84,2.965-0.5,3.807,0.762C107.355,101.228,107.016,102.932,105.754,103.771z M127.564,104.233c0,0-0.002,0-0.006,0
	c-3.789,0.003-6.861-3.069-6.865-6.855c0-3.791,3.07-6.864,6.861-6.866c0,0,0.002,0,0.004,0c3.789-0.001,6.861,3.068,6.867,6.857
	C134.426,101.156,131.354,104.233,127.564,104.233z M150.885,111.094c0,3.789-3.068,6.86-6.855,6.866
	c-3.789,0-6.865-3.071-6.865-6.86c0,0,0-0.003,0-0.006c0-3.789,3.068-6.86,6.855-6.866c3.789,0,6.865,3.071,6.865,6.86
	C150.885,111.088,150.885,111.092,150.885,111.094z M150.885,83.651c0,3.789-3.068,6.861-6.855,6.864
	c-3.789,0.001-6.865-3.068-6.865-6.858c0-0.001,0-0.004,0-0.006c0-3.79,3.068-6.862,6.855-6.865
	c3.789-0.001,6.865,3.068,6.865,6.858C150.885,83.647,150.885,83.648,150.885,83.651z M160.496,104.233c0,0-0.004,0-0.006,0
	c-3.789,0.003-6.861-3.069-6.865-6.855c0-3.791,3.07-6.864,6.859-6.866c0,0,0.004,0,0.006,0c3.789-0.001,6.861,3.068,6.865,6.857
	C167.355,101.156,164.285,104.233,160.496,104.233z"/>
</svg>
