<?xml version="1.0" encoding="utf-8"?>
<!-- Generator: Adobe Illustrator 16.0.0, SVG Export Plug-In . SVG Version: 6.00 Build 0)  -->
<!DOCTYPE svg PUBLIC "-//W3C//DTD SVG 1.1//EN" "http://www.w3.org/Graphics/SVG/1.1/DTD/svg11.dtd">
<svg version="1.1" id="Calque_1" xmlns="http://www.w3.org/2000/svg" xmlns:xlink="http://www.w3.org/1999/xlink" x="0px" y="0px"
	 width="192px" height="192px" viewBox="0 0 192 192" enable-background="new 0 0 192 192" xml:space="preserve">
<path fill="#F2F2F2" d="M178.266,13.833h-2.933V13.72c0-1.502-1.218-2.72-2.72-2.72H19.386c-1.502,0-2.72,1.217-2.72,2.72v0.114
	h-2.935c-1.509,0-2.731,1.223-2.731,2.731v65.269v5.767v90.566c0,1.571,1.263,2.833,2.833,2.833h164.333
	c1.571,0,2.834-1.262,2.834-2.833V87.601v-5.767V16.565C181,15.056,179.777,13.833,178.266,13.833z M96,25.167L110.166,36.5h-5.667
	v2.833H87.5V36.5h-5.667L96,25.167z M175.333,166.833c0,3.13-2.537,5.667-5.667,5.667H22.333c-3.129,0-5.667-2.537-5.667-5.667
	V93.167c0-3.13,2.538-5.667,5.667-5.667h147.333c3.13,0,5.667,2.537,5.667,5.667V166.833z"/>
</svg>
