<?xml version="1.0" encoding="utf-8"?>
<!-- Generator: Adobe Illustrator 16.0.0, SVG Export Plug-In . SVG Version: 6.00 Build 0)  -->
<!DOCTYPE svg PUBLIC "-//W3C//DTD SVG 1.1//EN" "http://www.w3.org/Graphics/SVG/1.1/DTD/svg11.dtd">
<svg version="1.1" id="Calque_1" xmlns="http://www.w3.org/2000/svg" xmlns:xlink="http://www.w3.org/1999/xlink" x="0px" y="0px"
	 width="192px" height="192px" viewBox="0 0 192 192" enable-background="new 0 0 192 192" xml:space="preserve">
<path fill="#F2F2F2" d="M183.833,155.5V22.333c0-6.259-5.074-11.333-11.333-11.333h-153c-6.259,0-11.333,5.075-11.333,11.333V155.5
	c0,1.565,1.269,2.833,2.833,2.833c-1.564,0-2.833,1.268-2.833,2.834v8.5C8.167,175.925,13.241,181,19.5,181h153
	c6.259,0,11.333-5.075,11.333-11.333v-8.5c0-1.566-1.267-2.834-2.833-2.834C182.566,158.333,183.833,157.065,183.833,155.5z
	 M102.846,142.119l-5.667,8.5c-0.263,0.394-0.705,0.631-1.179,0.631s-0.915-0.237-1.179-0.631l-5.667-8.5
	c-0.289-0.435-0.316-0.993-0.07-1.454s0.727-0.748,1.249-0.748h11.334c0.523,0,1.003,0.287,1.249,0.748
	S103.135,141.685,102.846,142.119z M158.333,121.5c0,3.13-2.539,5.667-5.672,5.667H42.172c-3.132,0-5.672-2.537-5.672-5.667V33.667
	c0-3.129,2.54-5.667,5.672-5.667h110.489c3.133,0,5.672,2.537,5.672,5.667V121.5z"/>
</svg>
